<svg id="Layer_1" data-name="Layer 1" xmlns="http://www.w3.org/2000/svg" xmlns:xlink="http://www.w3.org/1999/xlink" viewBox="0 0 4083.2 3294.78"><defs><clipPath id="clip-path" transform="translate(1205.77 1115.65)"><path d="M1539.39,24.29V1058.45h-244.7V429.28H1092.06L1294.69,51.74l14.71-27.45Zm-365.64,636.2L787.21,24.29H45V266.08H542.51v136H45v241.7H542.51V816.66H45v241.79H787.21V445.58L930.55,660.49Z" style="fill:#fff"/></clipPath></defs><g id="logo"><path d="M1539.39,24.29V1058.45h-244.7V429.28H1092.06L1294.69,51.74l14.71-27.45Zm-365.64,636.2L787.21,24.29H45V266.08H542.51v136H45v241.7H542.51V816.66H45v241.79H787.21V445.58L930.55,660.49Z" transform="translate(1205.77 1115.65)" style="fill:#fff"/><g style="clip-path:url(#clip-path)"><g id="line"><path d="M-1200.21-1115.42q-.29,446.78,0,893.55-.06,192.15,0,384.29c0,121.91-9.3,248,.48,369.52,7.7,95.69,72.36,181.82,126.48,257.54,67.59,94.58,141.91,184.4,206.48,281.14,40.41,60.53,107.52,151.73,88.49,230.62-16.23,67.31-91.23,101.82-148.37,126.93-72.05,31.66-154.75,53.38-217.68,102.62-63.58,49.74-55.88,113.64-55.88,186.76v461.29" transform="translate(1205.77 1115.65)" style="fill:none;stroke:#0f0f0f;stroke-miterlimit:10;stroke-width:3.123080248673974px"/><path d="M-1157.75-1115.42c-4.09,297.84,4,595.77.12,893.7-1.66,128-.12,256.09-.12,384.14,0,122.07-8.86,247.94.4,369.64,7.32,96.23,71.65,181.66,126.61,257.34,68.07,93.76,143.13,182.5,208.08,278.53,40.81,60.36,107.7,151.51,88.52,230.57C-750.47,1365.8-826,1400.62-883,1426.19c-72.6,32.56-155.83,55.34-219.29,105.24s-55.49,113-55.49,186.12v461.29" transform="translate(1205.77 1115.65)" style="fill:none;stroke:#0f0f0f;stroke-miterlimit:10;stroke-width:3.123080248673974px"/><path d="M-1115.29-1115.42c-5.91,298.56,11.73,596.33,1.72,895.22-4.27,127.48-1.72,255.08-1.72,382.62,0,122.14-8.68,247.93.36,369.71,7.15,96.33,71.73,180.73,127.58,255.75,68.85,92.48,144.87,179.69,210.5,274.57,41.46,59.92,108.38,150.32,89.18,229.5-16.42,67.7-93.11,103.49-150.17,129.87-73.48,34-157.54,58.29-221.8,109.34-63.41,50.37-55.65,112.8-55.65,186.39v461.29" transform="translate(1205.77 1115.65)" style="fill:none;stroke:#0f0f0f;stroke-miterlimit:10;stroke-width:3.123080248673974px"/><path d="M-1072.83-1115.42c-3.26,166.09,17.07,331.13,18.56,497.08,1.2,134.26-5.77,266.93-14,400.84-7.78,126.49-4.55,253.25-4.55,379.92,0,122.14-8.73,248,.35,369.73,7.16,96.07,72.49,179.15,129.28,253,69.87,90.83,147,176.11,213.64,269.45,42.3,59.27,109.47,148.31,90.35,227.57-16.51,68.45-94.94,105.8-152.24,133.27-74.63,35.78-159.82,62.08-225.09,114.71-63.61,51.29-56.29,113-56.29,187.44v461.29" transform="translate(1205.77 1115.65)" style="fill:none;stroke:#0f0f0f;stroke-miterlimit:10;stroke-width:3.123080248673974px"/><path d="M-1030.37-1115.42c-2.42,170.19,26.32,338.31,30.21,508.2,3,132.59-9,261.72-21.8,393.41-12.14,125.13-8.41,250.67-8.41,376.23,0,122.07-9,248,.36,369.71,7.32,95.51,73.85,177,131.6,249.18,71.1,88.84,149.54,171.88,217.36,263.37,43.3,58.41,110.92,145.6,92,224.92-16.6,69.49-97.25,108.88-154.95,137.68-76,38-162.54,66.56-229,121.13-64,52.49-57.33,113.48-57.33,189.14v461.29" transform="translate(1205.77 1115.65)" style="fill:none;stroke:#0f0f0f;stroke-miterlimit:10;stroke-width:3.123080248673974px"/><path d="M-987.92-1115.42c-.83,175.05,36.79,346.64,43.79,521.15,5.26,131.08-12.59,255.71-30.68,384.92C-992.1-85.89-987.92,38.08-987.92,162.42c0,121.94-9.35,248.13.4,369.66,7.6,94.73,75.68,174.46,134.39,244.61,72.5,86.6,152.35,167.13,221.56,256.51,44.45,57.4,112.66,142.32,94,221.7-16.68,70.76-99.94,112.6-158.15,142.91-77.57,40.39-165.62,71.59-233.45,128.38-64.4,53.92-58.7,114.27-58.7,191.36v461.29" transform="translate(1205.77 1115.65)" style="fill:none;stroke:#0f0f0f;stroke-miterlimit:10;stroke-width:3.123080248673974px"/><path d="M-945.46-1115.42c1.35,180.49,48.14,355.83,58.81,535.47,7.72,130-16.28,249.07-40.4,375.66C-950.2-82.8-945.46,39.32-945.46,162.42c0,121.77-9.87,248.28.44,369.58,8,93.8,77.9,171.59,137.56,239.44,74,84.18,155.36,162,226.11,249.08,45.7,56.25,114.6,138.62,96.18,218-16.74,72.2-102.92,116.81-161.72,148.74-79.26,43-169,77-238.28,136.28-64.92,55.47-60.29,115.3-60.29,194v461.29" transform="translate(1205.77 1115.65)" style="fill:none;stroke:#0f0f0f;stroke-miterlimit:10;stroke-width:3.123080248673974px"/><path d="M-903-1115.42c4,186.34,60,365.58,74.79,550.71,10.31,129.48-19.86,241.94-50.67,365.87C-908.53-79.61-903,40.5-903,162.42c0,121.56-10.47,248.46.5,369.5,8.41,92.77,80.39,168.5,141,233.87,75.63,81.62,158.5,156.63,230.89,241.27,47,55,116.69,134.59,98.59,214.11-16.79,73.74-106.11,121.36-165.53,155-81,45.85-172.5,82.77-243.37,144.59-65.47,57.1-62,116.51-62,196.82v461.29" transform="translate(1205.77 1115.65)" style="fill:none;stroke:#0f0f0f;stroke-miterlimit:10;stroke-width:3.123080248673974px"/><path d="M-860.54-1115.42c6.88,192.42,72.2,375.6,91.24,566.4,12.94,129.73-23.14,234.6-61.21,355.82-36.65,116.64-30,234.8-30,355.62,0,121.31-11.13,248.68.56,369.4,8.88,91.73,83.05,165.31,144.48,228.12,77.28,79,161.7,151.12,235.79,233.26,48.4,53.68,118.86,130.41,101.08,210-16.82,75.34-109.39,126.09-169.46,161.4-82.87,48.71-176.1,88.62-248.58,153.1-66,58.74-63.87,117.83-63.87,199.81v461.29" transform="translate(1205.77 1115.65)" style="fill:none;stroke:#0f0f0f;stroke-miterlimit:10;stroke-width:3.123080248673974px"/><path d="M-818.08-1115.42c9.87,198.55,84.29,385.59,107.67,582.08,15.56,130.7-26,227.35-71.74,345.76-44,113.73-35.93,230.19-35.93,350,0,121.05-11.8,248.93.62,369.3,9.35,90.72,85.76,162.13,148,222.37,78.93,76.39,164.89,145.62,240.68,225.27,49.78,52.32,121,126.2,103.57,206C-342,1262.25-437.9,1316.17-498.6,1353.15c-84.67,51.57-179.69,94.46-253.79,161.61-66.56,60.32-65.69,119.19-65.69,202.79v461.29" transform="translate(1205.77 1115.65)" style="fill:none;stroke:#0f0f0f;stroke-miterlimit:10;stroke-width:3.123080248673974px"/><path d="M-775.62-1115.42c12.76,204.53,96,395.26,123.6,597.27,18.08,132.31-28.33,220.56-82,336-51.33,110.44-41.62,225.7-41.62,344.57,0,120.78-12.44,249.18.67,369.21,9.81,89.82,88.39,159.06,151.4,216.82,80.54,73.84,168,140.26,245.44,217.48,50,49.89,124.77,123.09,106,202s-114.53,134.61-177.2,174c-86.42,54.36-183.17,100.14-258.85,169.9-67.06,61.8-67.44,120.53-67.44,205.64v461.29" transform="translate(1205.77 1115.65)" style="fill:none;stroke:#0f0f0f;stroke-miterlimit:10;stroke-width:3.123080248673974px"/><path d="M-733.16-1115.42c15.34,210.21,107,404.31,138.55,611.53,20.44,134.35-30.24,214.51-91.67,326.77-58.47,106.87-46.88,221.57-46.88,339.54,0,120.54-13,249.42.72,369.14,10.2,89.06,90.8,156.22,154.54,211.68,82.07,71.42,170.94,135.15,250,210.08,51.09,48.44,127,119.39,108.2,198.4-19.2,80.56-117.27,138.76-180.75,179.85-88.08,57-186.46,105.53-263.66,177.75-67.49,63.14-69,121.76-69,208.23v461.29" transform="translate(1205.77 1115.65)" style="fill:none;stroke:#0f0f0f;stroke-miterlimit:10;stroke-width:3.123080248673974px"/><path d="M-690.7-1115.42C-673.31-900-573.62-703-538.68-491c22.52,136.63-31.74,209.42-100.49,318.34-65.11,103.15-51.53,218-51.53,335.12,0,120.35-13.44,249.63.74,369.09,10.52,88.52,92.88,153.73,157.32,207.15C-449.17,807.86-359,869.09-278.5,941.92c52.07,47.14,129,116.08,110.16,195.22-19.54,81.92-119.76,142.45-183.92,185-89.6,59.44-189.47,110.49-268.09,185-67.84,64.28-70.35,122.77-70.35,210.41v461.29" transform="translate(1205.77 1115.65)" style="fill:none;stroke:#0f0f0f;stroke-miterlimit:10;stroke-width:3.123080248673974px"/><path d="M-648.24-1115.42C-629.56-895.51-522.36-696.07-484.7-480c24.22,138.94-32.9,205.35-108.21,311-70.91,99.47-55.33,215.3-55.33,331.49,0,120.23-13.71,249.76.76,369.07C-636.79,619.73-553,683.2-487.89,734.92c84.71,67.24,176.1,126.22,257.83,197.23,53,46,130.66,113.27,111.75,192.6-19.79,83-121.91,145.58-186.58,189.39-90.93,61.59-192.11,114.86-272,191.33-68.1,65.21-71.37,123.53-71.37,212.08v461.29" transform="translate(1205.77 1115.65)" style="fill:none;stroke:#0f0f0f;stroke-miterlimit:10;stroke-width:3.123080248673974px"/><path d="M-605.78-1115.42c19,223.59,133.12,424.74,172.61,644,25.41,141.13-33.7,202.31-114.52,305-75.63,96.07-58.09,213.56-58.09,328.85,0,120.22-13.75,249.8.74,369.09,10.72,88.28,95.34,150.27,161.26,200.71C-358,797.83-265.62,854.88-182.86,924.4-129.12,969.54-51,1035.55-69.95,1115.12c-20,83.86-123.64,148-188.63,192.72-92,63.38-194.28,118.52-275.21,196.63-68.25,65.86-72,123.9-72,213.08v461.29" transform="translate(1205.77 1115.65)" style="fill:none;stroke:#0f0f0f;stroke-miterlimit:10;stroke-width:3.123080248673974px"/><path d="M-563.32-1115.42c18,226.25,138.52,428.32,178.75,649.88,12.31,67.78,14.12,129.74-22.91,189.93-25.9,42.1-64.56,73.26-96.23,110.62-79,93.21-59.61,213.05-59.61,327.41,0,120.34-13.53,249.72.7,369.17,10.56,88.67,95.43,149.53,162.18,199.19,86.52,64.37,179.8,119.86,263.3,188.29,54.38,44.57,132.5,109.87,113.52,189.72-20,84.28-124.84,149.45-189.91,194.81-92.85,64.74-195.91,121.34-277.67,200.65-68.26,66.22-72.12,123.83-72.12,213.3v461.29" transform="translate(1205.77 1115.65)" style="fill:none;stroke:#0f0f0f;stroke-miterlimit:10;stroke-width:3.123080248673974px"/><path d="M-520.86-1115.42C-505.24-887.79-379.15-685.65-339.43-463c11.94,66.94,14.41,130.55-23,189.77-26.43,41.83-66.25,71.69-98.75,108.32C-542-73.74-520.93,49-520.9,162.44c0,120.57-13,249.52.67,369.26C-510,621.12-425.57,681.31-358,730.77c87,63.62,180.86,118,264.76,185.84C-38.35,961,39.35,1026.17,20.34,1106.32.35,1190.59-105.11,1256.23-170,1301.8c-93.34,65.58-196.84,123.1-279.13,203.09-68.13,66.24-71.75,123.26-71.75,212.66v461.29" transform="translate(1205.77 1115.65)" style="fill:none;stroke:#0f0f0f;stroke-miterlimit:10;stroke-width:3.123080248673974px"/><path d="M-478.4-1115.42c18.06,226.14,138.3,428.19,178.52,649.66,12.28,67.61,15.36,129.62-22.07,189.56-26.91,43.08-67.2,74.69-100.12,112.74C-501.71-71.4-484,50.15-482.09,164.2c2,119.86-8.81,248.54,4.67,367.32,10,88.25,95.68,149.83,161.85,199.29C-229.7,795-137.13,850.39-54.25,918.59-.3,963,78.49,1028.9,59.23,1108.33c-20.35,83.87-124.61,149.33-189.34,194.93-92.22,65-194.4,121.94-275.68,201.15-68.08,66.34-72.61,123.57-72.61,213.14v461.29" transform="translate(1205.77 1115.65)" style="fill:none;stroke:#0f0f0f;stroke-miterlimit:10;stroke-width:3.123080248673974px"/><path d="M-435.94-1115.42C-417-892-303.14-690.9-263.72-471.76c12.37,68.73,15.22,129.49-22.16,190.57-27.6,45.11-68.63,79.29-102.22,119.58C-466.85-67.2-452.44,52-447.26,167.91c5.31,119.1-.87,245.61,12.49,363.51,9.91,87.43,94.77,150.32,159.65,200.52C-191,797-100.23,853.74-19,922.66c53,45,131.31,111.77,112.08,190.52C72.75,1196.3-29.21,1261.08-93.42,1306.5c-90.44,64-190.69,120.06-270.26,198.1-67.52,66.24-72.26,123.75-72.26,213v461.29" transform="translate(1205.77 1115.65)" style="fill:none;stroke:#0f0f0f;stroke-miterlimit:10;stroke-width:3.123080248673974px"/><path d="M-393.48-1115.42c18.63,219.71,125.48,419,163,634.88,26.05,149.76-41.41,212.54-128.1,321.13-78.07,97.8-67.16,214.05-57.28,332.67,4.92,59.15,12.25,118.06,17.27,177.2,5.07,59.74-.38,121.78,6.32,180.93,9.84,86.94,92.25,151,155.93,202.6C-154.43,800.29-66,858.58,13,928.53c51.9,46,128.48,113.84,109.53,192-19.9,82-118.61,145.72-182,190.79-88.09,62.66-185.89,117.54-263.15,194.11-66.53,65.94-70.88,123.82-70.88,212.17v461.29" transform="translate(1205.77 1115.65)" style="fill:none;stroke:#0f0f0f;stroke-miterlimit:10;stroke-width:3.123080248673974px"/><path d="M-351-1115.42c17.3,215.15,116.61,412.07,151.4,623.79,11.82,72,12.36,131.38-24.81,195.6C-254-244.91-297.12-203.62-332.7-156.9-410.27-55-403.34,58.19-387.26,180c7.63,57.78,18.48,115.09,26.24,172.85,8,59.61,4.47,119.36,11.18,178.58,9.82,86.74,88.43,151.91,151,205.4,79.18,67.74,165,127.85,241.22,199.07,50.68,47.35,124.5,116.39,106,193.92-19.22,80.66-113.89,142.94-176.11,187.51-85.26,61.07-180.17,114.48-254.64,189.32-65.14,65.48-68.63,123.82-68.63,210.91v461.29" transform="translate(1205.77 1115.65)" style="fill:none;stroke:#0f0f0f;stroke-miterlimit:10;stroke-width:3.123080248673974px"/><path d="M-308.56-1115.42c15.22,209.94,106.5,403.89,137.84,610.86,23.59,155.78-53.42,232.45-139.06,350.41-77.17,106.29-75,216.89-51.17,342,10.71,56.28,25.48,111.7,36.36,168,11.45,59.24,10.33,116.4,17.06,175.72,9.85,86.79,83.67,152.91,145,208.77,76.13,69.38,159,131.5,232.13,204.18,49.31,49,119.57,119.3,101.75,196.33C153,1219.84,63,1280.42,2.14,1324.38c-82.06,59.27-173.74,111-245,183.91-63.43,64.87-65.7,123.77-65.7,209.26v461.29" transform="translate(1205.77 1115.65)" style="fill:none;stroke:#0f0f0f;stroke-miterlimit:10;stroke-width:3.123080248673974px"/><path d="M-266.11-1115.42c12.63,204.24,95.44,394.8,122.84,596.55,21.66,159.41-60.47,244.56-145.79,367.64-76.84,110.83-80.29,219.6-47.28,347.7,29.48,114.42,57.66,217.64,71.06,335.13,9.94,87,78.24,154,138.22,212.57C-54.23,815.33,25.42,879.6,95.21,953.89c47.81,50.9,113.94,122.42,96.9,199.05-17.18,77.31-102.14,136-161.44,179.26-78.57,57.32-166.75,107.26-234.53,178-61.42,64.14-62.25,123.7-62.25,207.32v461.29" transform="translate(1205.77 1115.65)" style="fill:none;stroke:#0f0f0f;stroke-miterlimit:10;stroke-width:3.123080248673974px"/><path d="M-223.65-1115.42c9.73,198.25,83.7,385.11,106.87,581.32,19.31,163.42-67.8,257.53-153,385.91-76.51,115.24-86.54,223.34-43.05,353.86,37.35,112.09,76.17,207.87,89.79,326.06,10.08,87.48,72.46,155,131,216.66,69.35,73,145.63,139.56,211.89,215.54,46.9,53.8,106.67,124.93,91.68,202-14.6,75-96.42,132.75-153.17,174.61-74.9,55.25-159.41,103.3-223.5,171.84-59.19,63.3-58.45,123.62-58.45,205.18v461.29" transform="translate(1205.77 1115.65)" style="fill:none;stroke:#0f0f0f;stroke-miterlimit:10;stroke-width:3.123080248673974px"/><path d="M-181.19-1115.42c6.73,192.12,71.61,375.11,90.43,565.63,16.57,167.73-75.12,270.87-160.53,404.71-76.16,119.35-93.59,228.13-38.65,360.23,45.36,109,95.14,197.64,109.05,316.73C-160,710.55,37.86,842.8,143.85,974.27c44.84,55.62,100.8,128.44,86.26,205-13.91,73.21-89.21,128.42-144.63,169.81-71.14,53.14-151.88,99.24-212.18,165.48-56.81,62.41-54.49,123.59-54.49,203v461.29" transform="translate(1205.77 1115.65)" style="fill:none;stroke:#0f0f0f;stroke-miterlimit:10;stroke-width:3.123080248673974px"/><path d="M-138.73-1115.42c3.84,186.05,59.46,365.09,74,550C-51.2-393.2-146.91-281.35-232.74-142-308.53-18.92-333.95,91.92-267,224.61-213.86,330-153,411.9-138.7,532c21.48,180.55,203.86,314.4,306.61,452.58,42.74,57.47,94.91,131.85,80.85,208.07-13.16,71.38-82.06,124.11-136.09,165-67.38,51-144.34,95.2-200.88,159.13-54.34,61.46-50.52,123.59-50.52,200.73v461.29" transform="translate(1205.77 1115.65)" style="fill:none;stroke:#0f0f0f;stroke-miterlimit:10;stroke-width:3.123080248673974px"/><path d="M-96.27-1115.42C-95-935.2-48.7-760.06-38.22-580.67-27.89-403.79-127-283.82-213.45-138.94c-75.37,126.26-109,240.42-30,372.74,60.4,101.18,132.28,177.1,147,298.35C-74.36,714.42,93.38,850,192.53,994.63c40.63,59.27,89.18,135,75.63,211-12.4,69.53-75.23,120-127.83,160.38-63.74,49-137,91.28-189.87,152.94-51.89,60.52-46.73,123.63-46.73,198.6v461.29" transform="translate(1205.77 1115.65)" style="fill:none;stroke:#0f0f0f;stroke-miterlimit:10;stroke-width:3.123080248673974px"/><path d="M-53.81-1115.42c-.93,174.79,36.26,346.21,43.09,520.48C-3.61-413.51-105.39-286.26-192.67-136c-74.9,128.93-116.7,247.35-26.16,378.45C-151.95,339.27-69.4,409.77-54.24,532.26-31.49,716,123,853.62,218.22,1004.05c38.59,61,83.84,137.9,70.8,213.72-11.65,67.72-68.94,116.1-120.12,156-60.28,47-130,87.59-179.41,147.07-49.56,59.65-43.3,123.71-43.3,196.67v461.29" transform="translate(1205.77 1115.65)" style="fill:none;stroke:#0f0f0f;stroke-miterlimit:10;stroke-width:3.123080248673974px"/><path d="M-11.35-1115.42c-2.47,170,25.84,337.93,29.59,507.6C22.35-422.1-81.5-288.55-169.65-133.28-244-2.28-293.54,121-192.45,250.22c72.51,92.69,164.93,158.23,180.53,282.11C11.34,717,154.27,857.19,245.52,1012.57c36.68,62.47,79.11,140.37,66.55,216.1-10.95,66-63.43,112.71-113.22,152.17C141.73,1426.11,75.32,1465.07,29,1522.52c-47.45,58.9-40.38,123.81-40.38,195v461.29" transform="translate(1205.77 1115.65)" style="fill:none;stroke:#0f0f0f;stroke-miterlimit:10;stroke-width:3.123080248673974px"/><path d="M31.11-1115.42c-3.27,165.91,16.66,330.81,18,496.59C50.74-429.28-54.68-290.52-143.67-130.78c-73.76,132.39-130.27,260.7-20.1,387.69C-86.51,346,14.52,406.88,30.49,532.36,54.07,717.57,187.6,860.66,275,1019.88c35,63.7,75.24,142.4,63.08,218.05-10.36,64.44-58.92,109.89-107.41,148.91C176.48,1430.41,112.3,1468,69.27,1523.76c-45.39,58.88-38.16,123.52-38.16,193.79v461.29" transform="translate(1205.77 1115.65)" style="fill:none;stroke:#0f0f0f;stroke-miterlimit:10;stroke-width:3.123080248673974px"/><path d="M73.57-1115.42c-3.2,162.78,9.06,325.17,8.94,487.91C82.37-434.81-24.27-292-114-128.59c-73,133-135.56,266.21-18.26,390.79C-51,348.49,56.76,405,73,532.32c23.65,185.19,150.23,331.55,234.08,493.36,33.47,64.59,72.45,143.94,60.57,219.47-9.93,63.08-55.63,107.79-103,146.41-51.47,42-114.47,78.46-154.3,133-43.51,59.54-36.81,122.87-36.81,193v461.29" transform="translate(1205.77 1115.65)" style="fill:none;stroke:#0f0f0f;stroke-miterlimit:10;stroke-width:3.123080248673974px"/><path d="M116-1115.42c-2.13,160.7,3.38,321.32,2.76,482C118-438.41,10.35-292.85-79.84-126.76-151.9,6-219.39,143.58-97.27,265.84c84.54,84.64,196.54,136.9,212.94,266.38,23.38,184.55,145.82,334.44,226.76,497.46,32.29,65,71,144.94,59.22,220.23-9.72,62.18-53.83,106.31-100.17,144.83-49.73,41.34-110.47,76.64-148.94,130C109.65,1584.13,116,1647.78,116,1717.55v461.29" transform="translate(1205.77 1115.65)" style="fill:none;stroke:#0f0f0f;stroke-miterlimit:10;stroke-width:3.123080248673974px"/><path d="M158.49-1115.42q.1,239.69,0,479.38c0,196.19-108.59,343.14-198.94,510.66-70.9,131.46-142,272.67-17.78,392.91C29,352,142,400.11,158.47,532c22.82,183.21,144.21,336.78,223.08,499.52,31.5,65,71,145.35,59.19,220.23-9.79,61.88-53.78,105.47-99.26,144.32-48.52,41.43-107.68,75.45-145.59,128.11-42.95,59.69-37.4,123.28-37.4,193.33v461.29" transform="translate(1205.77 1115.65)" style="fill:none;stroke:#0f0f0f;stroke-miterlimit:10;stroke-width:3.123080248673974px"/><path d="M202.22-1112.23c4.75,159.87-7.76,319.33-6.41,479.16C197.44-441,91-292.09,5-126.75-64.49,6.61-133.76,143.78-12,266c84,84.33,191.78,134.84,209.44,263.31,25.35,184.4,145,333.72,225.79,497.26,32,64.8,71.23,144.84,58.7,219.73-10.2,61-54.49,106.54-98.92,145.81-48.36,42.75-106.65,80-144.39,133.48-42.4,60.06-37.71,121.66-37.71,192v461.29" transform="translate(1205.77 1115.65)" style="fill:none;stroke:#0f0f0f;stroke-miterlimit:10;stroke-width:3.123080248673974px"/><path d="M248.24-1103.35c6.91,160.36-20.52,318.58-20.38,478.68C228-438.24,131.7-291.26,51.71-127.92-13.4,5-77.91,138.24,36.59,261c79,84.7,177.06,136.74,194.78,260.73C257.72,706.2,379.14,851.8,462.11,1014.3c33,64.56,71.94,143.51,59.33,218.59-10.27,61.18-54.66,109.18-97.93,150.28-47.89,45.5-105.12,86.51-142.51,141.91-41.3,61.19-37.59,121.57-37.59,192.47v461.29" transform="translate(1205.77 1115.65)" style="fill:none;stroke:#0f0f0f;stroke-miterlimit:10;stroke-width:3.123080248673974px"/><path d="M296.2-1089.59c7,163.09-38.56,320.35-40.92,482.68-2.51,172.85-81.08,313-151.18,467.85C44.75-7.95-17.45,125.93,84.79,250.51c69.86,85.12,163.15,139.87,176.88,258.9C282.14,687,406.15,828.19,490.17,980.57c36.41,66,79.17,145,70.43,223.09-7.09,63.37-49.53,115.27-91.67,160.1-47.73,50.8-102.89,96.11-142.46,154-42.31,61.92-40.6,122.74-40.6,195.22v465.83" transform="translate(1205.77 1115.65)" style="fill:none;stroke:#0f0f0f;stroke-miterlimit:10;stroke-width:3.123080248673974px"/><path d="M345.78-1071.78c5.15,165.14-59.57,318.31-66.94,481.78-7.38,164-67,299.06-126.67,450.62C102-11.9,50.06,117.66,137.21,240,199.71,327.64,270.08,381.2,287.44,494c27.32,177.65,148.28,311.19,236.72,463.08,37.94,65.18,81.17,142.34,73.1,220.56-6.7,65-48.92,120.46-89.73,168.77-46.76,55.35-100.71,105.85-139.45,167.53-40.34,64.21-39.75,125.35-39.75,199v465.83" transform="translate(1205.77 1115.65)" style="fill:none;stroke:#0f0f0f;stroke-miterlimit:10;stroke-width:3.123080248673974px"/><path d="M396.67-1050.71c1.67,163.73-78,307-96.26,467.14-8.89,77.9-9.82,149.93-30.64,226.85-20.7,76.48-48,150.93-71.83,226.45C158.8-6,123.22,116.1,195.32,234.54c50.86,83.54,101.42,140.7,114.28,241.71,22.52,176.82,160.2,311,249.63,458.17,36.56,60.16,77.55,130,74.34,203.09-3,67.9-43.3,128.44-82.42,181.17-45.67,61.53-99.06,118.17-138.22,184.37s-42.14,130.22-42.14,205.33v470.46" transform="translate(1205.77 1115.65)" style="fill:none;stroke:#0f0f0f;stroke-miterlimit:10;stroke-width:3.123080248673974px"/><path d="M448.53-1027.22c-3,169.19-104.62,306.91-130.09,470.7C307-482.62,308.08-407.87,293.72-333.8c-13.76,71-32,141-47.47,211.59C221-7.07,199,106.24,247.86,217.83c36.07,82.39,74.19,145.11,82.75,237.74,16.19,175.18,172.11,312,263.31,453.06,38.63,59.76,77.72,126.81,73.51,200.28-4.13,71.95-45.87,136.76-84.68,194.91-41.47,62.16-89,120.81-125.17,186.43-39.3,71.31-44.33,133.49-44.33,213.41v475.18" transform="translate(1205.77 1115.65)" style="fill:none;stroke:#0f0f0f;stroke-miterlimit:10;stroke-width:3.123080248673974px"/><path d="M501-1002.1c-8.67,173.71-130.59,303.63-165.52,469.48-14.7,69.8-10.13,144.27-16.72,215.31-6,64.69-14.14,129.14-20.84,193.75-11.29,108.94-23.64,218.78,4.39,326.14C323,281.78,340.23,352,349.54,433.89,369.32,608,529.27,738.25,624.37,875.62c40.49,58.49,80.54,123.49,77.39,196.95-3.21,74.72-44.68,144.93-81.86,207.41-40.28,67.65-86.44,132.24-121.5,202.91-36.86,74.31-42.7,139.11-42.7,220.77v475.18" transform="translate(1205.77 1115.65)" style="fill:none;stroke:#0f0f0f;stroke-miterlimit:10;stroke-width:3.123080248673974px"/><path d="M553.86-976.17c-15.36,180.3-160.31,302.71-203.29,473-29.17,115.53-5.21,253-1,371.19,6.5,181,4.15,363.21,18.54,543.82,13,163.28,182.25,294,275.68,415.83,46.95,61.21,97.79,132.68,92.21,213.57-5.47,79.24-47.39,155.85-84.38,224-78.76,145.19-153.5,264.51-153.5,433.57v480" transform="translate(1205.77 1115.65)" style="fill:none;stroke:#0f0f0f;stroke-miterlimit:10;stroke-width:3.123080248673974px"/><path d="M606.69-950.25C584.09-763.11,416-648.93,365.14-473.66c-31.05,107.05,11.65,229.24,33.91,334.54C421.27-34,427.88,69.1,411.27,175.53c-10.85,69.48-30.88,142.8-25.39,213.61,12.65,163.12,195.83,291.43,291,409.4,44.5,55.2,94.23,119.59,93.85,194.28-.42,82.42-41.72,165.39-76.66,237.92-42.08,87.38-91.19,172.21-124.52,263.54-26.86,73.59-28.88,141.29-28.88,218.78v465.78" transform="translate(1205.77 1115.65)" style="fill:none;stroke:#0f0f0f;stroke-miterlimit:10;stroke-width:3.123080248673974px"/><path d="M659.19-925.15C629.18-730.78,438-625.87,380-444.83c-34.93,109.17,30.46,214.38,71.12,311.7C491-37.74,503.42,59.75,465.55,158c-26.75,69.41-63,132-59.52,209.72,3.23,72.76,53.77,134,99.9,186.56C571.48,629,646.51,694.91,711.28,770.35c48.14,56.06,93.53,116.6,92.83,193-.73,79.24-37.12,160.31-67.88,231.86-74.34,173-153.15,321.31-153.15,513v470.62" transform="translate(1205.77 1115.65)" style="fill:none;stroke:#0f0f0f;stroke-miterlimit:10;stroke-width:3.123080248673974px"/><path d="M711-901.67C674.59-701.88,464.9-606.46,397.9-422.53,356.26-308.2,443-220.94,501.41-133.84S576,51.39,518.94,143.7c-41.24,66.69-94.64,118.35-92.15,203.74,2.09,71.85,56.82,132.83,103.48,182.78,67.86,72.65,145.11,136,212.18,209.36C792.4,794.22,838.84,852.84,839,929.4c.14,82.09-36,167.54-65.44,242.72-70.7,180.26-148,339.46-148,536.1v470.62" transform="translate(1205.77 1115.65)" style="fill:none;stroke:#0f0f0f;stroke-miterlimit:10;stroke-width:3.123080248673974px"/><path d="M761.91-880.65C719.44-673.57,487.58-588.14,416.11-397.5,370.57-276,484.44-205.14,555.74-129.95c72,75.93,86.7,176,17.41,259.22C521.76,191,445,236.46,448.05,329.06c2.6,79.11,75.47,148.13,127.73,198.68,60.66,58.68,126.64,111.68,186.38,171.33,56.4,56.33,116.35,121.66,112.75,206.43-3.75,88.37-38.63,176.77-68.5,259C740.87,1344.76,668,1509.05,668,1703.29v475.55" transform="translate(1205.77 1115.65)" style="fill:none;stroke:#0f0f0f;stroke-miterlimit:10;stroke-width:3.123080248673974px"/><path d="M811.48-862.87C765.38-650.69,516.9-574.28,439.34-380.64,387.54-251.35,524.57-195,605.53-131.44c86,67.52,100.57,171.72,19.32,250.05-59.86,57.71-153.47,95.57-151,195.11,2,78.73,78.24,147.07,131,195.51C667.07,566.43,734.63,617.66,796,675.89c57.93,55,119,118.63,115.65,203.73-3.54,90.88-37.73,182.31-66.58,267.57-62.82,185.68-134.56,357.89-134.56,556.1v475.55" transform="translate(1205.77 1115.65)" style="fill:none;stroke:#0f0f0f;stroke-miterlimit:10;stroke-width:3.123080248673974px"/><path d="M859.42-849.18C813.13-638.4,563.6-566.93,474.35-381.86c-68.6,142.23,76.77,188.59,173.57,245.52C746.06-78.61,770.32,31.6,677.1,108.47c-68.7,56.65-172.92,86-171.87,193.65.71,72.93,65.52,133.1,115.63,178.82C696.13,549.62,781,607.38,854.08,678.49c47.16,45.86,94.87,99.59,96,168.84,1.59,101-39.47,205.89-70.14,300.57-61.85,190.93-127,367.49-127,570.06v460.88" transform="translate(1205.77 1115.65)" style="fill:none;stroke:#0f0f0f;stroke-miterlimit:10;stroke-width:3.123080248673974px"/><path d="M905.41-840.36C861-625.48,597.45-560.52,506.46-373.53,433.6-223.8,593-187,694.7-137.54c104.76,51,130.38,167.4,30.89,241-73.28,54.2-188.19,78.44-186.44,191.09C540.3,368.1,604.84,427,656.08,472.33,732.54,540,818.69,596.11,893,666.28c48,45.31,95.85,98.43,96.62,168,1.12,102.24-39.37,208.42-69.2,304.79-59.85,193.39-125,374.7-125,578.92v460.88" transform="translate(1205.77 1115.65)" style="fill:none;stroke:#0f0f0f;stroke-miterlimit:10;stroke-width:3.123080248673974px"/><path d="M949.11-837.24C910.3-618.86,633.53-559.34,543.9-370.62c-74.4,156.67,90.24,186,196.24,231.69C847.48-92.64,873.55,31.17,771.85,102c-76.67,53.37-197.1,72.81-193.66,189.92,2.2,74.71,64.56,132.15,117.28,177.9,77.18,67,164.33,121.94,239.27,191.6,48.55,45.13,96.15,98.06,96.21,168,.09,102.56-39.81,208.74-69,305.78C903.64,1329.27,837.84,1513.52,837.84,1718v460.88" transform="translate(1205.77 1115.65)" style="fill:none;stroke:#0f0f0f;stroke-miterlimit:10;stroke-width:3.123080248673974px"/><path d="M990.32-840.36c-42.9,215.85-310,279.4-400.67,466.88-72.65,150.28,88,187,190,236.7,104.51,51,131.17,167.64,30.95,241.08-73.33,53.75-189,77.31-186.28,190.29,1.73,73.16,66,132.55,117,177.87,75.16,66.88,159.9,122.5,232.9,191.89,47.6,45.25,95.88,99.11,97.16,168.34,1.9,101.86-39.38,208.62-69.17,304.53-59.64,192.06-125.85,373.83-126,576.93-.11,154.94,7.09,309.74,4.17,464.69" transform="translate(1205.77 1115.65)" style="fill:none;stroke:#0f0f0f;stroke-miterlimit:10;stroke-width:3.123080248673974px"/><path d="M1029.26-849.18C984.92-636.24,728-567.88,638.63-381.72c-69,143.7,80.79,190.55,178.23,247.82,97.76,57.46,125.5,168.37,30.19,245.05C778,166.7,673,194,675.37,302.2c1.55,71.78,64.72,132.33,113.87,178,72,66.84,153.25,123.17,223.1,192.34,46.15,45.69,93.49,100.38,95.34,168.65,2.71,100.14-39.42,205.55-70,299.22-61.42,188-129.69,365.41-128,565.61,1.37,157.79,17.4,314.93,13.06,472.83" transform="translate(1205.77 1115.65)" style="fill:none;stroke:#0f0f0f;stroke-miterlimit:10;stroke-width:3.123080248673974px"/><path d="M1066.24-862.87C1021.77-647,761.22-576.31,682.8-380.36c-52.85,132.05,92.82,190.17,175.33,254,86.06,66.62,106.35,172.22,21.7,250.21C819,179.93,725.89,213.51,728.62,313.72c2.06,75.65,75,144.83,124.94,192.41,57.19,54.48,119.56,103.34,175.86,158.78,55.41,54.57,113.3,119,110.73,201.5-2.78,89.71-37.47,180.64-66.32,264.56-62.4,181.5-137.65,353.43-134.82,548.34,2.43,167,30.75,332.24,26.21,499.53" transform="translate(1205.77 1115.65)" style="fill:none;stroke:#0f0f0f;stroke-miterlimit:10;stroke-width:3.123080248673974px"/><path d="M1101.59-880.65C1059.75-668.37,811.2-591,737.23-397,689.14-271,816.59-196.92,891.21-121.6c73.36,74.05,96,176.6,22,259.44-53,59.36-128.25,98.12-125.46,191.22C792,471.86,979.58,588,1067.18,681.21c52.35,55.72,105.91,121.06,103.06,201.7-3,86.57-38.15,173.58-68.06,253.71-65,174.08-144,337.91-137.35,527.47,6,172.48,46.14,341.65,42.85,514.75" transform="translate(1205.77 1115.65)" style="fill:none;stroke:#0f0f0f;stroke-miterlimit:10;stroke-width:3.123080248673974px"/><path d="M1135.63-901.67c-37.18,206.4-268.11,292-340.1,479.81C749.16-300.92,853.7-209.38,918.61-122.09c62.4,83.93,88.51,186,25.44,278C900.68,219.18,849,262.66,851.6,347.5c4.52,146.59,177.93,261.72,263.09,365.09,44.19,53.63,82.7,111.73,83,183,.35,80-35.07,162.77-64.77,235.57C1063,1302.57,975.82,1461.26,988.2,1651.56c11.52,177.09,62.91,349,61.94,527.28" transform="translate(1205.77 1115.65)" style="fill:none;stroke:#0f0f0f;stroke-miterlimit:10;stroke-width:3.123080248673974px"/><path d="M1168.71-925.15C1136.35-722.58,918.49-629.8,853.2-443.92,811.78-326,898.76-216,950.18-117.31c48.21,92.51,68.89,192.94,25.57,291.75-28.59,65.22-62.94,117.9-60.1,193.32,5.46,145.11,155.18,257.76,234.89,366.38,40.11,54.65,74.16,113.66,73.28,182.94-1,76.56-35.84,153.41-67,221.89-73.76,162.14-164.67,308.72-147.53,493,17.12,184.15,81,360.9,83.31,546.83" transform="translate(1205.77 1115.65)" style="fill:none;stroke:#0f0f0f;stroke-miterlimit:10;stroke-width:3.123080248673974px"/><path d="M1201.12-950.25C1174.59-753.51,974.66-653.08,913.5-472.51,874-355.81,941.09-228.06,978.58-119.6c36,104.21,48.52,206.82,28,315.78-12,63.7-29.95,127.21-26.24,193,8,142.09,130.4,251.15,202.91,364,34.62,53.89,67.25,114.19,66.49,180.19-.9,78.69-39.93,155.64-75.48,223.77-79,151.4-167.32,282-144.53,459.55,24.34,189.62,99.18,369.86,105.35,562.16" transform="translate(1205.77 1115.65)" style="fill:none;stroke:#0f0f0f;stroke-miterlimit:10;stroke-width:3.123080248673974px"/><path d="M1233.22-976.17C1212.46-785,1030.28-677.76,974-501.78,934.44-378.3,987.8-229.62,1011.67-107.4c33.14,169.7,26.63,346.78,35.66,519.18C1054.56,550,1152.49,657.12,1217,773c81.14,145.6,57.16,262.43-26.32,400.42-79,130.62-167.15,244.72-144.7,405.16,28.47,203.55,120.72,393.74,131.49,600.31" transform="translate(1205.77 1115.65)" style="fill:none;stroke:#0f0f0f;stroke-miterlimit:10;stroke-width:3.123080248673974px"/><path d="M1265.3-1002.1C1250-816.44,1085.36-702.75,1034.1-531c-39.84,133.49-1.3,300.68,8.94,437.34,8,106.77-7.33,223.47,24.84,326.79,21.69,69.65,40.77,126.17,45.93,200.74,9.74,140.94,89.25,248.92,144.78,374.7,59.92,135.73,41.71,242.77-41,363.53-86.64,126.52-180.41,226.74-152,390.33,36.38,209.19,139.1,403.09,154.34,616.39" transform="translate(1205.77 1115.65)" style="fill:none;stroke:#0f0f0f;stroke-miterlimit:10;stroke-width:3.123080248673974px"/><path d="M1297.72-1027.22c-10.78,182.07-161.49,302.12-205.55,472.59-19,73.34-12.7,155.73-14.52,231.09-1.91,78.56-2.93,157.13-4.5,235.7C1071,21.71,1044.3,151.89,1098.5,252.94c38.38,71.54,74.87,116.57,81.3,202.63,10.29,137.73,69,247.63,114,376.09,46.47,132.76,34.54,237.3-53.79,347.75-93.15,116.47-186.79,200.86-154.89,362,42.92,216.77,157.53,415.64,177.32,637.41" transform="translate(1205.77 1115.65)" style="fill:none;stroke:#0f0f0f;stroke-miterlimit:10;stroke-width:3.123080248673974px"/><path d="M1330.78-1050.71c-6.8,177-140.89,302.46-180.33,469.24-17.72,74.94-14,159-21,235.65-7.69,84.39-16.35,168.68-24.49,253-11.27,116.76-51.61,264.67,26.11,366.25,53.17,69.49,105.42,108,112.11,202.65,9.36,132.6,50.95,245.6,84.93,373.14,33.74,126.64,32.39,231.2-58.66,331.31-43.84,48.21-97.51,88.7-134.74,142.8-44.78,65.06-44.37,129.26-27.35,204.3,50.24,221.35,174,423.56,197.55,651.19" transform="translate(1205.77 1115.65)" style="fill:none;stroke:#0f0f0f;stroke-miterlimit:10;stroke-width:3.123080248673974px"/><path d="M1364.81-1071.78c-4,178.4-133.3,312.48-160.77,484.13-25.82,161.31-39.07,326.12-64.8,488.21-19.08,120.25-72.76,281.8,18.85,383.79,63.18,70.34,139.84,103.42,148.37,209.68,5,62.42,3.47,122.56,15.84,184.91s29.59,123.37,41.46,185.69c24.36,127.86,27.82,236.24-74.16,328.15-45,40.56-98.91,73.66-135.71,122.64-47.34,63-40.61,126.73-21.92,200.54,57,225,188.93,430.22,215.38,662.88" transform="translate(1205.77 1115.65)" style="fill:none;stroke:#0f0f0f;stroke-miterlimit:10;stroke-width:3.123080248673974px"/><path d="M1400.14-1089.59c-2.52,175.61-118.4,315-141.93,485.2-10.36,74.92-12.54,149.53-26.15,224.45-17.28,95.06-38.79,189.29-58.36,283.87-25.68,124.14-89.26,293,17,394.38,71.18,67.91,165.61,98.22,174.88,211.1,5.05,61.48.14,123.26,8.06,185.26,8,62.27,19.67,124,27.27,186.33,15.13,124.1,24.49,235.64-83,317.46-45.81,34.87-100.71,61.07-138.43,105.64-50.43,59.59-40.69,125.13-21.56,196.77,61.53,230.28,203.3,439.08,231.88,678" transform="translate(1205.77 1115.65)" style="fill:none;stroke:#0f0f0f;stroke-miterlimit:10;stroke-width:3.123080248673974px"/><path d="M1437.1-1103.35C1434.76-931.64,1333.33-789,1310.68-622,1299.36-538.57,1296-458.23,1278-375c-21.22,98.53-47.69,195.85-71.25,293.83-30.23,125.74-97.86,294.45,20.75,392,78.2,64.32,183.27,94,192.1,210.73,9.58,126.84,12.29,256.38,19.95,383.81,7.41,123.37,18,229-95.89,301.5-45.75,29.13-101.78,49.6-138.3,91.46-51,58.42-36,127.75-16.33,196.75,66,231.6,214.46,442.19,243.21,683.8" transform="translate(1205.77 1115.65)" style="fill:none;stroke:#0f0f0f;stroke-miterlimit:10;stroke-width:3.123080248673974px"/><path d="M1476-1112.23c-4,169.78-94.68,316-116.31,481.91-11,84.46-14.48,164.26-34.19,248.16-24,102.08-54.55,202.48-81.46,303.8-33.61,126.51-105.54,300.22,19.93,396,82.65,63.13,197.83,90.35,206.78,211.51,9.33,126.27,4.3,257.47,7,384.37,2.62,121,20,231-98.64,296.51-46.13,25.48-103,41.19-140,80.83-52.33,56-36.06,128.83-16.59,195.95,67.92,234.26,224.69,446.86,252.16,692" transform="translate(1205.77 1115.65)" style="fill:none;stroke:#0f0f0f;stroke-miterlimit:10;stroke-width:3.123080248673974px"/><path d="M1517.19-1115.42C1509.7-947.2,1428-798.28,1405.5-633.25c-11.46,84-13.62,163.37-34,246.82-25.46,104.44-59,206.75-88,310.21-35,124.75-108.21,302.94,19.13,396.3,86.08,63.1,205.53,87,214.22,211.87,8.83,126.85.35,257.44.37,384.64,0,119.43,24.8,234.33-98,295.6-46.38,23.15-103.87,35.46-141.09,74.09-52.54,54.54-36.38,131-17.38,196.7,68,235.29,232.55,449,256.39,695.86" transform="translate(1205.77 1115.65)" style="fill:none;stroke:#0f0f0f;stroke-miterlimit:10;stroke-width:3.123080248673974px"/><path d="M1559.65-1115.42c-4.7,170.82-93.51,320.32-115.49,487.61-11,83.83-15,163.27-34.44,246.52-24,102.5-54.43,203.38-81.28,305.13-33.72,127.76-104.91,298.57,19.89,395.9,82.22,64.13,197.86,94,207.54,214.51,10.07,125.28,2.72,256.08,4.3,382,1.51,120.49,23,233.6-98.61,296.34-46.79,24.14-105,37.77-142.56,77.12-52.09,54.63-36.45,131-17.45,196.84,67.71,234.51,236.44,445.68,258.1,692.31" transform="translate(1205.77 1115.65)" style="fill:none;stroke:#0f0f0f;stroke-miterlimit:10;stroke-width:3.123080248673974px"/><path d="M1602.11-1115.42c-3.33,175.78-101,328-124,499.78-11.09,82.8-15.41,162.72-32.91,245.2-21.14,99.55-47.21,198-70.54,297-30.48,129.38-96,292,21.1,393.91,77.21,67.19,184,103.64,193.86,219.79,10.52,123.6,7.48,252.38,11.94,376.73,2.09,58.14,11.61,129.67-.79,187-12.13,56.06-49.61,84.8-97.81,110.91-47.56,25.76-106.81,41.39-144.91,82.06-51.81,55.28-37.15,130.82-17.66,197.27,68.16,232.41,241.2,439.41,261.77,684.6" transform="translate(1205.77 1115.65)" style="fill:none;stroke:#0f0f0f;stroke-miterlimit:10;stroke-width:3.123080248673974px"/><path d="M1644.57-1115.42c-3.44,182.77-111.19,339.43-136.66,517.71C1482.53-420,1456.42-245.16,1421.8-68.36c-25.42,129.8-82.23,283.74,22.69,390.53,70.57,71.83,164.82,115.61,174.24,227.35,10.29,122.1,14.19,246.62,22.71,369.25,4,57.31,14,128.41,1.77,185.17-12.33,57.09-51.39,87.22-99.77,115-48.6,27.92-109.08,46.07-148,88.55-51.66,56.38-38.43,130.46-18,198,69.28,229.15,246.77,430.55,267.13,673.33" transform="translate(1205.77 1115.65)" style="fill:none;stroke:#0f0f0f;stroke-miterlimit:10;stroke-width:3.123080248673974px"/><path d="M1687-1115.42C1682.1-924,1563.59-761.31,1534.39-575c-26.57,169.57-40,343.17-64.55,513.63-18.61,129.19-64.46,274.46,24.59,386,61.81,77.4,141.2,129.58,149.66,236.77,9.54,120.89,22.45,239.27,36.09,359.94,6.36,56.23,17.43,126.57,5.43,182.69-12.49,58.47-53.64,90.59-102.3,120.36-49.9,30.52-111.78,51.62-151.71,96.35-51.59,57.78-40.21,130-18.47,199,71,225,253,419.53,273.9,659.11" transform="translate(1205.77 1115.65)" style="fill:none;stroke:#0f0f0f;stroke-miterlimit:10;stroke-width:3.123080248673974px"/><path d="M1729.49-1115.42c-7.65,201.47-137.33,371.35-171.33,567-28,160.86-26.69,332.67-39.6,495.62-10.11,127.62-43.68,265,26.74,380.54,50.66,83.1,113.92,145.1,121.12,247.72,8.41,119.9,31.89,230.88,51.56,349.13,9.15,55,21.64,124.17,10,179.69-12.63,60.14-56.3,94.75-105.33,126.71-51.36,33.48-114.79,57.87-155.91,105.19-51.59,59.38-42.42,129.69-19,200.14,73.08,220,259.9,406.71,281.79,642.51" transform="translate(1205.77 1115.65)" style="fill:none;stroke:#0f0f0f;stroke-miterlimit:10;stroke-width:3.123080248673974px"/><path d="M1772-1115.42c-11.4,212.52-152.41,390.52-192,596.48-29.38,152.67-12.1,321-12.11,475.87,0,125.26-21,256.06,29.07,374.39,37.32,88.19,83.74,161.22,89.6,259.8,7.07,119.1,42.2,222,68.6,337.22,12.29,53.62,26.47,121.25,15.19,176.29-12.62,61.55-59.12,100.17-108.71,133.81-53.12,36-118.25,64.86-160.49,114.82-51.61,61-45,129.48-19.64,201.44,75.53,214.48,267.17,392.54,290.53,624.14" transform="translate(1205.77 1115.65)" style="fill:none;stroke:#0f0f0f;stroke-miterlimit:10;stroke-width:3.123080248673974px"/><path d="M1814.41-1115.42c-15.93,224.22-168.25,411-214.12,627.87-31,146.51,3.1,307.85,17.09,455,11.62,122.26,1.52,248.07,31.53,367.77,23.1,92.13,51.49,176.7,56.08,272.64,5.67,118.45,53.16,213.27,86.69,324.55,15.73,52.19,31.74,117.86,20.85,172.63-12.61,63.39-62.22,105.66-112.33,141.43-123.63,88.26-250.45,154.87-185.63,327.81,78.2,208.59,274.74,377.38,299.84,604.57" transform="translate(1205.77 1115.65)" style="fill:none;stroke:#0f0f0f;stroke-miterlimit:10;stroke-width:3.123080248673974px"/><path d="M1856.87-1115.42C1835.92-879.17,1672.45-683.31,1620-455.18c-33,143.61,18,293.19,47.14,433.52,25.07,120.54,22.71,239.2,34,360.91,8.91,95.65,18,189.8,21.57,285.86,4.31,118,64.55,204.93,105.3,311.53,19.38,50.67,37.25,114.07,26.72,168.83-12.58,65.45-65.47,111.15-116.06,149.29-121,91.24-260.51,166.5-191.27,339.67,81,202.54,282.44,361.68,309.43,584.41" transform="translate(1205.77 1115.65)" style="fill:none;stroke:#0f0f0f;stroke-miterlimit:10;stroke-width:3.123080248673974px"/><path d="M1899.32-1115.42c-26.16,248.24-200.51,453.27-259.64,692.62-35.65,144.34,31.52,277.88,77.2,412.05,73.43,215.64,17.68,431.46,23.61,653.14,3.14,117.76,76.23,197.19,123.93,298.48,63,133.85,25.36,233.09-87.2,322.2-118.35,93.7-270.7,178.45-196.91,351.54,83.78,196.5,290.12,345.82,319,564.23" transform="translate(1205.77 1115.65)" style="fill:none;stroke:#0f0f0f;stroke-miterlimit:10;stroke-width:3.123080248673974px"/><path d="M1941.78-1115.42C1910.55-855.55,1725.65-641.57,1660-391.36,1621.21-243.3,1703.45-127.85,1766.47-.23c58.72,118.91,61.38,218.79,39,347.43C1787.76,449.4,1757,554.7,1759,659.14,1761.17,777,1846.91,849.3,1901,945c75,132.62,25,235.06-85.17,326.15-115.72,95.67-280.71,190.41-202.4,363.1,86.47,190.7,297.67,330.25,328.33,544.64" transform="translate(1205.77 1115.65)" style="fill:none;stroke:#0f0f0f;stroke-miterlimit:10;stroke-width:3.123080248673974px"/><path d="M1984.24-1115.42c-35.84,270.78-230.87,493.19-302.52,753.62-42.3,153.71,53.92,251.44,134,371.33,33.21,49.73,66.09,105.31,70.53,166.4,4.15,57.17-13.78,120.14-29.15,174.86-29.35,104.51-79.56,213.64-78.16,324.05,1.52,118.43,99.35,183.81,159.15,273.86,86.66,130.51,24.41,237.42-83.33,329.87-113.24,97.18-290.22,202-207.62,374.06,88.95,185.31,304.93,315.38,337.1,526.21" transform="translate(1205.77 1115.65)" style="fill:none;stroke:#0f0f0f;stroke-miterlimit:10;stroke-width:3.123080248673974px"/><path d="M2026.7-1115.42c-39.62,280.66-244.33,510.7-321.3,780.31-45.76,160.3,63.55,242.2,159.06,353.25,38.32,44.55,77.57,96.43,82.82,157.12,5,58.49-19.19,124.5-39.28,178.65C1868.67,460,1800.13,572.63,1801.18,689c1.07,119.43,110,178.13,174.68,263,97.39,127.79,23.49,240-81.79,333.23-111,98.33-298.87,212.74-212.4,384.1,91.11,180.55,311.77,301.63,345,509.54" transform="translate(1205.77 1115.65)" style="fill:none;stroke:#0f0f0f;stroke-miterlimit:10;stroke-width:3.123080248673974px"/><path d="M2069.16-1115.42c-42.22,289.16-256.12,525.73-337.39,803.2-48.94,167.09,72.38,235.51,180.77,337.43,42.66,40.12,87.12,88.24,93,149.39,5.81,60-23.74,128.11-47.6,181.81C1910.4,463.5,1825.52,579.15,1826.41,701c.89,120.93,119.32,173.11,188.15,253.63,106.7,124.79,22.25,242.54-80.65,336.13-109.07,99.19-306.29,222.25-216.59,392.91,92.85,176.64,318,289.45,351.84,495.22" transform="translate(1205.77 1115.65)" style="fill:none;stroke:#0f0f0f;stroke-miterlimit:10;stroke-width:3.123080248673974px"/><path d="M2111.62-1115.42c-43.24,295.93-265.84,537.67-350.14,821.33C1737-211.8,1739.54-156.15,1800.07-93c46.7,48.72,107.1,81.77,159.69,123.36C2006.15,67,2054.13,111.62,2060.48,174c6.28,61.65-26.81,130.55-53.67,184.16-54.12,108-152.36,225.45-151.39,352.17.94,123,126.64,168.77,199,246.07,114.12,121.88,20.62,245-80,338.43-107.59,99.91-312.16,230-220.06,400.21,94.06,173.77,323.65,279.25,357.26,483.83" transform="translate(1205.77 1115.65)" style="fill:none;stroke:#0f0f0f;stroke-miterlimit:10;stroke-width:3.123080248673974px"/><path d="M2154.08-1115.42c-42.25,300.6-273.14,545.94-358.85,833.73C1770.89-200,1771.56-142.4,1835.4-82c50,47.3,114.47,76.25,170.57,115.16,49.75,34.51,98.92,76.05,105.32,140.17,6.34,63.53-27.75,131.46-57,185.55-59,109-166.64,226.51-165.31,357.55,1.27,125.63,131.29,165.14,206.79,240.73,119.23,119.38,18.52,247.13-80,340-106.65,100.56-316.14,235.6-222.65,405.66,94.65,172.17,328.38,271.49,361,476" transform="translate(1205.77 1115.65)" style="fill:none;stroke:#0f0f0f;stroke-miterlimit:10;stroke-width:3.123080248673974px"/><path d="M2196.54-1115.42c-19.32,151-103.47,293.14-171.59,426.64-67.61,132.52-149,269.17-191.29,412.81-23.61,80.24-25,140.92,39.75,199.43C1925.2-29.75,1992.71-3.87,2051,33.32,2343.64,220,1924.18,490.75,1927.73,718.91c2,129,132.54,162.21,210.93,238,121.7,117.6,15.85,248.88-80.67,340.78-106.32,101.24-317.87,238.49-224.22,409,94.53,172.08,332.12,266.61,362.77,472.23" transform="translate(1205.77 1115.65)" style="fill:none;stroke:#0f0f0f;stroke-miterlimit:10;stroke-width:3.123080248673974px"/><path d="M2234-1110.7C2189.38-811.61,1963.77-567.56,1877.7-281c-24.43,81.33-28,142.14,38,201.74,52,47,119.74,73,178.24,110.38C2388,218.94,1965.14,488.3,1969.14,717.05c2.25,128.89,133.8,163.85,212.18,240.11,121.2,117.95,16,248.43-80.92,340.45-106.48,101.09-318.46,238.22-224.74,408.9,94.5,172.13,333.23,266.48,363.34,472.33" transform="translate(1205.77 1115.65)" style="fill:none;stroke:#0f0f0f;stroke-miterlimit:10;stroke-width:3.123080248673974px"/><path d="M2261.83-1096.89c-46.9,293.37-262.28,531.49-343.35,814.29-21.17,73.82-25.72,132.94,31.57,189.16,50.55,49.6,120.59,76.78,180.08,113.35C2441,211,2001.75,477.45,2008.5,712.12c3.58,124.2,128.49,165.39,207.43,237.5,125.57,114.74,35.09,244-64.95,339.89-105.71,101.3-327.24,239.81-236.63,412.11,92.75,176.34,336.54,268.59,367.11,477.22" transform="translate(1205.77 1115.65)" style="fill:none;stroke:#0f0f0f;stroke-miterlimit:10;stroke-width:3.123080248673974px"/><path d="M2281.39-1075.29c-44.95,280.94-245,510.06-321,781.34-20.72,73.93-24.91,132.59,32.26,188.76,50.9,50,121.34,77.64,181.21,114.64C2488.16,203.77,2040,467.39,2046.81,704c3.59,125.2,131.43,170.13,210.66,243.86,125.41,116.71,37.56,244.23-64.63,341.54C2086.85,1390.3,1864,1528.68,1955,1701.2c93.16,176.5,338.27,268.62,368.89,477.64" transform="translate(1205.77 1115.65)" style="fill:none;stroke:#0f0f0f;stroke-miterlimit:10;stroke-width:3.123080248673974px"/><path d="M2294.08-1047.19c-39.51,258.26-212.15,474.09-287.83,721.25-24.65,80.51-32.72,148.86,33.67,209.88,53.92,49.55,124.42,77.5,185.5,116.61C2529.37,195.12,2080.15,461.41,2084.25,693c2.27,127.67,137.17,178.27,216.78,254.88,118.85,114.36,42.81,236.34-57.92,333.14-105,100.94-337.7,241.67-250.4,414.94,91.25,181.09,342.08,270.84,373.67,482.87" transform="translate(1205.77 1115.65)" style="fill:none;stroke:#0f0f0f;stroke-miterlimit:10;stroke-width:3.123080248673974px"/><path d="M2301.24-1013.88c-33.74,242.9-192.43,445.5-257,679.29-22,79.6-22.13,147.42,43.42,205,56.23,49.39,127.94,77.83,189.79,119,297.35,197.86-163.76,461.39-157.51,691.4,3.58,131.88,144.94,184.59,225,266.53,119.94,122.76,35.84,242.35-69.27,341.65-102,96.37-326.56,233.47-245.61,401.58,89.51,185.88,346,273.1,378.78,488.29" transform="translate(1205.77 1115.65)" style="fill:none;stroke:#0f0f0f;stroke-miterlimit:10;stroke-width:3.123080248673974px"/><path d="M2304.25-976.65c-26.67,225.29-169.84,413.27-222.07,631.38-19.44,81.15-13.14,144,53.63,200.19,53.82,45.26,119.94,73.18,178.35,111.64,313.19,206.26-161.91,460.11-158.38,699.9,1.91,129.55,141,189.86,221.35,269.11,44.17,43.57,81.4,97.53,73,162.79-10.38,80.81-85.94,147.43-141.92,198.65-100.49,92-315.66,224.83-241.08,387.94,87.38,191.1,350,275.36,384.15,493.89" transform="translate(1205.77 1115.65)" style="fill:none;stroke:#0f0f0f;stroke-miterlimit:10;stroke-width:3.123080248673974px"/><path d="M2304.48-936.79C2285.55-731,2159.81-558,2120.34-357.61c-34,172.31,107.87,221.41,230.8,299.63,334.87,213.1-167,461.89-161.09,709.67,3.15,132.37,148.52,200.17,230.11,282.77,41,41.47,77,92.1,73.41,153.41-4.86,82-78.89,148.93-135,200.55-110.7,101.85-335.74,234.3-243.62,410.33,94,179.69,344.76,268.1,378.81,480.09" transform="translate(1205.77 1115.65)" style="fill:none;stroke:#0f0f0f;stroke-miterlimit:10;stroke-width:3.123080248673974px"/><path d="M2303.3-895.61c-11.19,185.09-117.6,343.12-144.36,524.39C2133.79-200.84,2284.63-151.51,2404-72.77c324,213.67-181.14,465.61-178.66,708.77,1.39,136.42,155.32,210.73,238.47,297.31,42.35,44.09,77.16,97.46,70.53,160.82-8,75.88-72.39,136.47-125.34,185.55-108.74,100.83-345.77,236.86-257.51,413.39,92.36,184.72,349.1,270.44,384.69,485.77" transform="translate(1205.77 1115.65)" style="fill:none;stroke:#0f0f0f;stroke-miterlimit:10;stroke-width:3.123080248673974px"/><path d="M2302.08-854.39c-4.1,163.82-89,307.47-103.93,468.8-15.77,170.29,140.6,217.2,259,298.37,316,216.72-200.69,467.11-198,707.8,1.52,133.71,152.63,214.86,235.53,298.85,46.79,47.41,93.19,110.18,82.39,181.11-11.7,76.86-82.3,138.08-136.4,187.32-106.5,97-334.11,227.67-252.51,399.42,90.29,190,353.34,272.75,390.53,491.56" transform="translate(1205.77 1115.65)" style="fill:none;stroke:#0f0f0f;stroke-miterlimit:10;stroke-width:3.123080248673974px"/><path d="M2302.19-814.41c1.71,137.21-54.07,261.79-62.94,397.16-11.45,175,129.5,220.74,254.06,305.3C2828.07,115.32,2293.6,352.9,2295,605.48c.78,143.85,171.78,232.18,256.29,327,38,42.61,74.06,97.34,69.52,157.24-6.51,85.87-88.46,153.76-148.31,206.45-109.9,96.74-338,232.73-237.8,405.34,101.87,175.5,349.61,266,386.47,477.31" transform="translate(1205.77 1115.65)" style="fill:none;stroke:#0f0f0f;stroke-miterlimit:10;stroke-width:3.123080248673974px"/><path d="M2305-777c5.74,117.72-26,229.89-26.14,346.87-.06,73.51,13.52,128.09,70.92,177.66,54.12,46.73,120.32,77.61,179.78,116.58,355.25,232.79-200.32,468.33-200.34,727.24,0,141,168.88,235.82,252.92,326.92,44.72,48.49,87.56,108.71,79.17,177.91-9.59,79.17-81.53,141.34-137.71,191.12-108.81,96.42-349.41,234.32-252.37,408.47,100.3,180,354.1,268.8,392.38,483.06" transform="translate(1205.77 1115.65)" style="fill:none;stroke:#0f0f0f;stroke-miterlimit:10;stroke-width:3.123080248673974px"/><path d="M2311.85-743.4c7.6,95.64,1.87,190.74,6.66,286.34,4,80.55,14.68,137.35,80.26,191.74,56.3,46.69,123.67,78.11,184,119,343.32,232.68-216.7,470.8-216.3,725.11.22,145.17,174.14,243.52,259.6,340.18,43.78,49.52,90.1,113.44,77.87,183.92-12.42,71.53-77.84,129.74-128.89,175.44-107.4,96.15-360.05,236.45-266.95,411.67,98.51,185.39,358.28,271.16,398,488.86" transform="translate(1205.77 1115.65)" style="fill:none;stroke:#0f0f0f;stroke-miterlimit:10;stroke-width:3.123080248673974px"/><path d="M2324.16-714.94c8.24,83.38,25.61,164.87,35.29,248,8.64,74.19,14.8,124.78,73,177.9,60.26,55,137.06,88.47,203.42,135.14C2967,79,2402.75,318.07,2402.2,567.94c-.33,147.71,183.17,253.74,269,352.45,40.15,46.19,82.72,106.55,76.78,171.36-7.44,81.07-85.4,145.61-141.62,195.16-104.3,91.91-346.37,227.56-261,397.23,96.08,190.84,362.16,273.63,403.14,494.7" transform="translate(1205.77 1115.65)" style="fill:none;stroke:#0f0f0f;stroke-miterlimit:10;stroke-width:3.123080248673974px"/><path d="M2343.27-692.9c8,78.54,44.62,139.12,57.87,214.57,13,74.25,14.33,122.85,73.9,177.34,60.63,55.46,137.84,89.37,204.59,136.49C3013.79,71.38,2441,308,2440.43,559.62c-.32,149,186,258.88,272.34,359.11,40.23,46.7,83.65,107.68,77.63,173-7.47,81.18-85.83,145.61-142.23,195-104.52,91.54-348,227-262.18,397,96.5,191.07,363.89,273.62,405,495.12" transform="translate(1205.77 1115.65)" style="fill:none;stroke:#0f0f0f;stroke-miterlimit:10;stroke-width:3.123080248673974px"/><path d="M2370.55-678.58c4.2,50.46,10.14,82,38.13,121.83,16.68,23.74,28.88,40,35.28,69.78,16.08,74.91,12.08,121.84,73.56,178.15C2578.45-253,2656-218.75,2723-171.29c336.28,238-242.64,472.66-242.89,725.51-.16,149.88,188,262.4,274.69,363.72,40.24,47,84.1,108.18,78.05,173.82-7.49,81.31-86,145.58-142.6,194.93-104.72,91.29-349.14,226.6-263.11,396.73,96.72,191.25,365.33,273.56,406.26,495.42" transform="translate(1205.77 1115.65)" style="fill:none;stroke:#0f0f0f;stroke-miterlimit:10;stroke-width:3.123080248673974px"/><path d="M2407.38-673.27c2.43,54.74,5.21,82,41.33,118.59,21.74,22,33.22,32.47,39.94,65.49,13.64,67,7.45,116.84,60.91,168.75,60,58.23,139.16,93.29,207.09,140.71,350.74,244.88-230.87,469.76-234,731.88-1.74,144.59,178.09,257.32,263.7,353.44,47,52.73,97.24,118.21,86.9,192.89-11.47,82.88-90.9,146.44-150.74,197.13-102.19,86.55-333.93,217.8-256.21,382.26,93,196.83,368.17,275.94,409.61,501" transform="translate(1205.77 1115.65)" style="fill:none;stroke:#0f0f0f;stroke-miterlimit:10;stroke-width:3.123080248673974px"/></g></g></g></svg>