<svg id="Layer_1" data-name="Layer 1" xmlns="http://www.w3.org/2000/svg" xmlns:xlink="http://www.w3.org/1999/xlink"
    viewBox="0 0 1572.57 1080">
    <defs>
        <clipPath id="clip-path">
            <path
                d="M1539.39,24.29V1058.45h-244.7V429.28H1092.06L1294.69,51.74l14.71-27.45Zm-365.64,636.2L787.21,24.29H45V266.08H542.51v136H45v241.7H542.51V816.66H45v241.79H787.21V445.58L930.55,660.49Z"
                style="fill:#424242" />
        </clipPath>
    </defs>
    <g id="logo">
        <path
            d="M1539.39,24.29V1058.45h-244.7V429.28H1092.06L1294.69,51.74l14.71-27.45Zm-365.64,636.2L787.21,24.29H45V266.08H542.51v136H45v241.7H542.51V816.66H45v241.79H787.21V445.58L930.55,660.49Z"
            "fill:none;stroke:#fff;stroke-miterlimit:10;stroke-width:0.5138588059301954px" />
        <g style="clip-path:url(#clip-path)">
            <g id="line2">
                <path
                    d="M-140.1-266.71q-.14,216.57,0,433.14,0,93.14,0,186.27c0,59.1-4.51,120.23.23,179.12,3.74,46.38,35.08,88.13,61.31,124.84C-45.79,702.5-9.77,746,21.53,792.94c19.59,29.34,52.12,73.55,42.89,111.79-7.87,32.62-44.22,49.35-71.91,61.52C-42.42,981.6-82.51,992.13-113,1016c-30.82,24.11-27.09,55.08-27.09,90.53v223.6"
                    style="fill:none;stroke:#fff;stroke-miterlimit:10;stroke-width:1.5138588059301954px" />
                <path
                    d="M-119.52-266.71c-2,144.37,1.94,288.79.06,433.21-.8,62.06-.06,124.14-.06,186.2,0,59.18-4.29,120.19.2,179.18,3.55,46.65,34.73,88.06,61.37,124.74,33,45.45,69.38,88.46,100.86,135C62.7,820.89,95.12,865.07,85.82,903.4,77.9,936,41.3,952.9,13.68,965.29c-35.2,15.79-75.54,26.83-106.3,51s-26.9,54.78-26.9,90.23v223.6"
                    style="fill:none;stroke:#fff;stroke-miterlimit:10;stroke-width:1.5138588059301954px" />
                <path
                    d="M-98.94-266.71C-101.8-122-93.25,22.35-98.1,167.23c-2.07,61.8-.84,123.65-.84,185.47,0,59.21-4.2,120.18.18,179.21,3.47,46.7,34.77,87.61,61.84,124C-3.55,700.71,33.3,743,65.12,789c20.09,29,52.53,72.87,43.22,111.25-8,32.82-45.13,50.17-72.79,62.95-35.61,16.47-76.36,28.26-107.51,53-30.74,24.42-27,54.68-27,90.36v223.6"
                    style="fill:none;stroke:#fff;stroke-miterlimit:10;stroke-width:1.5138588059301954px" />
                <path
                    d="M-78.36-266.71c-1.57,80.51,8.28,160.51,9,241,.58,65.08-2.79,129.39-6.79,194.3-3.77,61.32-2.21,122.76-2.21,184.16,0,59.21-4.23,120.19.17,179.22,3.47,46.57,35.15,86.84,62.67,122.62,33.87,44,71.27,85.37,103.56,130.61,20.5,28.73,53.06,71.89,43.8,110.31-8,33.18-46,51.29-73.8,64.6-36.18,17.35-77.47,30.09-109.11,55.6-30.83,24.87-27.29,54.77-27.29,90.87v223.6"
                    style="fill:none;stroke:#fff;stroke-miterlimit:10;stroke-width:1.5138588059301954px" />
                <path
                    d="M-57.77-266.71c-1.18,82.5,12.76,164,14.64,246.34,1.47,64.27-4.37,126.87-10.56,190.7C-59.58,231-57.77,291.84-57.77,352.7c0,59.17-4.35,120.23.17,179.21C-54,578.21-21.8,617.72,6.19,652.7,40.66,695.76,78.68,736,111.55,780.36c21,28.32,53.77,70.58,44.59,109-8,33.68-47.14,52.78-75.11,66.74-36.85,18.39-78.79,32.26-111,58.71-31,25.45-27.79,55-27.79,91.69v223.6"
                    style="fill:none;stroke:#fff;stroke-miterlimit:10;stroke-width:1.5138588059301954px" />
                <path
                    d="M-37.19-266.71C-37.6-181.86-19.36-98.68-16-14.09c2.55,63.54-6.1,124-14.87,186.59-8.38,59.84-6.35,119.93-6.35,180.2,0,59.11-4.54,120.28.19,179.19,3.68,45.92,36.68,84.57,65.14,118.57,35.15,42,73.85,81,107.4,124.34,21.55,27.82,54.61,69,45.54,107.46-8.08,34.3-48.44,54.58-76.66,69.27-37.6,19.58-80.28,34.71-113.16,62.24-31.22,26.13-28.45,55.39-28.45,92.76v223.6"
                    style="fill:none;stroke:#fff;stroke-miterlimit:10;stroke-width:1.5138588059301954px" />
                <path
                    d="M-16.61-266.71C-16-179.22,6.72-94.23,11.9-7.15,15.64,55.85,4,113.58-7.69,175-18.91,233.84-16.61,293-16.61,352.7c0,59-4.79,120.35.21,179.15,3.87,45.47,37.76,83.18,66.68,116.07,35.88,40.8,75.31,78.53,109.6,120.73,22.16,27.27,55.55,67.19,46.62,105.7-8.11,35-49.89,56.62-78.39,72.1-38.42,20.86-81.9,37.35-115.5,66-31.47,26.9-29.22,55.89-29.22,94v223.6"
                    style="fill:none;stroke:#fff;stroke-miterlimit:10;stroke-width:1.5138588059301954px" />
                <path
                    d="M4-266.71C5.89-176.38,33.08-89.5,40.22.24c5,62.76-9.62,117.28-24.56,177.35C1.29,235.38,4,293.61,4,352.7c0,58.93-5.08,120.44.24,179.11,4.08,45,39,81.68,68.33,113.37,36.66,39.56,76.83,75.92,111.92,117,22.8,26.65,56.56,65.24,47.79,103.78C224.11,901.66,180.81,924.74,152,941c-39.29,22.23-83.61,40.12-118,70.09C2.31,1038.8,4,1067.59,4,1106.53v223.6"
                    style="fill:none;stroke:#fff;stroke-miterlimit:10;stroke-width:1.5138588059301954px" />
                <path
                    d="M24.55-266.71c3.33,93.28,35,182.07,44.23,274.56C75.05,70.73,57.56,121.56,39.1,180.32,21.34,236.86,24.55,294.14,24.55,352.7c0,58.81-5.39,120.55.27,179.06,4.3,44.47,40.26,80.13,70,110.58,37.46,38.3,78.38,73.25,114.29,113.07,23.46,26,57.62,63.21,49,101.81-8.16,36.52-53,61.12-82.15,78.24-40.16,23.61-85.36,42.95-120.49,74.21-32,28.47-31,57.12-31,96.86v223.6"
                    style="fill:none;stroke:#fff;stroke-miterlimit:10;stroke-width:1.5138588059301954px" />
                <path
                    d="M45.13-266.71C49.92-170.47,86-79.8,97.32,15.44c7.54,63.36-12.59,110.21-34.77,167.61C41.24,238.17,45.13,294.63,45.13,352.7c0,58.68-5.72,120.67.3,179C50,575.69,87,610.3,117.17,639.5c38.26,37,79.93,70.59,116.67,109.2,24.13,25.36,58.67,61.18,50.2,99.83-8.16,37.3-54.62,63.43-84.05,81.36-41,25-87.1,45.78-123,78.33-32.27,29.24-31.85,57.78-31.85,98.31v223.6"
                    style="fill:none;stroke:#fff;stroke-miterlimit:10;stroke-width:1.5138588059301954px" />
                <path
                    d="M65.71-266.71c6.19,99.15,46.54,191.6,59.92,289.52C134.39,87,111.89,129.72,85.89,185.68,61,239.21,65.71,295.08,65.71,352.7c0,58.55-6,120.79.33,179,4.75,43.54,42.84,77.1,73.39,105.1,39,35.79,81.43,68,119,105.42,24.26,24.18,60.48,59.66,51.37,97.93s-55.51,65.26-85.89,84.37C182,950.84,135.09,973,98.4,1006.84c-32.5,30-32.69,58.43-32.69,99.69v223.6"
                    style="fill:none;stroke:#fff;stroke-miterlimit:10;stroke-width:1.5138588059301954px" />
                <path
                    d="M86.3-266.71c7.43,101.9,51.87,196,67.15,296.43,9.91,65.13-14.65,104-44.43,158.4C80.68,239.92,86.3,295.52,86.3,352.7c0,58.43-6.31,120.91.34,178.94,5,43.17,44,75.72,74.91,102.61,39.78,34.62,82.87,65.51,121.17,101.83,24.77,23.48,61.58,57.87,52.45,96.17-9.3,39-56.84,67.26-87.61,87.18-42.7,27.63-90.39,51.15-127.81,86.16-32.71,30.61-33.45,59-33.45,100.94v223.6"
                    style="fill:none;stroke:#fff;stroke-miterlimit:10;stroke-width:1.5138588059301954px" />
                <path
                    d="M106.88-266.71C115.31-162.3,163.63-66.78,180.57,36c10.91,66.23-15.39,101.51-48.72,154.31-31.56,50-25,105.69-25,162.44,0,58.34-6.52,121,.36,178.91,5.09,42.91,45,74.52,76.25,100.42,40.47,33.54,84.19,63.22,123.19,98.52,25.25,22.85,62.55,56.27,53.4,94.63-9.47,39.71-58.05,69.05-89.15,89.69-43.43,28.81-91.84,53.55-130,89.66-32.89,31.16-34.1,59.52-34.1,102v223.6"
                    style="fill:none;stroke:#fff;stroke-miterlimit:10;stroke-width:1.5138588059301954px" />
                <path
                    d="M127.46-266.71c9,106.6,61,203.28,79.27,308,11.74,67.36-15.94,99.55-52.45,150.75-34.38,48.22-26.82,104.36-26.82,160.68,0,58.28-6.65,121.07.36,178.9,5.19,42.78,45.78,73.54,77.36,98.61,41.07,32.59,85.37,61.19,125,95.61,25.68,22.3,63.34,54.9,54.18,93.36-9.6,40.25-59.1,70.56-90.45,91.8-44.08,29.85-93.12,55.68-131.83,92.74-33,31.61-34.6,59.88-34.6,102.81v223.6"
                    style="fill:none;stroke:#fff;stroke-miterlimit:10;stroke-width:1.5138588059301954px" />
                <path
                    d="M148-266.71c9.19,108.39,64.53,205.89,83.67,312.18C244,113.88,215.38,143.54,176.2,193.3,139.54,239.87,148,296.82,148,352.7c0,58.28-6.67,121.09.36,178.91,5.2,42.8,46.21,72.85,78.17,97.29,41.56,31.81,86.36,59.46,126.48,93.16,26,21.88,63.91,53.88,54.72,92.45-9.67,40.64-59.93,71.72-91.43,93.41-44.61,30.73-94.18,57.46-133.41,95.32C149.85,1035.16,148,1063.3,148,1106.53v223.6"
                    style="fill:none;stroke:#fff;stroke-miterlimit:10;stroke-width:1.5138588059301954px" />
                <path
                    d="M168.62-266.71c8.72,109.67,67.15,207.62,86.65,315,6,32.85,6.84,62.89-11.1,92.06-12.56,20.41-31.3,35.52-46.65,53.63-38.31,45.18-28.9,103.27-28.9,158.7,0,58.34-6.56,121.05.34,179,5.12,43,46.26,72.48,78.61,96.56,41.94,31.2,87.16,58.09,127.64,91.27,26.36,21.6,64.22,53.25,55,92-9.71,40.85-60.51,72.44-92.05,94.43-45,31.38-95,58.82-134.6,97.26-33.09,32.1-35,60-35,103.4v223.6"
                    style="fill:none;stroke:#fff;stroke-miterlimit:10;stroke-width:1.5138588059301954px" />
                <path
                    d="M189.2-266.71c7.58,110.34,68.7,208.33,87.95,316.26,5.79,32.45,7,63.28-11.15,92-12.82,20.27-32.12,34.75-47.87,52.51-39.19,44.18-29,103.68-28.94,158.66,0,58.45-6.29,121,.32,179,4.93,43.34,45.88,72.51,78.66,96.49,42.16,30.84,87.67,57.2,128.34,90.09,26.58,21.49,64.25,53.1,55,92-9.69,40.85-60.81,72.67-92.25,94.76C314,936.79,263.87,964.67,224,1003.44c-33,32.11-34.78,59.75-34.78,103.09v223.6"
                    style="fill:none;stroke:#fff;stroke-miterlimit:10;stroke-width:1.5138588059301954px" />
                <path
                    d="M209.78-266.71c8.76,109.62,67,207.56,86.54,314.92,5.95,32.77,7.45,62.82-10.7,91.88-13,20.88-32.57,36.2-48.53,54.65-38.6,44.62-30,103.54-29.09,158.83,1,58.1-4.27,120.47,2.26,178.05,4.86,42.77,46.38,72.63,78.45,96.6,41.63,31.11,86.5,58,126.67,91,26.16,21.53,64.35,53.47,55,92-9.86,40.65-60.4,72.38-91.78,94.48-44.7,31.49-94.23,59.12-133.63,97.51-33,32.16-35.2,59.9-35.2,103.32v223.6"
                    style="fill:none;stroke:#fff;stroke-miterlimit:10;stroke-width:1.5138588059301954px" />
                <path
                    d="M230.37-266.71c9.19,108.31,64.37,205.78,83.48,312,6,33.32,7.38,62.77-10.74,92.38-13.38,21.87-33.27,38.44-49.56,58-38.16,45.77-31.18,103.55-28.67,159.73,2.58,57.73-.42,119.06,6.06,176.21,4.8,42.38,45.93,72.86,77.38,97.2,40.79,31.55,84.78,59,124.13,92.45,25.69,21.8,63.65,54.18,54.33,92.35-9.84,40.29-59.26,71.69-90.38,93.71-43.84,31-92.43,58.19-131,96-32.74,32.11-35,60-35,103.23v223.6"
                    style="fill:none;stroke:#fff;stroke-miterlimit:10;stroke-width:1.5138588059301954px" />
                <path
                    d="M251-266.71C260-160.21,311.77-63.58,330,41c12.63,72.59-20.07,103-62.09,155.66C230,244.11,235.32,300.46,240.11,358c2.39,28.67,5.94,57.23,8.37,85.89,2.46,29-.18,59,3.07,87.7,4.77,42.15,44.71,73.21,75.58,98.21,39.69,32.14,82.58,60.39,120.84,94.3,25.16,22.29,62.28,55.18,53.1,93.05-9.65,39.76-57.5,70.63-88.21,92.48-42.69,30.37-90.1,57-127.55,94.09-32.25,32-34.36,60-34.36,102.85v223.6"
                    style="fill:none;stroke:#fff;stroke-miterlimit:10;stroke-width:1.5138588059301954px" />
                <path
                    d="M271.53-266.71C279.92-162.42,328.06-67,344.92,35.66c5.73,34.88,6,63.69-12,94.82-14.34,24.78-35.23,44.79-52.48,67.44-37.6,49.37-34.24,104.26-26.45,163.3,3.7,28,9,55.79,12.72,83.79,3.89,28.89,2.17,57.86,5.42,86.56,4.76,42,42.87,73.64,73.17,99.56,38.39,32.84,80,62,116.93,96.5,24.57,23,60.35,56.42,51.4,94-9.32,39.1-55.21,69.28-85.37,90.89-41.33,29.6-87.34,55.49-123.43,91.77-31.58,31.74-33.27,60-33.27,102.24v223.6"
                    style="fill:none;stroke:#fff;stroke-miterlimit:10;stroke-width:1.5138588059301954px" />
                <path
                    d="M292.11-266.71c7.38,101.77,51.63,195.78,66.82,296.11,11.43,75.51-25.9,112.67-67.41,169.85-37.41,51.52-36.35,105.13-24.8,165.76,5.19,27.29,12.35,54.15,17.62,81.42,5.55,28.71,5,56.42,8.27,85.17,4.78,42.07,40.56,74.12,70.27,101.2,36.91,33.63,77.07,63.74,112.52,99,23.91,23.75,58,57.82,49.33,95.16-8.87,38.33-52.51,67.69-82,89-39.78,28.73-84.22,53.82-118.76,89.15-30.75,31.45-31.85,60-31.85,101.44v223.6"
                    style="fill:none;stroke:#fff;stroke-miterlimit:10;stroke-width:1.5138588059301954px" />
                <path
                    d="M312.69-266.71c6.12,99,46.26,191.38,59.55,289.17C382.73,99.73,342.92,141,301.56,200.67c-37.24,53.72-38.91,106.44-22.91,168.54,14.29,55.46,28,105.5,34.44,162.45,4.82,42.19,37.93,74.63,67,103,35.3,34.49,73.92,65.64,107.74,101.65,23.18,24.68,55.23,59.35,47,96.49-8.33,37.47-49.51,65.92-78.26,86.89-38.09,27.79-80.83,52-113.69,86.3-29.77,31.09-30.17,60-30.17,100.5v223.6"
                    style="fill:none;stroke:#fff;stroke-miterlimit:10;stroke-width:1.5138588059301954px" />
                <path
                    d="M333.27-266.71C338-170.61,373.84-80,385.08,15.07c9.35,79.22-32.87,124.84-74.19,187.07C273.81,258,269,310.4,290,373.67,308.13,428,327,474.43,333.55,531.72c4.89,42.41,35.12,75.15,63.49,105,33.61,35.4,70.59,67.65,102.71,104.48,22.73,26.08,51.71,60.56,44.44,97.91-7.08,36.35-46.74,64.35-74.25,84.64-36.31,26.78-77.27,50.07-108.33,83.3-28.7,30.68-28.34,59.92-28.34,99.46v223.6"
                    style="fill:none;stroke:#fff;stroke-miterlimit:10;stroke-width:1.5138588059301954px" />
                <path
                    d="M353.85-266.71c3.27,93.13,34.71,181.83,43.84,274.18,8,81.31-36.42,131.3-77.81,196.18C283,261.5,274.51,314.23,301.14,378.26c22,52.86,46.12,95.8,52.86,153.53,10.12,86.61,106,150.72,157.41,214.44,21.73,27,48.86,62.26,41.81,99.39-6.74,35.49-43.24,62.25-70.1,82.31-34.49,25.76-73.62,48.11-102.86,80.22-27.53,30.24-26.41,59.9-26.41,98.38v223.6"
                    style="fill:none;stroke:#fff;stroke-miterlimit:10;stroke-width:1.5138588059301954px" />
                <path
                    d="M374.44-266.71c1.85,90.19,28.82,177,35.86,266.58,6.57,83.5-39.83,137.72-81.44,205.28-36.73,59.65-49.05,113.38-16.6,177.7,25.76,51.07,55.26,90.79,62.19,149,10.41,87.52,98.82,152.4,148.63,219.38,20.71,27.86,46,63.91,39.19,100.86-6.39,34.6-39.78,60.16-66,80-32.67,24.74-70,46.14-97.37,77.14-26.35,29.79-24.49,59.9-24.49,97.3v223.6"
                    style="fill:none;stroke:#fff;stroke-miterlimit:10;stroke-width:1.5138588059301954px" />
                <path
                    d="M395-266.71c.59,87.36,23.06,172.26,28.13,259.21,5,85.74-43,143.89-84.94,214.12-36.53,61.21-52.84,116.54-14.56,180.68,29.28,49.05,64.12,85.85,71.26,144.62C405.64,620.28,487,686,535,756.1c19.69,28.73,43.23,65.45,36.66,102.28-6,33.71-36.47,58.15-62,77.74-30.89,23.74-66.4,44.25-92,74.14-25.15,29.33-22.65,59.93-22.65,96.27v223.6"
                    style="fill:none;stroke:#fff;stroke-miterlimit:10;stroke-width:1.5138588059301954px" />
                <path
                    d="M415.6-266.71C415.15-182,433.17-98.89,436.48-14.42c3.45,88-45.88,149.63-88.19,222.46-36.31,62.5-56.57,119.9-12.68,183.45C368,438.43,408,472.6,415.39,532c11,89,85.9,155.78,132.07,228.7,18.71,29.55,40.64,66.84,34.32,103.59-5.65,32.83-33.42,56.28-58.23,75.64-29.22,22.81-63,42.46-87,71.29s-21,60-21,95.34v223.6"
                    style="fill:none;stroke:#fff;stroke-miterlimit:10;stroke-width:1.5138588059301954px" />
                <path
                    d="M436.18-266.71C435-184.32,448.71-102.9,450.52-20.66c2,90-48.35,154.77-91.07,230-36.06,63.5-60.06,123.25-11.05,185.89C383.54,440.19,428.34,472,435.9,532c11.28,89.53,80.56,157.47,124.79,232.79,17.79,30.28,38.35,68,32.26,104.75-5.3,32-30.74,54.63-54.88,73.76-27.69,22-59.88,40.83-82.32,68.68-23,28.55-19.57,60-19.57,94.54v223.6"
                    style="fill:none;stroke:#fff;stroke-miterlimit:10;stroke-width:1.5138588059301954px" />
                <path
                    d="M456.76-266.71c-1.58,80.43,8.08,160.36,8.75,240.72.77,91.88-50.33,159.14-93.47,236.57C336.29,274.75,308.9,337,362.3,398.5c37.45,43.17,86.42,72.7,94.16,133.52C467.89,621.8,532.62,691.16,575,768.34c16.94,30.88,36.47,69,30.57,105.7-5,31.23-28.56,53.26-52.07,72.18-26.24,21.12-57.35,39.32-78.21,66.37-22,28.54-18.5,59.87-18.5,93.94v223.6"
                    style="fill:none;stroke:#fff;stroke-miterlimit:10;stroke-width:1.5138588059301954px" />
                <path
                    d="M477.34-266.71c-1.55,78.91,4.4,157.62,4.34,236.51-.07,93.41-51.76,162.63-95.25,241.84-35.39,64.47-65.71,129-8.85,189.43C417,442.9,469.19,470.29,477.07,532c11.47,89.76,72.82,160.71,113.47,239.15,16.22,31.3,35.12,69.77,29.36,106.38-4.81,30.57-27,52.24-49.92,71-25,20.35-55.48,38-74.79,64.45-21.09,28.86-17.85,59.56-17.85,93.57v223.6"
                    style="fill:none;stroke:#fff;stroke-miterlimit:10;stroke-width:1.5138588059301954px" />
                <path
                    d="M497.93-266.71c-1,77.9,1.63,155.76,1.33,233.65C498.9,61.46,446.7,132,403,212.53c-34.93,64.33-67.64,131-8.45,190.3,41,41,95.27,66.36,103.22,129.13,11.34,89.45,70.68,162.11,109.92,241.13,15.65,31.53,34.41,70.26,28.7,106.75-4.71,30.14-26.09,51.54-48.55,70.21-24.11,20-53.55,37.15-72.2,63-20.79,28.81-17.69,59.66-17.69,93.49v223.6"
                    style="fill:none;stroke:#fff;stroke-miterlimit:10;stroke-width:1.5138588059301954px" />
                <path
                    d="M518.51-266.71q0,116.19,0,232.37c0,95.1-52.64,166.34-96.43,247.54-34.37,63.72-68.84,132.17-8.62,190.45,42.28,40.93,97.1,64.27,105.06,128.22C529.56,620.68,588.4,695.12,626.63,774c15.27,31.51,34.43,70.46,28.69,106.75-4.74,30-26.06,51.13-48.11,70-23.52,20.09-52.2,36.58-70.57,62.1-20.82,28.93-18.13,59.76-18.13,93.72v223.6"
                    style="fill:none;stroke:#fff;stroke-miterlimit:10;stroke-width:1.5138588059301954px" />
                <path
                    d="M539.71-265.16C542-187.67,536-110.37,536.6-32.9c.79,93.1-50.79,165.29-92.52,245.43-33.66,64.64-67.24,131.14-8.19,190.38,40.73,40.88,93,65.37,101.52,127.64,12.28,89.39,70.29,161.76,109.45,241C662.37,803,681.38,841.8,675.31,878.1c-4.95,29.57-26.41,51.64-47.95,70.68-23.44,20.72-51.7,38.78-70,64.7-20.55,29.12-18.28,59-18.28,93v223.6"
                    style="fill:none;stroke:#fff;stroke-miterlimit:10;stroke-width:1.5138588059301954px" />
                <path
                    d="M562-260.86c3.35,77.74-9.94,154.43-9.87,232,.07,90.36-46.62,161.61-85.39,240.79-31.56,64.44-62.83,129-7.33,188.49,38.31,41.06,85.83,66.28,94.41,126.39,12.78,89.44,71.63,160,111.85,238.79,16,31.29,34.87,69.56,28.76,106-5,29.65-26.5,52.92-47.47,72.84-23.21,22-51,41.93-69.08,68.79-20,29.66-18.22,58.93-18.22,93.3v223.6"
                    style="fill:none;stroke:#fff;stroke-miterlimit:10;stroke-width:1.5138588059301954px" />
                <path
                    d="M585.26-254.19c3.37,79.06-18.69,155.28-19.84,234-1.21,83.79-39.3,151.71-73.28,226.78C463.38,270.12,433.23,335,482.78,395.4c33.86,41.26,79.09,67.8,85.74,125.5,9.92,86.07,70,154.52,110.76,228.39,17.65,32,38.38,70.27,34.14,108.13C710,888.14,689.41,913.3,669,935c-23.14,24.62-49.87,46.59-69.06,74.67-20.51,30-19.68,59.49-19.68,94.63v225.8"
                    style="fill:none;stroke:#fff;stroke-miterlimit:10;stroke-width:1.5138588059301954px" />
                <path
                    d="M609.29-245.55c2.5,80-28.87,154.29-32.44,233.53-3.58,79.5-32.48,145-61.41,218.43C491.11,268.2,466,331,508.19,390.29c30.3,42.5,64.41,68.46,72.82,123.16,13.25,86.11,71.88,150.84,114.75,224.47,18.39,31.59,39.35,69,35.44,106.91-3.26,31.52-23.72,58.39-43.5,81.81-22.67,26.83-48.82,51.3-67.6,81.2-19.55,31.13-19.27,60.76-19.27,96.49v225.8"
                    style="fill:none;stroke:#fff;stroke-miterlimit:10;stroke-width:1.5138588059301954px" />
                <path
                    d="M634-235.34C634.77-156,596.15-86.52,587.3-8.9c-4.31,37.76-4.76,72.67-14.85,110-10,37.07-23.28,73.16-34.82,109.77-19,60.22-36.22,119.42-1.27,176.83,24.65,40.5,49.16,68.2,55.4,117.17,10.91,85.71,77.65,150.77,121,222.09,17.72,29.16,37.59,63,36,98.44-1.45,32.91-21,62.26-39.95,87.82-22.13,29.83-48,57.28-67,89.37s-20.43,63.12-20.43,99.53v228.05"
                    style="fill:none;stroke:#fff;stroke-miterlimit:10;stroke-width:1.5138588059301954px" />
                <path
                    d="M659.1-223.95c-1.47,82-50.72,148.76-63.06,228.16-5.57,35.82-5,72.05-12,108-6.67,34.4-15.52,68.34-23,102.56-12.22,55.82-22.91,110.74.78,164.83,17.48,39.94,36,70.34,40.11,115.24,7.85,84.92,83.43,151.22,127.63,219.61,18.73,29,37.68,61.48,35.64,97.09-2,34.87-22.24,66.29-41.05,94.48-20.1,30.13-43.15,58.56-60.67,90.36-19,34.57-21.49,64.71-21.49,103.45v230.34"
                    style="fill:none;stroke:#fff;stroke-miterlimit:10;stroke-width:1.5138588059301954px" />
                <path
                    d="M684.55-211.78c-4.21,84.2-63.3,147.18-80.24,227.57-7.12,33.84-4.9,69.94-8.1,104.37-2.91,31.36-6.86,62.6-10.1,93.92-5.47,52.8-11.46,106,2.13,158.09,10,38.39,18.36,72.42,22.87,112.12,9.6,84.41,87.13,147.53,133.22,214.12,19.63,28.36,39,59.86,37.52,95.47-1.56,36.22-21.66,70.26-39.68,100.54-19.53,32.79-41.9,64.1-58.9,98.36-17.87,36-20.69,67.43-20.69,107v230.34"
                    style="fill:none;stroke:#fff;stroke-miterlimit:10;stroke-width:1.5138588059301954px" />
                <path
                    d="M710.16-199.21c-7.45,87.4-77.71,146.74-98.55,229.28-14.13,56-2.52,122.65-.46,179.92,3.15,87.73,2,176.06,9,263.61,6.3,79.15,88.34,142.52,133.63,201.57,22.76,29.67,47.4,64.31,44.7,103.52-2.65,38.41-23,75.55-40.91,108.6-38.18,70.38-74.4,128.22-74.4,210.17v232.67"
                    style="fill:none;stroke:#fff;stroke-miterlimit:10;stroke-width:1.5138588059301954px" />
                <path
                    d="M735.77-186.64c-11,90.71-92.45,146-117.09,231-15,51.89,5.64,111.13,16.44,162.17s14,100.93,5.92,152.52c-5.26,33.68-15,69.22-12.31,103.54,6.13,79.07,94.93,141.27,141,198.45,21.57,26.76,45.68,58,45.5,94.17-.21,40-20.23,80.18-37.16,115.33C757.7,912.91,733.89,954,717.74,998.3c-13,35.67-14,68.49-14,106v225.78"
                    style="fill:none;stroke:#fff;stroke-miterlimit:10;stroke-width:1.5138588059301954px" />
                <path
                    d="M761.21-174.48C746.67-80.26,654-29.41,625.89,58.35,609,111.27,640.66,162.27,660.36,209.44c19.32,46.24,25.34,93.5,7,141.12-13,33.65-30.53,64-28.85,101.66,1.57,35.27,26.06,64.95,48.42,90.44,31.78,36.22,68.15,68.16,99.54,104.73,23.34,27.17,45.34,56.52,45,93.56-.35,38.42-18,77.71-32.9,112.39-36,83.84-74.24,155.75-74.24,248.66v228.13"
                    style="fill:none;stroke:#fff;stroke-miterlimit:10;stroke-width:1.5138588059301954px" />
                <path
                    d="M786.35-163.1C768.68-66.25,667-20,634.56,69.16c-20.19,55.42,21.86,97.72,50.17,139.94s36.18,89.78,8.5,134.53c-20,32.32-45.87,57.37-44.67,98.76,1,34.83,27.54,64.38,50.16,88.6,32.9,35.21,70.34,65.9,102.85,101.48,24.21,26.49,46.73,54.9,46.79,92,.07,39.78-17.43,81.2-31.72,117.65C782.37,929.52,744.9,1006.69,744.9,1102v228.13"
                    style="fill:none;stroke:#fff;stroke-miterlimit:10;stroke-width:1.5138588059301954px" />
                <path
                    d="M811-152.91C790.42-52.53,678-11.12,643.39,81.29c-22.08,58.89,33.12,93.25,67.68,129.69,34.9,36.81,42,85.3,8.44,125.65-24.91,29.94-62.11,52-60.64,96.85,1.26,38.35,36.58,71.8,61.91,96.31,29.4,28.44,61.39,54.13,90.34,83.05,27.35,27.3,56.4,59,54.66,100.06-1.82,42.83-18.72,85.69-33.2,125.52-31.77,87.4-67.1,167-67.1,261.19v230.52"
                    style="fill:none;stroke:#fff;stroke-miterlimit:10;stroke-width:1.5138588059301954px" />
                <path
                    d="M835-144.29C812.69-41.44,692.24-4.4,654.64,89.46c-25.1,62.67,41.32,90,80.56,120.8C776.9,243,784,293.5,744.57,331.47c-29,28-74.4,46.32-73.19,94.57,1,38.17,37.93,71.29,63.48,94.77,30.17,27.73,62.92,52.56,92.65,80.79,28.08,26.66,57.66,57.5,56,98.75-1.71,44-18.28,88.37-32.27,129.7-30.45,90-65.22,173.48-65.22,269.56v230.52"
                    style="fill:none;stroke:#fff;stroke-miterlimit:10;stroke-width:1.5138588059301954px" />
                <path
                    d="M858.27-137.65C835.83-35.48,714.88-.84,671.61,88.87c-33.25,68.95,37.22,91.42,84.14,119,47.57,28,59.33,81.41,14.14,118.67-33.3,27.46-83.82,41.67-83.31,93.87.35,35.35,31.76,64.52,56,86.68,36.49,33.29,77.61,61.29,113,95.76,22.86,22.23,46,48.27,46.52,81.84.77,49-19.13,99.8-34,145.7-30,92.55-61.55,178.13-61.55,276.32v223.41"
                    style="fill:none;stroke:#fff;stroke-miterlimit:10;stroke-width:1.5138588059301954px" />
                <path
                    d="M880.56-133.38C859-29.22,731.29,2.27,687.18,92.91c-35.32,72.58,42,90.39,91.25,114.39,50.78,24.72,63.2,81.14,15,116.82-35.52,26.27-91.22,38-90.37,92.62.55,35.66,31.84,64.23,56.67,86.19,37.07,32.77,78.83,60,114.83,94,23.24,22,46.46,47.71,46.83,81.42.55,49.56-19.08,101-33.54,147.74-29,93.74-60.59,181.63-60.59,280.62v223.41"
                    style="fill:none;stroke:#fff;stroke-miterlimit:10;stroke-width:1.5138588059301954px" />
                <path
                    d="M901.75-131.87C882.94-26,748.77,2.84,705.33,94.32c-36.07,76,43.74,90.15,95.12,112.31,52,22.44,64.67,82.45,15.37,116.77-37.16,25.87-95.54,35.3-93.87,92.06,1.06,36.22,31.29,64.06,56.85,86.23,37.41,32.47,79.66,59.11,116,92.88,23.53,21.88,46.61,47.53,46.64,81.42,0,49.72-19.3,101.18-33.44,148.22-28.27,94.1-60.17,183.42-60.17,282.51v223.41"
                    style="fill:none;stroke:#fff;stroke-miterlimit:10;stroke-width:1.5138588059301954px" />
                <path
                    d="M921.72-133.38C900.93-28.75,771.44,2.06,727.5,92.93c-35.21,72.85,42.66,90.64,92.08,114.74,50.66,24.71,63.58,81.26,15,116.86C799,350.58,743,362,744.29,416.77c.84,35.46,32,64.25,56.69,86.22,36.44,32.42,77.51,59.38,112.9,93,23.07,21.94,46.48,48,47.1,81.6.92,49.38-19.09,101.13-33.53,147.62-28.91,93.1-61,181.21-61.08,279.66,0,75.1,3.44,150.14,2,225.25"
                    style="fill:none;stroke:#fff;stroke-miterlimit:10;stroke-width:1.5138588059301954px" />
                <path
                    d="M940.6-137.65C919.11-34.43,794.58-1.3,751.25,88.94c-33.45,69.65,39.16,92.37,86.39,120.13,47.39,27.85,60.83,81.61,14.63,118.78-33.46,26.93-84.35,40.15-83.21,92.61.75,34.79,31.37,64.14,55.19,86.28,34.88,32.4,74.29,59.7,108.15,93.23,22.37,22.15,45.31,48.66,46.21,81.75,1.32,48.54-19.11,99.64-33.94,145-29.78,91.11-62.87,177.13-62,274.17.67,76.49,8.44,152.66,6.33,229.2"
                    style="fill:none;stroke:#fff;stroke-miterlimit:10;stroke-width:1.5138588059301954px" />
                <path
                    d="M958.52-144.29C937-39.65,810.67-5.38,772.66,89.6c-25.62,64,45,92.18,85,123.13C899.36,245,909.2,296.21,868.16,334c-29.48,27.17-74.61,43.45-73.29,92,1,36.67,36.35,70.21,60.56,93.27,27.72,26.41,58,50.09,85.24,77,26.87,26.45,54.93,57.66,53.68,97.67-1.35,43.49-18.16,87.56-32.15,128.24-30.25,88-66.72,171.32-65.35,265.8,1.18,81,14.91,161,12.7,242.14"
                    style="fill:none;stroke:#fff;stroke-miterlimit:10;stroke-width:1.5138588059301954px" />
                <path
                    d="M975.66-152.91C955.38-50,834.9-12.48,799,81.51c-23.31,61.1,38.47,97,74.64,133.52,35.56,35.9,46.53,85.6,10.65,125.76-25.7,28.77-62.16,47.56-60.81,92.69,2.07,69.22,93,125.5,135.46,170.7,25.37,27,51.34,58.68,50,97.77-1.48,42-18.5,84.14-33,123-31.5,84.38-69.78,163.8-66.58,255.68,2.91,83.61,22.36,165.61,20.77,249.52"
                    style="fill:none;stroke:#fff;stroke-miterlimit:10;stroke-width:1.5138588059301954px" />
                <path
                    d="M992.16-163.1C974.14-63,862.2-21.53,827.3,69.49c-22.48,58.62,28.2,103,59.66,145.3,30.25,40.68,42.9,90.18,12.33,134.77-21,30.66-46.08,51.73-44.81,92.86,2.19,71.06,86.25,126.86,127.53,177,21.42,26,40.09,54.16,40.24,88.68.17,38.77-17,78.9-31.4,114.19-33.9,83.11-76.16,160-70.16,252.28,5.59,85.84,30.5,169.19,30,255.59"
                    style="fill:none;stroke:#fff;stroke-miterlimit:10;stroke-width:1.5138588059301954px" />
                <path
                    d="M1008.19-174.48C992.51-76.29,886.9-31.31,855.25,58.79c-20.07,57.16,22.09,110.48,47,158.32,23.36,44.84,33.39,93.52,12.39,141.42-13.86,31.61-30.51,57.15-29.13,93.71,2.65,70.34,75.22,124.94,113.86,177.59,19.44,26.5,35.94,55.1,35.52,88.68-.48,37.11-17.38,74.36-32.48,107.56-35.76,78.59-79.82,149.65-71.51,239S970.18,1240,971.3,1330.13"
                    style="fill:none;stroke:#fff;stroke-miterlimit:10;stroke-width:1.5138588059301954px" />
                <path
                    d="M1023.91-186.64c-12.86,95.36-109.78,144-139.43,231.57C865.32,101.5,897.86,163.43,916,216c17.46,50.51,23.52,100.25,13.56,153.07-5.82,30.87-14.52,61.66-12.72,93.53,3.89,68.88,63.21,121.74,98.36,176.46,16.79,26.12,32.6,55.35,32.23,87.34-.43,38.15-19.35,75.45-36.58,108.47-38.29,73.39-81.11,136.68-70.06,222.76,11.79,91.91,48.07,179.28,51.06,272.5"
                    style="fill:none;stroke:#fff;stroke-miterlimit:10;stroke-width:1.5138588059301954px" />
                <path
                    d="M1039.46-199.21c-10.06,92.68-98.37,144.65-125.67,230-19.15,59.86,6.71,131.93,18.28,191.17C948.13,304.17,945,390,949.36,473.58c3.5,67,51,118.92,82.26,175.07,39.33,70.57,27.71,127.21-12.76,194.09-38.3,63.32-81,118.63-70.14,196.4,13.8,98.66,58.52,190.86,63.74,291"
                    style="fill:none;stroke:#fff;stroke-miterlimit:10;stroke-width:1.5138588059301954px" />
                <path
                    d="M1055-211.78c-7.43,90-87.23,145.11-112.08,228.37-19.31,64.71-.63,145.75,4.34,212,3.88,51.76-3.55,108.32,12,158.41,10.51,33.76,19.76,61.16,22.26,97.3,4.72,68.32,43.26,120.66,70.18,181.63,29,65.79,20.22,117.68-19.87,176.22-42,61.33-87.45,109.9-73.66,189.2,17.63,101.4,67.42,195.39,74.81,298.79"
                    style="fill:none;stroke:#fff;stroke-miterlimit:10;stroke-width:1.5138588059301954px" />
                <path
                    d="M1070.73-223.95c-5.22,88.25-78.28,146.44-99.64,229.07-9.19,35.56-6.15,75.49-7,112-.92,38.08-1.42,76.17-2.18,114.25-1.06,53.11-14,116.21,12.29,165.19,18.6,34.68,36.29,56.51,39.41,98.22,5,66.76,33.46,120,55.25,182.3,22.53,64.36,16.75,115-26.07,168.57-45.15,56.46-90.54,97.36-75.08,175.48,20.8,105.08,76.36,201.48,85.95,309"
                    style="fill:none;stroke:#fff;stroke-miterlimit:10;stroke-width:1.5138588059301954px" />
                <path
                    d="M1086.75-235.34c-3.29,85.78-68.29,146.61-87.41,227.45-8.59,36.33-6.8,77.08-10.19,114.23-3.73,40.91-7.92,81.77-11.87,122.65-5.46,56.6-25,128.29,12.66,177.53,25.77,33.69,51.1,52.33,54.34,98.23,4.54,64.28,24.7,119.06,41.17,180.88C1101.8,747,1101.15,797.7,1057,846.22c-21.26,23.37-47.27,43-65.32,69.22-21.7,31.54-21.51,62.66-13.25,99,24.35,107.3,84.34,205.32,95.76,315.66"
                    style="fill:none;stroke:#fff;stroke-miterlimit:10;stroke-width:1.5138588059301954px" />
                <path
                    d="M1103.25-245.55c-2,86.47-64.62,151.47-77.93,234.67-12.52,78.19-18.94,158.08-31.41,236.65-9.25,58.29-35.27,136.6,9.14,186,30.62,34.09,67.78,50.13,71.92,101.64,2.43,30.25,1.68,59.41,7.67,89.63s14.35,59.8,20.1,90c11.81,62,13.48,114.52-36,159.07-21.81,19.66-47.94,35.71-65.78,59.45-23,30.54-19.68,61.43-10.62,97.21,27.61,109.07,91.58,208.54,104.4,321.32"
                    style="fill:none;stroke:#fff;stroke-miterlimit:10;stroke-width:1.5138588059301954px" />
                <path
                    d="M1120.38-254.19c-1.23,85.13-57.4,152.71-68.8,235.19-5,36.32-6.08,72.49-12.68,108.81-8.37,46.07-18.8,91.75-28.29,137.6-12.45,60.17-43.27,142,8.26,191.16,34.5,32.92,80.27,47.61,84.77,102.33,2.45,29.8.07,59.75,3.91,89.8s9.53,60.11,13.21,90.32c7.34,60.16,11.87,114.23-40.24,153.89-22.2,16.9-48.82,29.6-67.1,51.2C989,935,993.69,966.77,1003,1001.49c29.82,111.63,98.55,212.84,112.4,328.64"
                    style="fill:none;stroke:#fff;stroke-miterlimit:10;stroke-width:1.5138588059301954px" />
                <path
                    d="M1138.29-260.86c-1.13,83.23-50.3,152.37-61.28,233.32-5.48,40.45-7.14,79.39-15.82,119.71-10.29,47.76-23.12,94.94-34.54,142.43-14.66,61-47.44,142.73,10.06,190,37.9,31.18,88.83,45.55,93.11,102.15,4.65,61.48,6,124.28,9.67,186.05,3.6,59.79,8.74,111-46.48,146.14-22.17,14.12-49.34,24-67,44.33-24.71,28.32-17.45,61.93-7.91,95.38,32,112.26,104,214.34,117.89,331.46"
                    style="fill:none;stroke:#fff;stroke-miterlimit:10;stroke-width:1.5138588059301954px" />
                <path
                    d="M1157.15-265.16c-1.92,82.3-45.89,153.15-56.38,233.59-5.33,41-7,79.63-16.57,120.3-11.62,49.48-26.44,98.15-39.49,147.26-16.29,61.32-51.16,145.52,9.66,192,40.07,30.61,95.9,43.8,100.24,102.53,4.52,61.2,2.08,124.8,3.41,186.32,1.27,58.62,9.71,112-47.81,143.72-22.36,12.35-49.92,20-67.87,39.18-25.36,27.17-17.47,62.45-8,95,32.93,113.55,108.92,216.6,122.23,335.43"
                    style="fill:none;stroke:#fff;stroke-miterlimit:10;stroke-width:1.5138588059301954px" />
                <path
                    d="M1177.11-266.71C1173.48-185.17,1133.89-113,1123-33c-5.56,40.73-6.61,79.2-16.47,119.65-12.34,50.62-28.59,100.22-42.67,150.36-17,60.48-52.46,146.85,9.27,192.1,41.73,30.59,99.63,42.17,103.84,102.71,4.28,61.48.17,124.79.18,186.45,0,57.88,12,113.58-47.48,143.28-22.48,11.22-50.35,17.19-68.39,35.92-25.47,26.43-17.64,63.49-8.43,95.34,33,114,112.73,217.64,124.28,337.31"
                    style="fill:none;stroke:#fff;stroke-miterlimit:10;stroke-width:1.5138588059301954px" />
                <path
                    d="M1197.69-266.71c-2.27,82.8-45.32,155.27-56,236.36-5.34,40.64-7.25,79.14-16.69,119.5-11.63,49.69-26.38,98.58-39.4,147.91-16.35,61.92-50.85,144.72,9.64,191.9,39.86,31.09,95.91,45.56,100.6,104,4.88,60.73,1.32,124.13,2.09,185.16.73,58.41,11.16,113.23-47.8,143.65-22.68,11.69-50.92,18.3-69.11,37.38-25.25,26.48-17.66,63.52-8.46,95.41,32.83,113.68,114.62,216,125.11,335.59"
                    style="fill:none;stroke:#fff;stroke-miterlimit:10;stroke-width:1.5138588059301954px" />
                <path
                    d="M1218.28-266.71c-1.62,85.21-49,159-60.13,242.26-5.38,40.14-7.47,78.88-16,118.86-10.24,48.25-22.88,96-34.19,144-14.78,62.72-46.53,141.54,10.23,190.94,37.42,32.58,89.18,50.24,94,106.54,5.1,59.92,3.62,122.34,5.79,182.62,1,28.18,5.63,62.85-.39,90.64-5.88,27.17-24,41.1-47.41,53.76-23,12.49-51.77,20.06-70.24,39.77-25.11,26.8-18,63.42-8.56,95.63,33,112.65,116.91,213,126.89,331.85"
                    style="fill:none;stroke:#fff;stroke-miterlimit:10;stroke-width:1.5138588059301954px" />
                <path
                    d="M1238.86-266.71c-1.67,88.6-53.9,164.54-66.24,251-12.31,86.13-25,170.9-41.75,256.6-12.32,62.91-39.85,137.53,11,189.3,34.21,34.82,79.9,56,84.46,110.2,5,59.19,6.88,119.55,11,179,1.93,27.78,6.8,62.25.86,89.76-6,27.67-24.91,42.28-48.36,55.75s-52.87,22.33-71.74,42.92c-25,27.33-18.63,63.24-8.73,96,33.59,111.08,119.62,208.7,129.49,326.39"
                    style="fill:none;stroke:#fff;stroke-miterlimit:10;stroke-width:1.5138588059301954px" />
                <path
                    d="M1259.44-266.71c-2.39,92.8-59.84,171.65-74,262-12.88,82.2-19.39,166.35-31.29,249-9,62.63-31.25,133,11.92,187.11,30,37.52,68.45,62.81,72.55,114.77,4.62,58.6,10.88,116,17.49,174.47,3.08,27.26,8.45,61.36,2.63,88.56-6,28.35-26,43.91-49.59,58.34-24.18,14.8-54.18,25-73.53,46.71-25,28-19.5,63-9,96.45,34.4,109,122.66,203.35,132.77,319.49"
                    style="fill:none;stroke:#fff;stroke-miterlimit:10;stroke-width:1.5138588059301954px" />
                <path
                    d="M1280-266.71c-3.71,97.66-66.57,180-83,274.85-13.54,78-12.93,161.25-19.19,240.24-4.9,61.87-21.18,128.47,13,184.46,24.56,40.28,55.22,70.34,58.71,120.08,4.08,58.12,15.46,111.92,25,169.24,4.44,26.65,10.49,60.19,4.84,87.1-6.12,29.15-27.29,45.93-51.06,61.42-24.89,16.23-55.64,28.05-75.57,51-25,28.78-20.56,62.86-9.22,97,35.42,106.64,126,197.15,136.59,311.45"
                    style="fill:none;stroke:#fff;stroke-miterlimit:10;stroke-width:1.5138588059301954px" />
                <path
                    d="M1300.6-266.71c-5.52,103-73.87,189.3-93.09,289.13-14.24,74-5.86,155.6-5.87,230.68,0,60.71-10.17,124.12,14.1,181.47,18.09,42.75,40.59,78.15,43.43,125.94,3.43,57.73,20.46,107.63,33.25,163.46,6,26,12.83,58.77,7.36,85.45-6.11,29.84-28.65,48.56-52.69,64.87-25.75,17.46-57.32,31.44-77.8,55.65-25,29.59-21.8,62.76-9.51,97.65,36.6,104,129.5,190.27,140.82,302.54"
                    style="fill:none;stroke:#fff;stroke-miterlimit:10;stroke-width:1.5138588059301954px" />
                <path
                    d="M1321.18-266.71C1313.46-158,1239.63-67.49,1217.4,37.64c-15,71,1.5,149.22,8.28,220.55,5.63,59.26.74,120.25,15.28,178.27,11.2,44.66,25,85.65,27.19,132.16,2.74,57.41,25.76,103.38,42,157.32,7.62,25.29,15.38,57.13,10.1,83.68-6.11,30.72-30.16,51.21-54.45,68.55-59.92,42.78-121.4,75.07-90,158.9,37.9,101.11,133.17,182.93,145.33,293.06"
                    style="fill:none;stroke:#fff;stroke-miterlimit:10;stroke-width:1.5138588059301954px" />
                <path
                    d="M1341.77-266.71c-10.16,114.52-89.4,209.46-114.82,320-16,69.61,8.69,142.12,22.84,210.14,12.16,58.43,11,116,16.51,175,4.32,46.36,8.75,92,10.45,138.57,2.1,57.18,31.3,99.33,51,151,9.39,24.57,18,55.29,13,81.84-6.1,31.73-31.74,53.88-56.26,72.37-58.66,44.22-126.28,80.7-92.71,164.64,39.26,98.18,136.9,175.32,150,283.29"
                    style="fill:none;stroke:#fff;stroke-miterlimit:10;stroke-width:1.5138588059301954px" />
                <path
                    d="M1362.35-266.71C1349.67-146.38,1265.15-47,1236.49,69c-17.28,70,15.28,134.7,37.42,199.73,35.59,104.53,8.57,209.15,11.44,316.6,1.53,57.08,37,95.59,60.08,144.68,30.55,64.88,12.29,113-42.27,156.18-57.37,45.42-131.22,86.51-95.45,170.4,40.61,95.26,140.63,167.64,154.64,273.51"
                    style="fill:none;stroke:#fff;stroke-miterlimit:10;stroke-width:1.5138588059301954px" />
                <path
                    d="M1382.93-266.71c-15.14,126-104.77,229.69-136.58,351C1227.53,156,1267.4,212,1298,273.86c28.46,57.64,29.75,106.06,18.92,168.41-8.6,49.54-23.5,100.58-22.56,151.21,1.07,57.14,42.63,92.17,68.86,138.54,36.37,64.28,12.13,113.94-41.28,158.1-56.1,46.37-136.08,92.29-98.12,176,41.92,92.44,144.29,160.09,159.16,264"
                    style="fill:none;stroke:#fff;stroke-miterlimit:10;stroke-width:1.5138588059301954px" />
                <path
                    d="M1403.51-266.71c-17.37,131.26-111.91,239.07-146.65,365.3-20.5,74.51,26.14,121.89,65,180,16.1,24.11,32,51.05,34.19,80.66,2,27.71-6.68,58.24-14.13,84.76-14.23,50.66-38.57,103.56-37.89,157.08.74,57.41,48.16,89.1,77.15,132.75,42,63.26,11.83,115.08-40.39,159.9-54.9,47.1-140.68,97.9-100.64,181.32,43.11,89.82,147.8,152.87,163.4,255.07"
                    style="fill:none;stroke:#fff;stroke-miterlimit:10;stroke-width:1.5138588059301954px" />
                <path
                    d="M1424.09-266.71c-19.21,136-118.43,247.55-155.74,378.25-22.19,77.7,30.8,117.4,77.1,171.23,18.57,21.59,37.6,46.74,40.14,76.15,2.45,28.36-9.3,60.35-19,86.6-19.06,51.41-52.29,106-51.78,162.41.52,57.89,53.32,86.35,84.67,127.49,47.21,62,11.39,116.32-39.64,161.53-53.8,47.66-144.87,103.13-103,186.19,44.17,87.52,151.13,146.21,167.25,247"
                    style="fill:none;stroke:#fff;stroke-miterlimit:10;stroke-width:1.5138588059301954px" />
                <path
                    d="M1444.67-266.71c-20.46,140.17-124.15,254.84-163.54,389.34-23.73,81,35.08,114.16,87.62,163.56,20.68,19.45,42.23,42.77,45.1,72.42,2.82,29.07-11.51,62.1-23.07,88.12-23.06,51.91-64.21,108-63.78,167,.43,58.62,57.84,83.91,91.21,122.94,51.72,60.49,10.78,117.57-39.1,162.93-52.87,48.08-148.47,107.73-105,190.46,45,85.62,154.17,140.3,170.55,240.05"
                    style="fill:none;stroke:#fff;stroke-miterlimit:10;stroke-width:1.5138588059301954px" />
                <path
                    d="M1465.25-266.71c-21,143.45-128.86,260.63-169.72,398.13-11.85,39.89-10.64,66.86,18.7,97.47,22.64,23.62,51.92,39.64,77.41,59.8,22.49,17.78,45.75,39.39,48.83,69.61,3,29.89-13,63.28-26,89.27-26.24,52.34-73.85,109.28-73.39,170.71.46,59.61,61.39,81.81,96.48,119.28,55.31,59.07,10,118.75-38.79,164-52.15,48.43-151.32,111.51-106.67,194,45.59,84.23,156.88,135.36,173.17,234.53"
                    style="fill:none;stroke:#fff;stroke-miterlimit:10;stroke-width:1.5138588059301954px" />
                <path
                    d="M1485.84-266.71C1465.35-121,1353.43-2.07,1311.89,137.43c-11.8,39.61-11.48,67.52,19.47,96.81,24.22,22.93,55.49,37,82.68,55.82,24.12,16.73,48,36.86,51,67.95,3.08,30.79-13.45,63.72-27.65,89.94-28.61,52.83-80.77,109.8-80.13,173.31.62,60.9,63.65,80,100.24,116.69,57.8,57.87,9,119.8-38.77,164.82-51.7,48.75-153.25,114.2-107.93,196.64,45.88,83.46,159.18,131.6,175,230.72"
                    style="fill:none;stroke:#fff;stroke-miterlimit:10;stroke-width:1.5138588059301954px" />
                <path
                    d="M1506.42-266.71c-9.37,73.18-50.16,142.1-83.18,206.81C1390.47,4.33,1351,70.57,1330.52,140.2c-11.45,38.89-12.13,68.31,19.26,96.67,25.11,22.68,57.83,35.23,86.09,53.25,141.85,90.5-61.48,221.74-59.75,332.33,1,62.53,64.24,78.63,102.24,115.34,59,57,7.68,120.64-39.1,165.19-51.54,49.08-154.09,115.61-108.69,198.24,45.82,83.41,161,129.24,175.85,228.91"
                    style="fill:none;stroke:#fff;stroke-miterlimit:10;stroke-width:1.5138588059301954px" />
                <path
                    d="M1524.57-264.42c-21.62,145-131,263.28-172.71,402.19-11.84,39.43-13.57,68.9,18.4,97.79,25.2,22.77,58,35.4,86.4,53.51,142.55,91-62.41,221.6-60.47,332.48C1397.28,684,1461.05,701,1499,737.94c58.75,57.17,7.76,120.42-39.22,165-51.62,49-154.37,115.47-109,198.2,45.81,83.44,161.54,129.17,176.13,229"
                    style="fill:none;stroke:#fff;stroke-miterlimit:10;stroke-width:1.5138588059301954px" />
                <path
                    d="M1538.06-257.73C1515.33-115.52,1410.93-.09,1371.63,137c-10.26,35.78-12.47,64.44,15.3,91.69,24.51,24,58.46,37.21,87.29,54.94,150.69,92.65-62.23,221.79-59,335.54,1.73,60.2,62.28,80.17,100.54,115.13,60.87,55.61,17,118.28-31.48,164.75-51.24,49.1-158.62,116.25-114.7,199.76,45,85.48,163.13,130.2,177.95,231.33"
                    style="fill:none;stroke:#fff;stroke-miterlimit:10;stroke-width:1.5138588059301954px" />
                <path
                    d="M1547.55-247.26C1525.76-111.08,1428.78,0,1391.92,131.48c-10,35.84-12.07,64.28,15.64,91.5,24.67,24.25,58.82,37.64,87.84,55.57,152.37,94.2-64.84,222-61.56,336.66,1.74,60.69,63.71,82.47,102.11,118.21C1596.74,790,1554.16,851.8,1504.62,899c-51.37,48.92-159.42,116-115.27,199.63,45.16,85.55,164,130.21,178.81,231.53"
                    style="fill:none;stroke:#fff;stroke-miterlimit:10;stroke-width:1.5138588059301954px" />
                <path
                    d="M1553.7-233.63C1534.55-108.45,1450.86-3.83,1414.18,116c-12,39-15.86,72.16,16.32,101.73,26.14,24,60.31,37.57,89.92,56.53C1667.75,368.56,1450,497.63,1452,609.9c1.1,61.88,66.49,86.41,105.08,123.54,57.61,55.44,20.75,114.57-28.08,161.49-50.92,48.93-163.7,117.14-121.38,201.13,44.24,87.79,165.82,131.29,181.13,234.07"
                    style="fill:none;stroke:#fff;stroke-miterlimit:10;stroke-width:1.5138588059301954px" />
                <path
                    d="M1557.17-217.49c-16.36,117.74-93.28,216-124.58,329.27-10.66,38.59-10.72,71.47,21.05,99.37,27.26,23.94,62,37.73,92,57.68,144.13,95.91-79.38,223.65-76.35,335.14,1.73,63.93,70.25,89.48,109.06,129.2,58.14,59.51,17.37,117.48-33.58,165.61-49.43,46.71-158.29,113.17-119,194.66,43.39,90.1,167.72,132.38,183.6,236.69"
                    style="fill:none;stroke:#fff;stroke-miterlimit:10;stroke-width:1.5138588059301954px" />
                <path
                    d="M1558.63-199.44C1545.7-90.24,1476.3.88,1451,106.61c-9.42,39.34-6.37,69.81,26,97,26.09,21.94,58.14,35.47,86.45,54.11,151.81,100-78.48,223-76.77,339.27.93,62.8,68.35,92,107.29,130.44,21.42,21.13,39.46,47.28,35.4,78.91-5,39.17-41.66,71.47-68.79,96.3-48.71,44.57-153,109-116.86,188,42.35,92.64,169.66,133.48,186.21,239.41"
                    style="fill:none;stroke:#fff;stroke-miterlimit:10;stroke-width:1.5138588059301954px" />
                <path
                    d="M1558.74-180.12c-9.18,99.74-70.13,183.62-89.26,280.75C1453,184.15,1521.77,208,1581.36,245.87c162.32,103.29-80.94,223.89-78.09,344,1.53,64.16,72,97,111.54,137.07,19.86,20.1,37.35,44.64,35.59,74.36C1648,841,1612.16,873.49,1585,898.51c-53.66,49.37-162.75,113.57-118.09,198.9,45.58,87.1,167.11,130,183.62,232.72"
                    style="fill:none;stroke:#fff;stroke-miterlimit:10;stroke-width:1.5138588059301954px" />
                <path
                    d="M1558.17-160.16c-5.43,89.72-57,166.32-70,254.19C1476,176.62,1549.12,200.53,1607,238.7c157.06,103.57-87.81,225.7-86.6,343.56.67,66.13,75.28,102.15,115.59,144.12,20.53,21.37,37.4,47.24,34.19,78-3.85,36.79-35.09,66.15-60.76,89.95-52.71,48.87-167.61,114.81-124.82,200.38,44.77,89.54,169.22,131.09,186.47,235.47"
                    style="fill:none;stroke:#fff;stroke-miterlimit:10;stroke-width:1.5138588059301954px" />
                <path
                    d="M1557.58-140.18c-2,79.41-43.14,149-50.38,227.24-7.65,82.55,68.15,105.29,125.52,144.63,153.2,105.05-97.28,226.43-96,343.1.74,64.81,74,104.15,114.17,144.86,22.68,23,45.17,53.41,39.94,87.79-5.68,37.26-39.89,66.93-66.12,90.8-51.62,47-162,110.36-122.4,193.61,43.76,92.12,171.28,132.21,189.3,238.28"
                    style="fill:none;stroke:#fff;stroke-miterlimit:10;stroke-width:1.5138588059301954px" />
                <path
                    d="M1557.63-120.8c.83,66.51-26.21,126.9-30.51,192.52-5.55,84.82,62.77,107,123.15,148,162.27,110.16-96.8,225.32-96.15,347.76C1554.5,637.2,1637.39,680,1678.35,726c18.41,20.66,35.91,47.19,33.7,76.23-3.15,41.62-42.88,74.53-71.89,100.07-53.27,46.89-163.84,112.81-115.27,196.48,49.39,85.07,169.47,129,187.34,231.37"
                    style="fill:none;stroke:#fff;stroke-miterlimit:10;stroke-width:1.5138588059301954px" />
                <path
                    d="M1559-102.66c2.79,57.06-12.62,111.43-12.67,168.14,0,35.63,6.55,62.09,34.38,86.12,26.23,22.65,58.32,37.62,87.14,56.51,172.2,112.84-97.1,227-97.11,352.52,0,68.32,81.86,114.3,122.6,158.46,21.67,23.51,42.44,52.7,38.38,86.24-4.65,38.38-39.53,68.51-66.76,92.64-52.74,46.74-169.37,113.58-122.33,198,48.62,87.26,171.64,130.3,190.2,234.16"
                    style="fill:none;stroke:#fff;stroke-miterlimit:10;stroke-width:1.5138588059301954px" />
                <path
                    d="M1562.31-86.38c3.68,46.36.91,92.46,3.23,138.8,2,39.05,7.11,66.58,38.9,92.94,27.29,22.64,60,37.87,89.18,57.68,166.42,112.79-105,228.21-104.85,351.48.11,70.37,84.41,118,125.84,164.9,21.22,24,43.67,55,37.74,89.15-6,34.67-37.73,62.89-62.47,85-52.06,46.61-174.53,114.62-129.4,199.55,47.75,89.86,173.67,131.44,192.91,237"
                    style="fill:none;stroke:#fff;stroke-miterlimit:10;stroke-width:1.5138588059301954px" />
                <path
                    d="M1568.28-72.58c4,40.41,12.41,79.92,17.1,120.18,4.19,36,7.18,60.49,35.37,86.24,29.21,26.68,66.44,42.88,98.6,65.51,160.54,112.91-113,228.8-113.24,349.92-.16,71.6,88.78,123,130.37,170.85,19.46,22.39,40.1,51.64,37.22,83.06-3.61,39.3-41.4,70.58-68.65,94.6-50.56,44.55-167.9,110.31-126.49,192.55,46.57,92.51,175.55,132.64,195.42,239.8"
                    style="fill:none;stroke:#fff;stroke-miterlimit:10;stroke-width:1.5138588059301954px" />
            </g>
            <g id="line">
                <path
                    d="M-151.1-266.71q-.14,216.57,0,433.14,0,93.14,0,186.27c0,59.1-4.51,120.23.23,179.12,3.74,46.38,35.08,88.13,61.31,124.84C-56.79,702.5-20.77,746,10.53,792.94c19.59,29.34,52.12,73.55,42.89,111.79-7.87,32.62-44.22,49.35-71.91,61.52C-53.42,981.6-93.51,992.13-124,1016c-30.82,24.11-27.09,55.08-27.09,90.53v223.6"
                    style="fill:none;stroke:#fff;stroke-miterlimit:10;stroke-width:1.5138588059301954px" />
                <path
                    d="M-130.52-266.71c-2,144.37,1.94,288.79.06,433.21-.8,62.06-.06,124.14-.06,186.2,0,59.18-4.29,120.19.2,179.18,3.55,46.65,34.73,88.06,61.37,124.74,33,45.45,69.38,88.46,100.86,135C51.7,820.89,84.12,865.07,74.82,903.4,66.9,936,30.3,952.9,2.68,965.29c-35.2,15.79-75.54,26.83-106.3,51s-26.9,54.78-26.9,90.23v223.6"
                    style="fill:none;stroke:#fff;stroke-miterlimit:10;stroke-width:1.5138588059301954px" />
                <path
                    d="M-109.94-266.71c-2.86,144.73,5.69,289.06.84,433.94-2.07,61.8-.84,123.65-.84,185.47,0,59.21-4.2,120.18.18,179.21,3.47,46.7,34.77,87.61,61.84,124C-14.55,700.71,22.3,743,54.12,789c20.09,29,52.53,72.87,43.22,111.25-8,32.82-45.13,50.17-72.79,62.95-35.61,16.47-76.36,28.26-107.51,53-30.74,24.42-27,54.68-27,90.36v223.6"
                    style="fill:none;stroke:#fff;stroke-miterlimit:10;stroke-width:1.5138588059301954px" />
                <path
                    d="M-89.36-266.71c-1.57,80.51,8.28,160.51,9,241,.58,65.08-2.79,129.39-6.79,194.3-3.77,61.32-2.21,122.76-2.21,184.16,0,59.21-4.23,120.19.17,179.22,3.47,46.57,35.15,86.84,62.67,122.62C7.35,698.57,44.75,739.91,77,785.15c20.5,28.73,53.06,71.89,43.8,110.31-8,33.18-46,51.29-73.8,64.6-36.18,17.35-77.47,30.09-109.11,55.6-30.83,24.87-27.29,54.77-27.29,90.87v223.6"
                    style="fill:none;stroke:#fff;stroke-miterlimit:10;stroke-width:1.5138588059301954px" />
                <path
                    d="M-68.77-266.71c-1.18,82.5,12.76,164,14.64,246.34,1.47,64.27-4.37,126.87-10.56,190.7C-70.58,231-68.77,291.84-68.77,352.7c0,59.17-4.35,120.23.17,179.21C-65,578.21-32.8,617.72-4.81,652.7,29.66,695.76,67.68,736,100.55,780.36c21,28.32,53.77,70.58,44.59,109-8,33.68-47.14,52.78-75.11,66.74-36.85,18.39-78.79,32.26-111,58.71-31,25.45-27.79,55-27.79,91.69v223.6"
                    style="fill:none;stroke:#fff;stroke-miterlimit:10;stroke-width:1.5138588059301954px" />
                <path
                    d="M-48.19-266.71C-48.6-181.86-30.36-98.68-27-14.09c2.55,63.54-6.1,124-14.87,186.59-8.38,59.84-6.35,119.93-6.35,180.2,0,59.11-4.54,120.28.19,179.19,3.68,45.92,36.68,84.57,65.14,118.57,35.15,42,73.85,81,107.4,124.34,21.55,27.82,54.61,69,45.54,107.46-8.08,34.3-48.44,54.58-76.66,69.27-37.6,19.58-80.28,34.71-113.16,62.24-31.22,26.13-28.45,55.39-28.45,92.76v223.6"
                    style="fill:none;stroke:#fff;stroke-miterlimit:10;stroke-width:1.5138588059301954px" />
                <path
                    d="M-27.61-266.71C-27-179.22-4.28-94.23.9-7.15,4.64,55.85-7,113.58-18.69,175-29.91,233.84-27.61,293-27.61,352.7c0,59-4.79,120.35.21,179.15,3.87,45.47,37.76,83.18,66.68,116.07,35.88,40.8,75.31,78.53,109.6,120.73,22.16,27.27,55.55,67.19,46.62,105.7-8.11,35-49.89,56.62-78.39,72.1-38.42,20.86-81.9,37.35-115.5,66-31.47,26.9-29.22,55.89-29.22,94v223.6"
                    style="fill:none;stroke:#fff;stroke-miterlimit:10;stroke-width:1.5138588059301954px" />
                <path
                    d="M-7-266.71C-5.11-176.38,22.08-89.5,29.22.24,34.22,63,19.6,117.52,4.66,177.59-9.71,235.38-7,293.61-7,352.7c0,58.93-5.08,120.44.24,179.11,4.08,45,39,81.68,68.33,113.37,36.66,39.56,76.83,75.92,111.92,117,22.8,26.65,56.56,65.24,47.79,103.78C213.11,901.66,169.81,924.74,141,941c-39.29,22.23-83.61,40.12-118,70.09C-8.69,1038.8-7,1067.59-7,1106.53v223.6"
                    style="fill:none;stroke:#fff;stroke-miterlimit:10;stroke-width:1.5138588059301954px" />
                <path
                    d="M13.55-266.71c3.33,93.28,35,182.07,44.23,274.56C64.05,70.73,46.56,121.56,28.1,180.32,10.34,236.86,13.55,294.14,13.55,352.7c0,58.81-5.39,120.55.27,179.06,4.3,44.47,40.26,80.13,70,110.58,37.46,38.3,78.38,73.25,114.29,113.07,23.46,26,57.62,63.21,49,101.81-8.16,36.52-53,61.12-82.15,78.24-40.16,23.61-85.36,42.95-120.49,74.21-32,28.47-31,57.12-31,96.86v223.6"
                    style="fill:none;stroke:#fff;stroke-miterlimit:10;stroke-width:1.5138588059301954px" />
                <path
                    d="M34.13-266.71C38.92-170.47,75-79.8,86.32,15.44,93.86,78.8,73.73,125.65,51.55,183.05,30.24,238.17,34.13,294.63,34.13,352.7c0,58.68-5.72,120.67.3,179C39,575.69,76,610.3,106.17,639.5c38.26,37,79.93,70.59,116.67,109.2,24.13,25.36,58.67,61.18,50.2,99.83-8.16,37.3-54.62,63.43-84.05,81.36-41,25-87.1,45.78-123,78.33-32.27,29.24-31.85,57.78-31.85,98.31v223.6"
                    style="fill:none;stroke:#fff;stroke-miterlimit:10;stroke-width:1.5138588059301954px" />
                <path
                    d="M54.71-266.71c6.19,99.15,46.54,191.6,59.92,289.52C123.39,87,100.89,129.72,74.89,185.68,50,239.21,54.71,295.08,54.71,352.7c0,58.55-6,120.79.33,179,4.75,43.54,42.84,77.1,73.39,105.1,39,35.79,81.43,68,119,105.42,24.26,24.18,60.48,59.66,51.37,97.93s-55.51,65.26-85.89,84.37C171,950.84,124.09,973,87.4,1006.84c-32.5,30-32.69,58.43-32.69,99.69v223.6"
                    style="fill:none;stroke:#fff;stroke-miterlimit:10;stroke-width:1.5138588059301954px" />
                <path
                    d="M75.3-266.71c7.43,101.9,51.87,196,67.15,296.43,9.91,65.13-14.65,104-44.43,158.4C69.68,239.92,75.3,295.52,75.3,352.7c0,58.43-6.31,120.91.34,178.94,5,43.17,44,75.72,74.91,102.61,39.78,34.62,82.87,65.51,121.17,101.83,24.77,23.48,61.58,57.87,52.45,96.17-9.3,39-56.84,67.26-87.61,87.18-42.7,27.63-90.39,51.15-127.81,86.16-32.71,30.61-33.45,59-33.45,100.94v223.6"
                    style="fill:none;stroke:#fff;stroke-miterlimit:10;stroke-width:1.5138588059301954px" />
                <path
                    d="M95.88-266.71C104.31-162.3,152.63-66.78,169.57,36c10.91,66.23-15.39,101.51-48.72,154.31-31.56,50-25,105.69-25,162.44,0,58.34-6.52,121,.36,178.91,5.09,42.91,45,74.52,76.25,100.42,40.47,33.54,84.19,63.22,123.19,98.52,25.25,22.85,62.55,56.27,53.4,94.63-9.47,39.71-58.05,69.05-89.15,89.69-43.43,28.81-91.84,53.55-130,89.66-32.89,31.16-34.1,59.52-34.1,102v223.6"
                    style="fill:none;stroke:#fff;stroke-miterlimit:10;stroke-width:1.5138588059301954px" />
                <path
                    d="M116.46-266.71c9.05,106.6,61,203.28,79.27,308,11.74,67.36-15.94,99.55-52.45,150.75-34.38,48.22-26.82,104.36-26.82,160.68,0,58.28-6.65,121.07.36,178.9,5.19,42.78,45.78,73.54,77.36,98.61,41.07,32.59,85.37,61.19,125,95.61,25.68,22.3,63.34,54.9,54.18,93.36-9.6,40.25-59.1,70.56-90.45,91.8-44.08,29.85-93.12,55.68-131.83,92.74-33,31.61-34.6,59.88-34.6,102.81v223.6"
                    style="fill:none;stroke:#fff;stroke-miterlimit:10;stroke-width:1.5138588059301954px" />
                <path
                    d="M137-266.71c9.19,108.39,64.53,205.89,83.67,312.18C233,113.88,204.38,143.54,165.2,193.3,128.54,239.87,137,296.82,137,352.7c0,58.28-6.67,121.09.36,178.91,5.2,42.8,46.21,72.85,78.17,97.29,41.56,31.81,86.36,59.46,126.48,93.16,26,21.88,63.91,53.88,54.72,92.45-9.67,40.64-59.93,71.72-91.43,93.41-44.61,30.73-94.18,57.46-133.41,95.32C138.85,1035.16,137,1063.3,137,1106.53v223.6"
                    style="fill:none;stroke:#fff;stroke-miterlimit:10;stroke-width:1.5138588059301954px" />
                <path
                    d="M157.62-266.71c8.72,109.67,67.15,207.62,86.65,315,6,32.85,6.84,62.89-11.1,92.06-12.56,20.41-31.3,35.52-46.65,53.63-38.31,45.18-28.9,103.27-28.9,158.7,0,58.34-6.56,121.05.34,179,5.12,43,46.26,72.48,78.61,96.56,41.94,31.2,87.16,58.09,127.64,91.27,26.36,21.6,64.22,53.25,55,92-9.71,40.85-60.51,72.44-92.05,94.43-45,31.38-95,58.82-134.6,97.26-33.09,32.1-35,60-35,103.4v223.6"
                    style="fill:none;stroke:#fff;stroke-miterlimit:10;stroke-width:1.5138588059301954px" />
                <path
                    d="M178.2-266.71c7.58,110.34,68.7,208.33,87.95,316.26,5.79,32.45,7,63.28-11.15,92-12.82,20.27-32.12,34.75-47.87,52.51-39.19,44.18-29,103.68-28.94,158.66,0,58.45-6.29,121,.32,179,4.93,43.34,45.88,72.51,78.66,96.49,42.16,30.84,87.67,57.2,128.34,90.09,26.58,21.49,64.25,53.1,55,92-9.69,40.85-60.81,72.67-92.25,94.76C303,936.79,252.87,964.67,213,1003.44c-33,32.11-34.78,59.75-34.78,103.09v223.6"
                    style="fill:none;stroke:#fff;stroke-miterlimit:10;stroke-width:1.5138588059301954px" />
                <path
                    d="M198.78-266.71c8.76,109.62,67,207.56,86.54,314.92,5.95,32.77,7.45,62.82-10.7,91.88-13,20.88-32.57,36.2-48.53,54.65-38.6,44.62-30,103.54-29.09,158.83,1,58.1-4.27,120.47,2.26,178.05,4.86,42.77,46.38,72.63,78.45,96.6,41.63,31.11,86.5,58,126.67,91,26.16,21.53,64.35,53.47,55,92-9.86,40.65-60.4,72.38-91.78,94.48-44.7,31.49-94.23,59.12-133.63,97.51-33,32.16-35.2,59.9-35.2,103.32v223.6"
                    style="fill:none;stroke:#fff;stroke-miterlimit:10;stroke-width:1.5138588059301954px" />
                <path
                    d="M219.37-266.71c9.19,108.31,64.37,205.78,83.48,312,6,33.32,7.38,62.77-10.74,92.38-13.38,21.87-33.27,38.44-49.56,58-38.16,45.77-31.18,103.55-28.67,159.73,2.58,57.73-.42,119.06,6.06,176.21,4.8,42.38,45.93,72.86,77.38,97.2,40.79,31.55,84.78,59,124.13,92.45,25.69,21.8,63.65,54.18,54.33,92.35-9.84,40.29-59.26,71.69-90.38,93.71-43.84,31-92.43,58.19-131,96-32.74,32.11-35,60-35,103.23v223.6"
                    style="fill:none;stroke:#fff;stroke-miterlimit:10;stroke-width:1.5138588059301954px" />
                <path
                    d="M240-266.71C249-160.21,300.77-63.58,319,41c12.63,72.59-20.07,103-62.09,155.66C219,244.11,224.32,300.46,229.11,358c2.39,28.67,5.94,57.23,8.37,85.89,2.46,29-.18,59,3.07,87.7,4.77,42.15,44.71,73.21,75.58,98.21,39.69,32.14,82.58,60.39,120.84,94.3,25.16,22.29,62.28,55.18,53.1,93.05-9.65,39.76-57.5,70.63-88.21,92.48-42.69,30.37-90.1,57-127.55,94.09-32.25,32-34.36,60-34.36,102.85v223.6"
                    style="fill:none;stroke:#fff;stroke-miterlimit:10;stroke-width:1.5138588059301954px" />
                <path
                    d="M260.53-266.71C268.92-162.42,317.06-67,333.92,35.66c5.73,34.88,6,63.69-12,94.82-14.34,24.78-35.23,44.79-52.48,67.44-37.6,49.37-34.24,104.26-26.45,163.3,3.7,28,9,55.79,12.72,83.79,3.89,28.89,2.17,57.86,5.42,86.56,4.76,42,42.87,73.64,73.17,99.56,38.39,32.84,80,62,116.93,96.5,24.57,23,60.35,56.42,51.4,94-9.32,39.1-55.21,69.28-85.37,90.89-41.33,29.6-87.34,55.49-123.43,91.77-31.58,31.74-33.27,60-33.27,102.24v223.6"
                    style="fill:none;stroke:#fff;stroke-miterlimit:10;stroke-width:1.5138588059301954px" />
                <path
                    d="M281.11-266.71c7.38,101.77,51.63,195.78,66.82,296.11,11.43,75.51-25.9,112.67-67.41,169.85-37.41,51.52-36.35,105.13-24.8,165.76,5.19,27.29,12.35,54.15,17.62,81.42,5.55,28.71,5,56.42,8.27,85.17,4.78,42.07,40.56,74.12,70.27,101.2,36.91,33.63,77.07,63.74,112.52,99,23.91,23.75,58,57.82,49.33,95.16-8.87,38.33-52.51,67.69-82,89-39.78,28.73-84.22,53.82-118.76,89.15-30.75,31.45-31.85,60-31.85,101.44v223.6"
                    style="fill:none;stroke:#fff;stroke-miterlimit:10;stroke-width:1.5138588059301954px" />
                <path
                    d="M301.69-266.71c6.12,99,46.26,191.38,59.55,289.17C371.73,99.73,331.92,141,290.56,200.67c-37.24,53.72-38.91,106.44-22.91,168.54,14.29,55.46,28,105.5,34.44,162.45,4.82,42.19,37.93,74.63,67,103,35.3,34.49,73.92,65.64,107.74,101.65,23.18,24.68,55.23,59.35,47,96.49-8.33,37.47-49.51,65.92-78.26,86.89-38.09,27.79-80.83,52-113.69,86.3-29.77,31.09-30.17,60-30.17,100.5v223.6"
                    style="fill:none;stroke:#fff;stroke-miterlimit:10;stroke-width:1.5138588059301954px" />
                <path
                    d="M322.27-266.71C327-170.61,362.84-80,374.08,15.07c9.35,79.22-32.87,124.84-74.19,187.07C262.81,258,258,310.4,279,373.67,297.13,428,316,474.43,322.55,531.72c4.89,42.41,35.12,75.15,63.49,105,33.61,35.4,70.59,67.65,102.71,104.48,22.73,26.08,51.71,60.56,44.44,97.91-7.08,36.35-46.74,64.35-74.25,84.64-36.31,26.78-77.27,50.07-108.33,83.3-28.7,30.68-28.34,59.92-28.34,99.46v223.6"
                    style="fill:none;stroke:#fff;stroke-miterlimit:10;stroke-width:1.5138588059301954px" />
                <path
                    d="M342.85-266.71c3.27,93.13,34.71,181.83,43.84,274.18,8,81.31-36.42,131.3-77.81,196.18C272,261.5,263.51,314.23,290.14,378.26c22,52.86,46.12,95.8,52.86,153.53,10.12,86.61,106,150.72,157.41,214.44,21.73,27,48.86,62.26,41.81,99.39-6.74,35.49-43.24,62.25-70.1,82.31-34.49,25.76-73.62,48.11-102.86,80.22-27.53,30.24-26.41,59.9-26.41,98.38v223.6"
                    style="fill:none;stroke:#fff;stroke-miterlimit:10;stroke-width:1.5138588059301954px" />
                <path
                    d="M363.44-266.71c1.85,90.19,28.82,177,35.86,266.58,6.57,83.5-39.83,137.72-81.44,205.28-36.73,59.65-49.05,113.38-16.6,177.7,25.76,51.07,55.26,90.79,62.19,149,10.41,87.52,98.82,152.4,148.63,219.38,20.71,27.86,46,63.91,39.19,100.86-6.39,34.6-39.78,60.16-66,80-32.67,24.74-70,46.14-97.37,77.14-26.35,29.79-24.49,59.9-24.49,97.3v223.6"
                    style="fill:none;stroke:#fff;stroke-miterlimit:10;stroke-width:1.5138588059301954px" />
                <path
                    d="M384-266.71c.59,87.36,23.06,172.26,28.13,259.21,5,85.74-43,143.89-84.94,214.12-36.53,61.21-52.84,116.54-14.56,180.68,29.28,49.05,64.12,85.85,71.26,144.62C394.64,620.28,476,686,524,756.1c19.69,28.73,43.23,65.45,36.66,102.28-6,33.71-36.47,58.15-62,77.74-30.89,23.74-66.4,44.25-92,74.14-25.15,29.33-22.65,59.93-22.65,96.27v223.6"
                    style="fill:none;stroke:#fff;stroke-miterlimit:10;stroke-width:1.5138588059301954px" />
                <path
                    d="M404.6-266.71C404.15-182,422.17-98.89,425.48-14.42c3.45,88-45.88,149.63-88.19,222.46-36.31,62.5-56.57,119.9-12.68,183.45C357,438.43,397,472.6,404.39,532c11,89,85.9,155.78,132.07,228.7,18.71,29.55,40.64,66.84,34.32,103.59-5.65,32.83-33.42,56.28-58.23,75.64-29.22,22.81-63,42.46-87,71.29s-21,60-21,95.34v223.6"
                    style="fill:none;stroke:#fff;stroke-miterlimit:10;stroke-width:1.5138588059301954px" />
                <path
                    d="M425.18-266.71C424-184.32,437.71-102.9,439.52-20.66c2,90-48.35,154.77-91.07,230-36.06,63.5-60.06,123.25-11.05,185.89C372.54,440.19,417.34,472,424.9,532c11.28,89.53,80.56,157.47,124.79,232.79,17.79,30.28,38.35,68,32.26,104.75-5.3,32-30.74,54.63-54.88,73.76-27.69,22-59.88,40.83-82.32,68.68-23,28.55-19.57,60-19.57,94.54v223.6"
                    style="fill:none;stroke:#fff;stroke-miterlimit:10;stroke-width:1.5138588059301954px" />
                <path
                    d="M445.76-266.71c-1.58,80.43,8.08,160.36,8.75,240.72.77,91.88-50.33,159.14-93.47,236.57C325.29,274.75,297.9,337,351.3,398.5c37.45,43.17,86.42,72.7,94.16,133.52C456.89,621.8,521.62,691.16,564,768.34c16.94,30.88,36.47,69,30.57,105.7-5,31.23-28.56,53.26-52.07,72.18-26.24,21.12-57.35,39.32-78.21,66.37-22,28.54-18.5,59.87-18.5,93.94v223.6"
                    style="fill:none;stroke:#fff;stroke-miterlimit:10;stroke-width:1.5138588059301954px" />
                <path
                    d="M466.34-266.71c-1.55,78.91,4.4,157.62,4.34,236.51-.07,93.41-51.76,162.63-95.25,241.84-35.39,64.47-65.71,129-8.85,189.43C406,442.9,458.19,470.29,466.07,532c11.47,89.76,72.82,160.71,113.47,239.15,16.22,31.3,35.12,69.77,29.36,106.38-4.81,30.57-27,52.24-49.92,71-25,20.35-55.48,38-74.79,64.45-21.09,28.86-17.85,59.56-17.85,93.57v223.6"
                    style="fill:none;stroke:#fff;stroke-miterlimit:10;stroke-width:1.5138588059301954px" />
                <path
                    d="M486.93-266.71c-1,77.9,1.63,155.76,1.33,233.65C487.9,61.46,435.7,132,392,212.53c-34.93,64.33-67.64,131-8.45,190.3,41,41,95.27,66.36,103.22,129.13,11.34,89.45,70.68,162.11,109.92,241.13,15.65,31.53,34.41,70.26,28.7,106.75-4.71,30.14-26.09,51.54-48.55,70.21-24.11,20-53.55,37.15-72.2,63-20.79,28.81-17.69,59.66-17.69,93.49v223.6"
                    style="fill:none;stroke:#fff;stroke-miterlimit:10;stroke-width:1.5138588059301954px" />
                <path
                    d="M507.51-266.71q0,116.19,0,232.37c0,95.1-52.64,166.34-96.43,247.54-34.37,63.72-68.84,132.17-8.62,190.45,42.28,40.93,97.1,64.27,105.06,128.22C518.56,620.68,577.4,695.12,615.63,774c15.27,31.51,34.43,70.46,28.69,106.75-4.74,30-26.06,51.13-48.11,70-23.52,20.09-52.2,36.58-70.57,62.1-20.82,28.93-18.13,59.76-18.13,93.72v223.6"
                    style="fill:none;stroke:#fff;stroke-miterlimit:10;stroke-width:1.5138588059301954px" />
                <path
                    d="M528.71-265.16C531-187.67,525-110.37,525.6-32.9c.79,93.1-50.79,165.29-92.52,245.43-33.66,64.64-67.24,131.14-8.19,190.38,40.73,40.88,93,65.37,101.52,127.64,12.28,89.39,70.29,161.76,109.45,241C651.37,803,670.38,841.8,664.31,878.1c-4.95,29.57-26.41,51.64-47.95,70.68-23.44,20.72-51.7,38.78-70,64.7-20.55,29.12-18.28,59-18.28,93v223.6"
                    style="fill:none;stroke:#fff;stroke-miterlimit:10;stroke-width:1.5138588059301954px" />
                <path
                    d="M551-260.86c3.35,77.74-9.94,154.43-9.87,232,.07,90.36-46.62,161.61-85.39,240.79-31.56,64.44-62.83,129-7.33,188.49,38.31,41.06,85.83,66.28,94.41,126.39,12.78,89.44,71.63,160,111.85,238.79,16,31.29,34.87,69.56,28.76,106-5,29.65-26.5,52.92-47.47,72.84-23.21,22-51,41.93-69.08,68.79-20,29.66-18.22,58.93-18.22,93.3v223.6"
                    style="fill:none;stroke:#fff;stroke-miterlimit:10;stroke-width:1.5138588059301954px" />
                <path
                    d="M574.26-254.19c3.37,79.06-18.69,155.28-19.84,234-1.21,83.79-39.3,151.71-73.28,226.78C452.38,270.12,422.23,335,471.78,395.4c33.86,41.26,79.09,67.8,85.74,125.5,9.92,86.07,70,154.52,110.76,228.39,17.65,32,38.38,70.27,34.14,108.13C699,888.14,678.41,913.3,658,935c-23.14,24.62-49.87,46.59-69.06,74.67-20.51,30-19.68,59.49-19.68,94.63v225.8"
                    style="fill:none;stroke:#fff;stroke-miterlimit:10;stroke-width:1.5138588059301954px" />
                <path
                    d="M598.29-245.55c2.5,80-28.87,154.29-32.44,233.53-3.58,79.5-32.48,145-61.41,218.43C480.11,268.2,455,331,497.19,390.29c30.3,42.5,64.41,68.46,72.82,123.16,13.25,86.11,71.88,150.84,114.75,224.47,18.39,31.59,39.35,69,35.44,106.91-3.26,31.52-23.72,58.39-43.5,81.81-22.67,26.83-48.82,51.3-67.6,81.2-19.55,31.13-19.27,60.76-19.27,96.49v225.8"
                    style="fill:none;stroke:#fff;stroke-miterlimit:10;stroke-width:1.5138588059301954px" />
                <path
                    d="M623-235.34C623.77-156,585.15-86.52,576.3-8.9c-4.31,37.76-4.76,72.67-14.85,110-10,37.07-23.28,73.16-34.82,109.77-19,60.22-36.22,119.42-1.27,176.83,24.65,40.5,49.16,68.2,55.4,117.17,10.91,85.71,77.65,150.77,121,222.09,17.72,29.16,37.59,63,36,98.44-1.45,32.91-21,62.26-39.95,87.82-22.13,29.83-48,57.28-67,89.37s-20.43,63.12-20.43,99.53v228.05"
                    style="fill:none;stroke:#fff;stroke-miterlimit:10;stroke-width:1.5138588059301954px" />
                <path
                    d="M648.1-223.95c-1.47,82-50.72,148.76-63.06,228.16-5.57,35.82-5,72.05-12,108-6.67,34.4-15.52,68.34-23,102.56-12.22,55.82-22.91,110.74.78,164.83,17.48,39.94,36,70.34,40.11,115.24,7.85,84.92,83.43,151.22,127.63,219.61,18.73,29,37.68,61.48,35.64,97.09-2,34.87-22.24,66.29-41.05,94.48-20.1,30.13-43.15,58.56-60.67,90.36-19,34.57-21.49,64.71-21.49,103.45v230.34"
                    style="fill:none;stroke:#fff;stroke-miterlimit:10;stroke-width:1.5138588059301954px" />
                <path
                    d="M673.55-211.78c-4.21,84.2-63.3,147.18-80.24,227.57-7.12,33.84-4.9,69.94-8.1,104.37-2.91,31.36-6.86,62.6-10.1,93.92-5.47,52.8-11.46,106,2.13,158.09,10,38.39,18.36,72.42,22.87,112.12,9.6,84.41,87.13,147.53,133.22,214.12,19.63,28.36,39,59.86,37.52,95.47-1.56,36.22-21.66,70.26-39.68,100.54-19.53,32.79-41.9,64.1-58.9,98.36-17.87,36-20.69,67.43-20.69,107v230.34"
                    style="fill:none;stroke:#fff;stroke-miterlimit:10;stroke-width:1.5138588059301954px" />
                <path
                    d="M699.16-199.21c-7.45,87.4-77.71,146.74-98.55,229.28-14.13,56-2.52,122.65-.46,179.92,3.15,87.73,2,176.06,9,263.61,6.3,79.15,88.34,142.52,133.63,201.57,22.76,29.67,47.4,64.31,44.7,103.52-2.65,38.41-23,75.55-40.91,108.6-38.18,70.38-74.4,128.22-74.4,210.17v232.67"
                    style="fill:none;stroke:#fff;stroke-miterlimit:10;stroke-width:1.5138588059301954px" />
                <path
                    d="M724.77-186.64c-11,90.71-92.45,146-117.09,231-15,51.89,5.64,111.13,16.44,162.17s14,100.93,5.92,152.52c-5.26,33.68-15,69.22-12.31,103.54,6.13,79.07,94.93,141.27,141,198.45,21.57,26.76,45.68,58,45.5,94.17-.21,40-20.23,80.18-37.16,115.33C746.7,912.91,722.89,954,706.74,998.3c-13,35.67-14,68.49-14,106v225.78"
                    style="fill:none;stroke:#fff;stroke-miterlimit:10;stroke-width:1.5138588059301954px" />
                <path
                    d="M750.21-174.48C735.67-80.26,643-29.41,614.89,58.35,598,111.27,629.66,162.27,649.36,209.44c19.32,46.24,25.34,93.5,7,141.12-13,33.65-30.53,64-28.85,101.66,1.57,35.27,26.06,64.95,48.42,90.44,31.78,36.22,68.15,68.16,99.54,104.73,23.34,27.17,45.34,56.52,45,93.56-.35,38.42-18,77.71-32.9,112.39-36,83.84-74.24,155.75-74.24,248.66v228.13"
                    style="fill:none;stroke:#fff;stroke-miterlimit:10;stroke-width:1.5138588059301954px" />
                <path
                    d="M775.35-163.1C757.68-66.25,656-20,623.56,69.16c-20.19,55.42,21.86,97.72,50.17,139.94s36.18,89.78,8.5,134.53c-20,32.32-45.87,57.37-44.67,98.76,1,34.83,27.54,64.38,50.16,88.6,32.9,35.21,70.34,65.9,102.85,101.48,24.21,26.49,46.73,54.9,46.79,92,.07,39.78-17.43,81.2-31.72,117.65C771.37,929.52,733.9,1006.69,733.9,1102v228.13"
                    style="fill:none;stroke:#fff;stroke-miterlimit:10;stroke-width:1.5138588059301954px" />
                <path
                    d="M800-152.91C779.42-52.53,667-11.12,632.39,81.29c-22.08,58.89,33.12,93.25,67.68,129.69,34.9,36.81,42,85.3,8.44,125.65-24.91,29.94-62.11,52-60.64,96.85,1.26,38.35,36.58,71.8,61.91,96.31,29.4,28.44,61.39,54.13,90.34,83.05,27.35,27.3,56.4,59,54.66,100.06-1.82,42.83-18.72,85.69-33.2,125.52-31.77,87.4-67.1,167-67.1,261.19v230.52"
                    style="fill:none;stroke:#fff;stroke-miterlimit:10;stroke-width:1.5138588059301954px" />
                <path
                    d="M824-144.29C801.69-41.44,681.24-4.4,643.64,89.46c-25.1,62.67,41.32,90,80.56,120.8C765.9,243,773,293.5,733.57,331.47c-29,28-74.4,46.32-73.19,94.57,1,38.17,37.93,71.29,63.48,94.77,30.17,27.73,62.92,52.56,92.65,80.79,28.08,26.66,57.66,57.5,56,98.75-1.71,44-18.28,88.37-32.27,129.7-30.45,90-65.22,173.48-65.22,269.56v230.52"
                    style="fill:none;stroke:#fff;stroke-miterlimit:10;stroke-width:1.5138588059301954px" />
                <path
                    d="M847.27-137.65C824.83-35.48,703.88-.84,660.61,88.87c-33.25,68.95,37.22,91.42,84.14,119,47.57,28,59.33,81.41,14.14,118.67-33.3,27.46-83.82,41.67-83.31,93.87.35,35.35,31.76,64.52,56,86.68,36.49,33.29,77.61,61.29,113,95.76,22.86,22.23,46,48.27,46.52,81.84.77,49-19.13,99.8-34,145.7-30,92.55-61.55,178.13-61.55,276.32v223.41"
                    style="fill:none;stroke:#fff;stroke-miterlimit:10;stroke-width:1.5138588059301954px" />
                <path
                    d="M869.56-133.38C848-29.22,720.29,2.27,676.18,92.91c-35.32,72.58,42,90.39,91.25,114.39,50.78,24.72,63.2,81.14,15,116.82-35.52,26.27-91.22,38-90.37,92.62.55,35.66,31.84,64.23,56.67,86.19,37.07,32.77,78.83,60,114.83,94,23.24,22,46.46,47.71,46.83,81.42.55,49.56-19.08,101-33.54,147.74-29,93.74-60.59,181.63-60.59,280.62v223.41"
                    style="fill:none;stroke:#fff;stroke-miterlimit:10;stroke-width:1.5138588059301954px" />
                <path
                    d="M890.75-131.87C871.94-26,737.77,2.84,694.33,94.32c-36.07,76,43.74,90.15,95.12,112.31,52,22.44,64.67,82.45,15.37,116.77-37.16,25.87-95.54,35.3-93.87,92.06,1.06,36.22,31.29,64.06,56.85,86.23,37.41,32.47,79.66,59.11,116,92.88,23.53,21.88,46.61,47.53,46.64,81.42,0,49.72-19.3,101.18-33.44,148.22-28.27,94.1-60.17,183.42-60.17,282.51v223.41"
                    style="fill:none;stroke:#fff;stroke-miterlimit:10;stroke-width:1.5138588059301954px" />
                <path
                    d="M910.72-133.38C889.93-28.75,760.44,2.06,716.5,92.93c-35.21,72.85,42.66,90.64,92.08,114.74,50.66,24.71,63.58,81.26,15,116.86C788,350.58,732,362,733.29,416.77c.84,35.46,32,64.25,56.69,86.22,36.44,32.42,77.51,59.38,112.9,93,23.07,21.94,46.48,48,47.1,81.6.92,49.38-19.09,101.13-33.53,147.62-28.91,93.1-61,181.21-61.08,279.66,0,75.1,3.44,150.14,2,225.25"
                    style="fill:none;stroke:#fff;stroke-miterlimit:10;stroke-width:1.5138588059301954px" />
                <path
                    d="M929.6-137.65C908.11-34.43,783.58-1.3,740.25,88.94c-33.45,69.65,39.16,92.37,86.39,120.13,47.39,27.85,60.83,81.61,14.63,118.78-33.46,26.93-84.35,40.15-83.21,92.61.75,34.79,31.37,64.14,55.19,86.28,34.88,32.4,74.29,59.7,108.15,93.23,22.37,22.15,45.31,48.66,46.21,81.75,1.32,48.54-19.11,99.64-33.94,145-29.78,91.11-62.87,177.13-62,274.17.67,76.49,8.44,152.66,6.33,229.2"
                    style="fill:none;stroke:#fff;stroke-miterlimit:10;stroke-width:1.5138588059301954px" />
                <path
                    d="M947.52-144.29C926-39.65,799.67-5.38,761.66,89.6c-25.62,64,45,92.18,85,123.13C888.36,245,898.2,296.21,857.16,334c-29.48,27.17-74.61,43.45-73.29,92,1,36.67,36.35,70.21,60.56,93.27,27.72,26.41,58,50.09,85.24,77,26.87,26.45,54.93,57.66,53.68,97.67-1.35,43.49-18.16,87.56-32.15,128.24-30.25,88-66.72,171.32-65.35,265.8,1.18,81,14.91,161,12.7,242.14"
                    style="fill:none;stroke:#fff;stroke-miterlimit:10;stroke-width:1.5138588059301954px" />
                <path
                    d="M964.66-152.91C944.38-50,823.9-12.48,788,81.51c-23.31,61.1,38.47,97,74.64,133.52,35.56,35.9,46.53,85.6,10.65,125.76-25.7,28.77-62.16,47.56-60.81,92.69,2.07,69.22,93,125.5,135.46,170.7,25.37,27,51.34,58.68,50,97.77-1.48,42-18.5,84.14-33,123-31.5,84.38-69.78,163.8-66.58,255.68,2.91,83.61,22.36,165.61,20.77,249.52"
                    style="fill:none;stroke:#fff;stroke-miterlimit:10;stroke-width:1.5138588059301954px" />
                <path
                    d="M981.16-163.1C963.14-63,851.2-21.53,816.3,69.49c-22.48,58.62,28.2,103,59.66,145.3,30.25,40.68,42.9,90.18,12.33,134.77-21,30.66-46.08,51.73-44.81,92.86,2.19,71.06,86.25,126.86,127.53,177,21.42,26,40.09,54.16,40.24,88.68.17,38.77-17,78.9-31.4,114.19-33.9,83.11-76.16,160-70.16,252.28,5.59,85.84,30.5,169.19,30,255.59"
                    style="fill:none;stroke:#fff;stroke-miterlimit:10;stroke-width:1.5138588059301954px" />
                <path
                    d="M997.19-174.48C981.51-76.29,875.9-31.31,844.25,58.79c-20.07,57.16,22.09,110.48,47,158.32,23.36,44.84,33.39,93.52,12.39,141.42-13.86,31.61-30.51,57.15-29.13,93.71,2.65,70.34,75.22,124.94,113.86,177.59,19.44,26.5,35.94,55.1,35.52,88.68-.48,37.11-17.38,74.36-32.48,107.56-35.76,78.59-79.82,149.65-71.51,239S959.18,1240,960.3,1330.13"
                    style="fill:none;stroke:#fff;stroke-miterlimit:10;stroke-width:1.5138588059301954px" />
                <path
                    d="M1012.91-186.64c-12.86,95.36-109.78,144-139.43,231.57C854.32,101.5,886.86,163.43,905,216c17.46,50.51,23.52,100.25,13.56,153.07-5.82,30.87-14.52,61.66-12.72,93.53,3.89,68.88,63.21,121.74,98.36,176.46,16.79,26.12,32.6,55.35,32.23,87.34-.43,38.15-19.35,75.45-36.58,108.47-38.29,73.39-81.11,136.68-70.06,222.76,11.79,91.91,48.07,179.28,51.06,272.5"
                    style="fill:none;stroke:#fff;stroke-miterlimit:10;stroke-width:1.5138588059301954px" />
                <path
                    d="M1028.46-199.21c-10.06,92.68-98.37,144.65-125.67,230-19.15,59.86,6.71,131.93,18.28,191.17C937.13,304.17,934,390,938.36,473.58c3.5,67,51,118.92,82.26,175.07,39.33,70.57,27.71,127.21-12.76,194.09-38.3,63.32-81,118.63-70.14,196.4,13.8,98.66,58.52,190.86,63.74,291"
                    style="fill:none;stroke:#fff;stroke-miterlimit:10;stroke-width:1.5138588059301954px" />
                <path
                    d="M1044-211.78c-7.43,90-87.23,145.11-112.08,228.37-19.31,64.71-.63,145.75,4.34,212,3.88,51.76-3.55,108.32,12,158.41,10.51,33.76,19.76,61.16,22.26,97.3,4.72,68.32,43.26,120.66,70.18,181.63,29,65.79,20.22,117.68-19.87,176.22-42,61.33-87.45,109.9-73.66,189.2,17.63,101.4,67.42,195.39,74.81,298.79"
                    style="fill:none;stroke:#fff;stroke-miterlimit:10;stroke-width:1.5138588059301954px" />
                <path
                    d="M1059.73-223.95c-5.22,88.25-78.28,146.44-99.64,229.07-9.19,35.56-6.15,75.49-7,112-.92,38.08-1.42,76.17-2.18,114.25-1.06,53.11-14,116.21,12.29,165.19,18.6,34.68,36.29,56.51,39.41,98.22,5,66.76,33.46,120,55.25,182.3,22.53,64.36,16.75,115-26.07,168.57-45.15,56.46-90.54,97.36-75.08,175.48,20.8,105.08,76.36,201.48,85.95,309"
                    style="fill:none;stroke:#fff;stroke-miterlimit:10;stroke-width:1.5138588059301954px" />
                <path
                    d="M1075.75-235.34c-3.29,85.78-68.29,146.61-87.41,227.45-8.59,36.33-6.8,77.08-10.19,114.23-3.73,40.91-7.92,81.77-11.87,122.65-5.46,56.6-25,128.29,12.66,177.53,25.77,33.69,51.1,52.33,54.34,98.23,4.54,64.28,24.7,119.06,41.17,180.88C1090.8,747,1090.15,797.7,1046,846.22c-21.26,23.37-47.27,43-65.32,69.22-21.7,31.54-21.51,62.66-13.25,99,24.35,107.3,84.34,205.32,95.76,315.66"
                    style="fill:none;stroke:#fff;stroke-miterlimit:10;stroke-width:1.5138588059301954px" />
                <path
                    d="M1092.25-245.55c-2,86.47-64.62,151.47-77.93,234.67-12.52,78.19-18.94,158.08-31.41,236.65-9.25,58.29-35.27,136.6,9.14,186,30.62,34.09,67.78,50.13,71.92,101.64,2.43,30.25,1.68,59.41,7.67,89.63s14.35,59.8,20.1,90c11.81,62,13.48,114.52-36,159.07C1034,871.81,1007.85,887.86,990,911.6c-23,30.54-19.68,61.43-10.62,97.21,27.61,109.07,91.58,208.54,104.4,321.32"
                    style="fill:none;stroke:#fff;stroke-miterlimit:10;stroke-width:1.5138588059301954px" />
                <path
                    d="M1109.38-254.19c-1.23,85.13-57.4,152.71-68.8,235.19-5,36.32-6.08,72.49-12.68,108.81-8.37,46.07-18.8,91.75-28.29,137.6-12.45,60.17-43.27,142,8.26,191.16,34.5,32.92,80.27,47.61,84.77,102.33,2.45,29.8.07,59.75,3.91,89.8s9.53,60.11,13.21,90.32c7.34,60.16,11.87,114.23-40.24,153.89-22.2,16.9-48.82,29.6-67.1,51.2C978,935,982.69,966.77,992,1001.49c29.82,111.63,98.55,212.84,112.4,328.64"
                    style="fill:none;stroke:#fff;stroke-miterlimit:10;stroke-width:1.5138588059301954px" />
                <path
                    d="M1127.29-260.86c-1.13,83.23-50.3,152.37-61.28,233.32-5.48,40.45-7.14,79.39-15.82,119.71-10.29,47.76-23.12,94.94-34.54,142.43-14.66,61-47.44,142.73,10.06,190,37.9,31.18,88.83,45.55,93.11,102.15,4.65,61.48,6,124.28,9.67,186.05,3.6,59.79,8.74,111-46.48,146.14-22.17,14.12-49.34,24-67,44.33-24.71,28.32-17.45,61.93-7.91,95.38,32,112.26,104,214.34,117.89,331.46"
                    style="fill:none;stroke:#fff;stroke-miterlimit:10;stroke-width:1.5138588059301954px" />
                <path
                    d="M1146.15-265.16c-1.92,82.3-45.89,153.15-56.38,233.59-5.33,41-7,79.63-16.57,120.3-11.62,49.48-26.44,98.15-39.49,147.26-16.29,61.32-51.16,145.52,9.66,192,40.07,30.61,95.9,43.8,100.24,102.53,4.52,61.2,2.08,124.8,3.41,186.32,1.27,58.62,9.71,112-47.81,143.72-22.36,12.35-49.92,20-67.87,39.18-25.36,27.17-17.47,62.45-8,95,32.93,113.55,108.92,216.6,122.23,335.43"
                    style="fill:none;stroke:#fff;stroke-miterlimit:10;stroke-width:1.5138588059301954px" />
                <path
                    d="M1166.11-266.71C1162.48-185.17,1122.89-113,1112-33c-5.56,40.73-6.61,79.2-16.47,119.65-12.34,50.62-28.59,100.22-42.67,150.36-17,60.48-52.46,146.85,9.27,192.1,41.73,30.59,99.63,42.17,103.84,102.71,4.28,61.48.17,124.79.18,186.45,0,57.88,12,113.58-47.48,143.28-22.48,11.22-50.35,17.19-68.39,35.92-25.47,26.43-17.64,63.49-8.43,95.34,33,114,112.73,217.64,124.28,337.31"
                    style="fill:none;stroke:#fff;stroke-miterlimit:10;stroke-width:1.5138588059301954px" />
                <path
                    d="M1186.69-266.71c-2.27,82.8-45.32,155.27-56,236.36-5.34,40.64-7.25,79.14-16.69,119.5-11.63,49.69-26.38,98.58-39.4,147.91-16.35,61.92-50.85,144.72,9.64,191.9,39.86,31.09,95.91,45.56,100.6,104,4.88,60.73,1.32,124.13,2.09,185.16.73,58.41,11.16,113.23-47.8,143.65-22.68,11.69-50.92,18.3-69.11,37.38-25.25,26.48-17.66,63.52-8.46,95.41,32.83,113.68,114.62,216,125.11,335.59"
                    style="fill:none;stroke:#fff;stroke-miterlimit:10;stroke-width:1.5138588059301954px" />
                <path
                    d="M1207.28-266.71c-1.62,85.21-49,159-60.13,242.26-5.38,40.14-7.47,78.88-16,118.86-10.24,48.25-22.88,96-34.19,144-14.78,62.72-46.53,141.54,10.23,190.94,37.42,32.58,89.18,50.24,94,106.54,5.1,59.92,3.62,122.34,5.79,182.62,1,28.18,5.63,62.85-.39,90.64-5.88,27.17-24,41.1-47.41,53.76-23,12.49-51.77,20.06-70.24,39.77-25.11,26.8-18,63.42-8.56,95.63,33,112.65,116.91,213,126.89,331.85"
                    style="fill:none;stroke:#fff;stroke-miterlimit:10;stroke-width:1.5138588059301954px" />
                <path
                    d="M1227.86-266.71c-1.67,88.6-53.9,164.54-66.24,251-12.31,86.13-25,170.9-41.75,256.6-12.32,62.91-39.85,137.53,11,189.3,34.21,34.82,79.9,56,84.46,110.2,5,59.19,6.88,119.55,11,179,1.93,27.78,6.8,62.25.86,89.76-6,27.67-24.91,42.28-48.36,55.75s-52.87,22.33-71.74,42.92c-25,27.33-18.63,63.24-8.73,96,33.59,111.08,119.62,208.7,129.49,326.39"
                    style="fill:none;stroke:#fff;stroke-miterlimit:10;stroke-width:1.5138588059301954px" />
                <path
                    d="M1248.44-266.71c-2.39,92.8-59.84,171.65-74,262-12.88,82.2-19.39,166.35-31.29,249-9,62.63-31.25,133,11.92,187.11,30,37.52,68.45,62.81,72.55,114.77,4.62,58.6,10.88,116,17.49,174.47,3.08,27.26,8.45,61.36,2.63,88.56-6,28.35-26,43.91-49.59,58.34-24.18,14.8-54.18,25-73.53,46.71-25,28-19.5,63-9,96.45,34.4,109,122.66,203.35,132.77,319.49"
                    style="fill:none;stroke:#fff;stroke-miterlimit:10;stroke-width:1.5138588059301954px" />
                <path
                    d="M1269-266.71c-3.71,97.66-66.57,180-83,274.85-13.54,78-12.93,161.25-19.19,240.24-4.9,61.87-21.18,128.47,13,184.46,24.56,40.28,55.22,70.34,58.71,120.08,4.08,58.12,15.46,111.92,25,169.24,4.44,26.65,10.49,60.19,4.84,87.1-6.12,29.15-27.29,45.93-51.06,61.42-24.89,16.23-55.64,28.05-75.57,51-25,28.78-20.56,62.86-9.22,97,35.42,106.64,126,197.15,136.59,311.45"
                    style="fill:none;stroke:#fff;stroke-miterlimit:10;stroke-width:1.5138588059301954px" />
                <path
                    d="M1289.6-266.71c-5.52,103-73.87,189.3-93.09,289.13-14.24,74-5.86,155.6-5.87,230.68,0,60.71-10.17,124.12,14.1,181.47,18.09,42.75,40.59,78.15,43.43,125.94,3.43,57.73,20.46,107.63,33.25,163.46,6,26,12.83,58.77,7.36,85.45-6.11,29.84-28.65,48.56-52.69,64.87-25.75,17.46-57.32,31.44-77.8,55.65-25,29.59-21.8,62.76-9.51,97.65,36.6,104,129.5,190.27,140.82,302.54"
                    style="fill:none;stroke:#fff;stroke-miterlimit:10;stroke-width:1.5138588059301954px" />
                <path
                    d="M1310.18-266.71C1302.46-158,1228.63-67.49,1206.4,37.64c-15,71,1.5,149.22,8.28,220.55,5.63,59.26.74,120.25,15.28,178.27,11.2,44.66,25,85.65,27.19,132.16,2.74,57.41,25.76,103.38,42,157.32,7.62,25.29,15.38,57.13,10.1,83.68-6.11,30.72-30.16,51.21-54.45,68.55-59.92,42.78-121.4,75.07-90,158.9,37.9,101.11,133.17,182.93,145.33,293.06"
                    style="fill:none;stroke:#fff;stroke-miterlimit:10;stroke-width:1.5138588059301954px" />
                <path
                    d="M1330.77-266.71c-10.16,114.52-89.4,209.46-114.82,320-16,69.61,8.69,142.12,22.84,210.14,12.16,58.43,11,116,16.51,175,4.32,46.36,8.75,92,10.45,138.57,2.1,57.18,31.3,99.33,51,151,9.39,24.57,18,55.29,13,81.84-6.1,31.73-31.74,53.88-56.26,72.37-58.66,44.22-126.28,80.7-92.71,164.64,39.26,98.18,136.9,175.32,150,283.29"
                    style="fill:none;stroke:#fff;stroke-miterlimit:10;stroke-width:1.5138588059301954px" />
                <path
                    d="M1351.35-266.71C1338.67-146.38,1254.15-47,1225.49,69c-17.28,70,15.28,134.7,37.42,199.73,35.59,104.53,8.57,209.15,11.44,316.6,1.53,57.08,37,95.59,60.08,144.68,30.55,64.88,12.29,113-42.27,156.18-57.37,45.42-131.22,86.51-95.45,170.4,40.61,95.26,140.63,167.64,154.64,273.51"
                    style="fill:none;stroke:#fff;stroke-miterlimit:10;stroke-width:1.5138588059301954px" />
                <path
                    d="M1371.93-266.71c-15.14,126-104.77,229.69-136.58,351C1216.53,156,1256.4,212,1287,273.86c28.46,57.64,29.75,106.06,18.92,168.41-8.6,49.54-23.5,100.58-22.56,151.21,1.07,57.14,42.63,92.17,68.86,138.54,36.37,64.28,12.13,113.94-41.28,158.1-56.1,46.37-136.08,92.29-98.12,176,41.92,92.44,144.29,160.09,159.16,264"
                    style="fill:none;stroke:#fff;stroke-miterlimit:10;stroke-width:1.5138588059301954px" />
                <path
                    d="M1392.51-266.71c-17.37,131.26-111.91,239.07-146.65,365.3-20.5,74.51,26.14,121.89,65,180,16.1,24.11,32,51.05,34.19,80.66,2,27.71-6.68,58.24-14.13,84.76-14.23,50.66-38.57,103.56-37.89,157.08.74,57.41,48.16,89.1,77.15,132.75,42,63.26,11.83,115.08-40.39,159.9-54.9,47.1-140.68,97.9-100.64,181.32,43.11,89.82,147.8,152.87,163.4,255.07"
                    style="fill:none;stroke:#fff;stroke-miterlimit:10;stroke-width:1.5138588059301954px" />
                <path
                    d="M1413.09-266.71c-19.21,136-118.43,247.55-155.74,378.25-22.19,77.7,30.8,117.4,77.1,171.23,18.57,21.59,37.6,46.74,40.14,76.15,2.45,28.36-9.3,60.35-19,86.6-19.06,51.41-52.29,106-51.78,162.41.52,57.89,53.32,86.35,84.67,127.49,47.21,62,11.39,116.32-39.64,161.53-53.8,47.66-144.87,103.13-103,186.19,44.17,87.52,151.13,146.21,167.25,247"
                    style="fill:none;stroke:#fff;stroke-miterlimit:10;stroke-width:1.5138588059301954px" />
                <path
                    d="M1433.67-266.71c-20.46,140.17-124.15,254.84-163.54,389.34-23.73,81,35.08,114.16,87.62,163.56,20.68,19.45,42.23,42.77,45.1,72.42,2.82,29.07-11.51,62.1-23.07,88.12-23.06,51.91-64.21,108-63.78,167,.43,58.62,57.84,83.91,91.21,122.94,51.72,60.49,10.78,117.57-39.1,162.93-52.87,48.08-148.47,107.73-105,190.46,45,85.62,154.17,140.3,170.55,240.05"
                    style="fill:none;stroke:#fff;stroke-miterlimit:10;stroke-width:1.5138588059301954px" />
                <path
                    d="M1454.25-266.71c-21,143.45-128.86,260.63-169.72,398.13-11.85,39.89-10.64,66.86,18.7,97.47,22.64,23.62,51.92,39.64,77.41,59.8,22.49,17.78,45.75,39.39,48.83,69.61,3,29.89-13,63.28-26,89.27-26.24,52.34-73.85,109.28-73.39,170.71.46,59.61,61.39,81.81,96.48,119.28,55.31,59.07,10,118.75-38.79,164-52.15,48.43-151.32,111.51-106.67,194,45.59,84.23,156.88,135.36,173.17,234.53"
                    style="fill:none;stroke:#fff;stroke-miterlimit:10;stroke-width:1.5138588059301954px" />
                <path
                    d="M1474.84-266.71C1454.35-121,1342.43-2.07,1300.89,137.43c-11.8,39.61-11.48,67.52,19.47,96.81,24.22,22.93,55.49,37,82.68,55.82,24.12,16.73,48,36.86,51,67.95,3.08,30.79-13.45,63.72-27.65,89.94-28.61,52.83-80.77,109.8-80.13,173.31.62,60.9,63.65,80,100.24,116.69,57.8,57.87,9,119.8-38.77,164.82-51.7,48.75-153.25,114.2-107.93,196.64,45.88,83.46,159.18,131.6,175,230.72"
                    style="fill:none;stroke:#fff;stroke-miterlimit:10;stroke-width:1.5138588059301954px" />
                <path
                    d="M1495.42-266.71c-9.37,73.18-50.16,142.1-83.18,206.81C1379.47,4.33,1340,70.57,1319.52,140.2c-11.45,38.89-12.13,68.31,19.26,96.67,25.11,22.68,57.83,35.23,86.09,53.25,141.85,90.5-61.48,221.74-59.75,332.33,1,62.53,64.24,78.63,102.24,115.34,59,57,7.68,120.64-39.1,165.19-51.54,49.08-154.09,115.61-108.69,198.24,45.82,83.41,161,129.24,175.85,228.91"
                    style="fill:none;stroke:#fff;stroke-miterlimit:10;stroke-width:1.5138588059301954px" />
                <path
                    d="M1513.57-264.42c-21.62,145-131,263.28-172.71,402.19-11.84,39.43-13.57,68.9,18.4,97.79,25.2,22.77,58,35.4,86.4,53.51,142.55,91-62.41,221.6-60.47,332.48C1386.28,684,1450.05,701,1488,737.94c58.75,57.17,7.76,120.42-39.22,165-51.62,49-154.37,115.47-109,198.2,45.81,83.44,161.54,129.17,176.13,229"
                    style="fill:none;stroke:#fff;stroke-miterlimit:10;stroke-width:1.5138588059301954px" />
                <path
                    d="M1527.06-257.73C1504.33-115.52,1399.93-.09,1360.63,137c-10.26,35.78-12.47,64.44,15.3,91.69,24.51,24,58.46,37.21,87.29,54.94,150.69,92.65-62.23,221.79-59,335.54,1.73,60.2,62.28,80.17,100.54,115.13,60.87,55.61,17,118.28-31.48,164.75-51.24,49.1-158.62,116.25-114.7,199.76,45,85.48,163.13,130.2,177.95,231.33"
                    style="fill:none;stroke:#fff;stroke-miterlimit:10;stroke-width:1.5138588059301954px" />
                <path
                    d="M1536.55-247.26C1514.76-111.08,1417.78,0,1380.92,131.48c-10,35.84-12.07,64.28,15.64,91.5,24.67,24.25,58.82,37.64,87.84,55.57,152.37,94.2-64.84,222-61.56,336.66,1.74,60.69,63.71,82.47,102.11,118.21C1585.74,790,1543.16,851.8,1493.62,899c-51.37,48.92-159.42,116-115.27,199.63,45.16,85.55,164,130.21,178.81,231.53"
                    style="fill:none;stroke:#fff;stroke-miterlimit:10;stroke-width:1.5138588059301954px" />
                <path
                    d="M1542.7-233.63C1523.55-108.45,1439.86-3.83,1403.18,116c-12,39-15.86,72.16,16.32,101.73,26.14,24,60.31,37.57,89.92,56.53C1656.75,368.56,1439,497.63,1441,609.9c1.1,61.88,66.49,86.41,105.08,123.54,57.61,55.44,20.75,114.57-28.08,161.49-50.92,48.93-163.7,117.14-121.38,201.13,44.24,87.79,165.82,131.29,181.13,234.07"
                    style="fill:none;stroke:#fff;stroke-miterlimit:10;stroke-width:1.5138588059301954px" />
                <path
                    d="M1546.17-217.49c-16.36,117.74-93.28,216-124.58,329.27-10.66,38.59-10.72,71.47,21.05,99.37,27.26,23.94,62,37.73,92,57.68,144.13,95.91-79.38,223.65-76.35,335.14,1.73,63.93,70.25,89.48,109.06,129.2,58.14,59.51,17.37,117.48-33.58,165.61-49.43,46.71-158.29,113.17-119,194.66,43.39,90.1,167.72,132.38,183.6,236.69"
                    style="fill:none;stroke:#fff;stroke-miterlimit:10;stroke-width:1.5138588059301954px" />
                <path
                    d="M1547.63-199.44C1534.7-90.24,1465.3.88,1440,106.61c-9.42,39.34-6.37,69.81,26,97,26.09,21.94,58.14,35.47,86.45,54.11,151.81,100-78.48,223-76.77,339.27.93,62.8,68.35,92,107.29,130.44,21.42,21.13,39.46,47.28,35.4,78.91-5,39.17-41.66,71.47-68.79,96.3-48.71,44.57-153,109-116.86,188,42.35,92.64,169.66,133.48,186.21,239.41"
                    style="fill:none;stroke:#fff;stroke-miterlimit:10;stroke-width:1.5138588059301954px" />
                <path
                    d="M1547.74-180.12c-9.18,99.74-70.13,183.62-89.26,280.75C1442,184.15,1510.77,208,1570.36,245.87c162.32,103.29-80.94,223.89-78.09,344,1.53,64.16,72,97,111.54,137.07,19.86,20.1,37.35,44.64,35.59,74.36C1637,841,1601.16,873.49,1574,898.51c-53.66,49.37-162.75,113.57-118.09,198.9,45.58,87.1,167.11,130,183.62,232.72"
                    style="fill:none;stroke:#fff;stroke-miterlimit:10;stroke-width:1.5138588059301954px" />
                <path
                    d="M1547.17-160.16c-5.43,89.72-57,166.32-70,254.19C1465,176.62,1538.12,200.53,1596,238.7c157.06,103.57-87.81,225.7-86.6,343.56.67,66.13,75.28,102.15,115.59,144.12,20.53,21.37,37.4,47.24,34.19,78-3.85,36.79-35.09,66.15-60.76,89.95-52.71,48.87-167.61,114.81-124.82,200.38,44.77,89.54,169.22,131.09,186.47,235.47"
                    style="fill:none;stroke:#fff;stroke-miterlimit:10;stroke-width:1.5138588059301954px" />
                <path
                    d="M1546.58-140.18c-2,79.41-43.14,149-50.38,227.24-7.65,82.55,68.15,105.29,125.52,144.63,153.2,105.05-97.28,226.43-96,343.1.74,64.81,74,104.15,114.17,144.86,22.68,23,45.17,53.41,39.94,87.79-5.68,37.26-39.89,66.93-66.12,90.8-51.62,47-162,110.36-122.4,193.61,43.76,92.12,171.28,132.21,189.3,238.28"
                    style="fill:none;stroke:#fff;stroke-miterlimit:10;stroke-width:1.5138588059301954px" />
                <path
                    d="M1546.63-120.8c.83,66.51-26.21,126.9-30.51,192.52-5.55,84.82,62.77,107,123.15,148,162.27,110.16-96.8,225.32-96.15,347.76C1543.5,637.2,1626.39,680,1667.35,726c18.41,20.66,35.91,47.19,33.7,76.23-3.15,41.62-42.88,74.53-71.89,100.07-53.27,46.89-163.84,112.81-115.27,196.48,49.39,85.07,169.47,129,187.34,231.37"
                    style="fill:none;stroke:#fff;stroke-miterlimit:10;stroke-width:1.5138588059301954px" />
                <path
                    d="M1548-102.66c2.79,57.06-12.62,111.43-12.67,168.14,0,35.63,6.55,62.09,34.38,86.12,26.23,22.65,58.32,37.62,87.14,56.51,172.2,112.84-97.1,227-97.11,352.52,0,68.32,81.86,114.3,122.6,158.46,21.67,23.51,42.44,52.7,38.38,86.24-4.65,38.38-39.53,68.51-66.76,92.64-52.74,46.74-169.37,113.58-122.33,198,48.62,87.26,171.64,130.3,190.2,234.16"
                    style="fill:none;stroke:#fff;stroke-miterlimit:10;stroke-width:1.5138588059301954px" />
                <path
                    d="M1551.31-86.38c3.68,46.36.91,92.46,3.23,138.8,2,39.05,7.11,66.58,38.9,92.94,27.29,22.64,60,37.87,89.18,57.68,166.42,112.79-105,228.21-104.85,351.48.11,70.37,84.41,118,125.84,164.9,21.22,24,43.67,55,37.74,89.15-6,34.67-37.73,62.89-62.47,85-52.06,46.61-174.53,114.62-129.4,199.55,47.75,89.86,173.67,131.44,192.91,237"
                    style="fill:none;stroke:#fff;stroke-miterlimit:10;stroke-width:1.5138588059301954px" />
                <path
                    d="M1557.28-72.58c4,40.41,12.41,79.92,17.1,120.18,4.19,36,7.18,60.49,35.37,86.24,29.21,26.68,66.44,42.88,98.6,65.51,160.54,112.91-113,228.8-113.24,349.92-.16,71.6,88.78,123,130.37,170.85,19.46,22.39,40.1,51.64,37.22,83.06-3.61,39.3-41.4,70.58-68.65,94.6-50.56,44.55-167.9,110.31-126.49,192.55,46.57,92.51,175.55,132.64,195.42,239.8"
                    style="fill:none;stroke:#fff;stroke-miterlimit:10;stroke-width:1.5138588059301954px" />
                <path
                    d="M1566.54-61.9c3.86,38.07,21.63,67.44,28,104,6.32,36,7,59.55,35.82,86,29.4,26.89,66.82,43.32,99.18,66.16,162,114.34-115.69,229.06-115.95,351-.16,72.24,90.17,125.49,132,174.07,19.5,22.64,40.55,52.2,37.63,83.87-3.62,39.35-41.6,70.58-68.94,94.53-50.67,44.38-168.69,110.06-127.09,192.41,46.78,92.62,176.39,132.64,196.31,240"
                    style="fill:none;stroke:#fff;stroke-miterlimit:10;stroke-width:1.5138588059301954px" />
            </g>
        </g>
    </g>
</svg>