<svg id="Layer_1" data-name="Layer 1" xmlns="http://www.w3.org/2000/svg" xmlns:xlink="http://www.w3.org/1999/xlink" viewBox="0 0 2995.85 2417.39"><defs><clipPath id="clip-path" transform="translate(662.09 676.96)"><path d="M1539.39,24.29V1058.45h-244.7V429.28H1092.06L1294.69,51.74l14.71-27.45Zm-365.64,636.2L787.21,24.29H45V266.08H542.51v136H45v241.7H542.51V816.66H45v241.79H787.21V445.58L930.55,660.49Z" style="fill:none;opacity:0.47000000000000003"/></clipPath></defs><g id="logo"><g style="clip-path:url(#clip-path)"><g id="line"><path d="M-658-676.8q-.19,327.81,0,655.61,0,141,0,282c0,89.45-6.82,182,.36,271.12,5.65,70.2,53.09,133.4,92.79,189,49.6,69.39,104.13,135.29,151.5,206.27,29.65,44.41,78.89,111.33,64.93,169.21-11.91,49.38-66.94,74.7-108.86,93.12-52.87,23.23-113.54,39.17-159.72,75.3-46.64,36.49-41,83.37-41,137v338.45" transform="translate(662.09 676.96)" style="fill:none;stroke:#fff;stroke-miterlimit:10;stroke-width:2.291412047582297px"/><path d="M-626.86-676.8c-3,218.53,2.93,437.13.09,655.71-1.22,93.94-.09,187.9-.09,281.85,0,89.57-6.5,181.92.29,271.21,5.38,70.6,52.58,133.28,92.89,188.81,49.95,68.79,105,133.9,152.67,204.36,29.95,44.28,79,111.16,64.95,169.17-12,49.38-67.38,74.92-109.2,93.68-53.26,23.89-114.33,40.6-160.89,77.21s-40.71,82.92-40.71,136.56v338.45" transform="translate(662.09 676.96)" style="fill:none;stroke:#fff;stroke-miterlimit:10;stroke-width:2.291412047582297px"/><path d="M-595.71-676.8C-600-457.74-587.1-239.26-594.45-20c-3.13,93.53-1.26,187.16-1.26,280.73,0,89.62-6.37,181.9.26,271.26,5.25,70.68,52.64,132.6,93.61,187.64,50.52,67.86,106.29,131.84,154.45,201.45,30.41,44,79.52,110.29,65.42,168.39-12,49.67-68.31,75.93-110.17,95.28C-446,1209.7-507.73,1227.55-554.88,1265c-46.52,37-40.83,82.76-40.83,136.75v338.45" transform="translate(662.09 676.96)" style="fill:none;stroke:#fff;stroke-miterlimit:10;stroke-width:2.291412047582297px"/><path d="M-564.56-676.8c-2.39,121.87,12.53,243,13.62,364.72.88,98.5-4.23,195.85-10.28,294.09-5.7,92.81-3.34,185.81-3.34,278.75,0,89.61-6.4,181.93.26,271.27,5.25,70.49,53.19,131.44,94.86,185.6,51.26,66.64,107.87,129.21,156.74,197.7,31,43.48,80.32,108.81,66.29,167-12.11,50.22-69.65,77.62-111.7,97.78-54.76,26.25-117.25,45.54-165.14,84.16-46.67,37.63-41.31,82.88-41.31,137.52v338.45" transform="translate(662.09 676.96)" style="fill:none;stroke:#fff;stroke-miterlimit:10;stroke-width:2.291412047582297px"/><path d="M-533.41-676.8c-1.77,124.88,19.32,248.23,22.17,372.87,2.22,97.28-6.62,192-16,288.65-8.91,91.81-6.18,183.91-6.18,276,0,89.56-6.57,182,.27,271.26,5.37,70.08,54.18,129.88,96.55,182.82C-384.42,780-326.86,841-277.11,908.08c31.77,42.85,81.38,106.83,67.48,165-12.18,51-71.35,79.89-113.68,101-55.77,27.84-119.26,48.83-168,88.87-46.92,38.52-42.07,83.26-42.07,138.77v338.45" transform="translate(662.09 676.96)" style="fill:none;stroke:#fff;stroke-miterlimit:10;stroke-width:2.291412047582297px"/><path d="M-502.25-676.8c-.62,128.44,27,254.34,32.12,382.37,3.86,96.18-9.24,187.62-22.51,282.43-12.68,90.58-9.61,181.53-9.61,272.76,0,89.47-6.87,182.05.28,271.22,5.58,69.5,55.53,128,98.61,179.47,53.2,63.54,111.78,122.63,162.56,188.2,32.61,42.12,82.65,104.43,68.93,162.67-12.24,51.91-73.33,82.61-116,104.85-56.92,29.63-121.52,52.53-171.29,94.19-47.25,39.56-43.06,83.84-43.06,140.4v338.45" transform="translate(662.09 676.96)" style="fill:none;stroke:#fff;stroke-miterlimit:10;stroke-width:2.291412047582297px"/><path d="M-471.1-676.8c1,132.43,35.32,261.08,43.15,392.88,5.66,95.36-11.95,182.74-29.65,275.63-17,89.13-13.5,178.73-13.5,269.05,0,89.35-7.24,182.16.32,271.17,5.85,68.82,57.16,125.89,100.93,175.67,54.31,61.76,114,118.87,165.89,182.75,33.54,41.27,84.08,101.7,70.57,160-12.28,53-75.51,85.7-118.65,109.13-58.16,31.58-124,56.53-174.83,100-47.63,40.71-44.23,84.6-44.23,142.31v338.45" transform="translate(662.09 676.96)" style="fill:none;stroke:#fff;stroke-miterlimit:10;stroke-width:2.291412047582297px"/><path d="M-439.95-676.8c2.91,136.73,44.06,268.23,54.87,404.07,7.57,95-14.57,177.51-37.18,268.43C-444,83.18-439.95,171.31-439.95,260.76c0,89.19-7.68,182.3.36,271.1,6.17,68.07,59,123.63,103.43,171.59,55.49,59.89,116.29,114.92,169.4,177,34.51,40.35,85.62,98.76,72.34,157.1-12.32,54.1-77.85,89-121.45,113.7-59.47,33.64-126.56,60.73-178.56,106.08-48,41.9-45.52,85.49-45.52,144.41v338.45" transform="translate(662.09 676.96)" style="fill:none;stroke:#fff;stroke-miterlimit:10;stroke-width:2.291412047582297px"/><path d="M-408.8-676.8c5.05,141.19,53,275.58,66.94,415.58,9.5,95.18-17,172.12-44.91,261.06-26.88,85.58-22,172.27-22,260.92,0,89-8.16,182.46.41,271,6.52,67.3,60.94,121.29,106,167.37,56.7,58,118.64,110.88,173,171.15,35.52,39.38,87.22,95.68,74.17,154.1-12.34,55.28-80.26,92.51-124.34,118.42-60.79,35.74-129.2,65-182.38,112.33-48.44,43.1-46.86,86.45-46.86,146.6v338.45" transform="translate(662.09 676.96)" style="fill:none;stroke:#fff;stroke-miterlimit:10;stroke-width:2.291412047582297px"/><path d="M-377.64-676.8c7.24,145.68,61.84,282.92,79,427.08,11.42,95.9-19.06,166.8-52.63,253.69-32.25,83.44-26.36,168.89-26.36,256.79,0,88.82-8.66,182.64.45,271,6.86,66.56,62.92,118.95,108.59,163.15,57.91,56,121,106.84,176.58,165.28,36.53,38.39,88.81,92.6,76,151.11-12.36,56.45-82.68,96-127.22,123.14-62.13,37.84-131.84,69.3-186.21,118.57-48.83,44.26-48.19,87.46-48.19,148.79v338.45" transform="translate(662.09 676.96)" style="fill:none;stroke:#fff;stroke-miterlimit:10;stroke-width:2.291412047582297px"/><path d="M-346.49-676.8c9.36,150.07,70.43,290,90.69,438.23C-242.54-141.5-276.59-76.75-316,8c-37.66,81-30.53,165.6-30.53,252.81,0,88.62-9.13,182.83.49,270.89,7.2,65.9,64.85,116.71,111.08,159.09,59.09,54.17,123.26,102.9,180.08,159.56,36.72,36.6,91.55,90.31,77.76,148.23s-84,98.77-130,127.7c-63.41,39.89-134.39,73.47-189.92,124.65-49.2,45.35-49.48,88.44-49.48,150.88v338.45" transform="translate(662.09 676.96)" style="fill:none;stroke:#fff;stroke-miterlimit:10;stroke-width:2.291412047582297px"/><path d="M-315.34-676.8c11.26,154.23,78.53,296.65,101.65,448.69,15,98.57-22.18,157.38-67.25,239.75-42.91,78.41-34.4,162.57-34.4,249.12,0,88.44-9.54,183,.53,270.84,7.48,65.34,66.62,114.62,113.38,155.31C-141.21,739.31-76,786.07-18,841c37.49,35.55,93.2,87.6,79.39,145.57-14.09,59.11-86,101.81-132.62,132C-135.87,1160.4-208.06,1196-264.7,1249c-49.52,46.32-50.64,89.33-50.64,152.77v338.45" transform="translate(662.09 676.96)" style="fill:none;stroke:#fff;stroke-miterlimit:10;stroke-width:2.291412047582297px"/><path d="M-284.19-676.8c12.76,158,85.91,302.62,111.54,458.12C-156.12-118.44-195.93-65-246.38,14.89c-47.77,75.68-37.81,160-37.81,245.87,0,88.3-9.86,183.15.55,270.8,7.71,65,68.14,112.8,115.42,152C-107,734.32-40.79,779.25,18.25,832.68c38.2,34.59,94.67,85.17,80.82,143.23C84.74,1036,11.2,1080.43-35.87,1111.67c-65.74,43.61-139,81.06-196.7,135.71-49.77,47.17-51.62,90.09-51.62,154.38v338.45" transform="translate(662.09 676.96)" style="fill:none;stroke:#fff;stroke-miterlimit:10;stroke-width:2.291412047582297px"/><path d="M-253-676.8c13.7,161.36,92.35,307.69,120,466.18,17.78,101.94-24.13,150.67-79.39,228.17-52,73-40.59,158-40.59,243.21,0,88.22-10.06,183.25.55,270.79,7.85,64.74,69.29,111.31,117.09,149.26,62.16,49.33,129.21,92.6,189.18,144.7,38.86,33.76,95.86,83.11,82,141.32-14.52,60.93-89.45,106.81-136.9,138.95-66.71,45.19-140.95,84.28-199.55,140.38-50,47.85-52.36,90.63-52.36,155.6v338.45" transform="translate(662.09 676.96)" style="fill:none;stroke:#fff;stroke-miterlimit:10;stroke-width:2.291412047582297px"/><path d="M-221.88-676.8C-208-512.74-124.21-365.16-95.24-204.28c18.65,103.55-24.72,148.44-84,223.76C-234.75,90-221.88,176.17-221.88,260.76c0,88.21-10.09,183.28.54,270.81,7.87,64.77,70,110.25,118.32,147.26,62.91,48.14,130.72,90,191.44,141,39.42,33.11,96.74,81.55,82.84,139.93-14.65,61.52-90.72,108.56-138.4,141.4-67.52,46.5-142.54,87-201.92,144.26-50.08,48.33-52.82,90.91-52.82,156.34v338.45" transform="translate(662.09 676.96)" style="fill:none;stroke:#fff;stroke-miterlimit:10;stroke-width:2.291412047582297px"/><path d="M-190.73-676.8C-177.54-510.8-89.09-362.54-59.58-200c9,49.73,10.36,95.2-16.8,139.36-19,30.89-47.37,53.75-70.61,81.16-58,68.39-43.74,156.31-43.74,240.22,0,88.29-9.92,183.22.51,270.86,7.75,65.06,70,109.71,119,146.15C-7.74,725,60.69,765.71,122,815.92c39.9,32.69,97.22,80.61,83.29,139.19-14.69,61.84-91.6,109.66-139.33,142.94-68.13,47.5-143.74,89-203.73,147.21-50.09,48.59-52.92,90.86-52.92,156.5v338.45" transform="translate(662.09 676.96)" style="fill:none;stroke:#fff;stroke-miterlimit:10;stroke-width:2.291412047582297px"/><path d="M-159.58-676.8c11.47,167,104,315.33,133.12,478.7C-17.7-149-15.88-102.31-43.34-58.86c-19.4,30.69-48.61,52.6-72.45,79.48-59.32,66.87-43.83,156.94-43.81,240.15,0,88.47-9.51,183.08.49,270.93C-151.64,597.31-89.66,641.47-40,677.76,23.77,724.44,92.64,764.34,154.2,814.11c40.24,32.54,97.25,80.39,83.31,139.19-14.67,61.83-92,110-139.64,143.43-68.48,48.12-144.43,90.31-204.8,149-50,48.6-52.65,90.43-52.65,156v338.45" transform="translate(662.09 676.96)" style="fill:none;stroke:#fff;stroke-miterlimit:10;stroke-width:2.291412047582297px"/><path d="M-128.42-676.8c13.25,165.93,101.47,314.17,131,476.67,9,49.6,11.27,95.09-16.2,139.07-19.74,31.61-49.3,54.8-73.45,82.72-58.43,67.55-45.44,156.73-44,240.41,1.47,87.94-6.46,182.35,3.43,269.5,7.35,64.75,70.2,109.93,118.75,146.22,63,47.09,130.92,87.73,191.73,137.78,39.59,32.58,97.39,80.93,83.26,139.21-14.93,61.54-91.43,109.56-138.92,143-67.66,47.66-142.63,89.47-202.27,147.58-49.95,48.68-53.27,90.66-53.27,156.38v338.45" transform="translate(662.09 676.96)" style="fill:none;stroke:#fff;stroke-miterlimit:10;stroke-width:2.291412047582297px"/><path d="M-97.27-676.8C-83.35-512.86.17-365.32,29.09-204.54c9.08,50.43,11.17,95-16.26,139.82C-7.42-31.62-37.52-6.54-62.17,23c-57.78,69.27-47.2,156.72-43.4,241.77,3.9,87.38-.64,180.2,9.16,266.71,7.27,64.15,69.54,110.29,117.14,147.12C82.46,726.38,149,768,208.61,818.55c38.88,33,96.34,82,82.24,139.79-14.89,61-89.7,108.51-136.81,141.84-66.35,46.93-139.91,88.08-198.29,145.34-49.54,48.6-53,90.8-53,156.24v338.45" transform="translate(662.09 676.96)" style="fill:none;stroke:#fff;stroke-miterlimit:10;stroke-width:2.291412047582297px"/><path d="M-66.12-676.8C-52.44-515.59,26-369.34,53.49-211,72.61-101.1,23.11-55-40.5,24.64c-57.28,71.75-49.27,157.05-42,244.07,3.61,43.4,9,86.63,12.67,130,3.72,43.83-.28,89.35,4.64,132.75C-58,595.26,2.47,642.29,49.2,680.12c60.07,48.65,125,91.41,182.9,142.74,38.08,33.74,94.27,83.52,80.37,140.83-14.6,60.18-87,106.92-133.51,140-64.62,46-136.38,86.24-193.07,142.43-48.81,48.37-52,90.84-52,155.66v338.45" transform="translate(662.09 676.96)" style="fill:none;stroke:#fff;stroke-miterlimit:10;stroke-width:2.291412047582297px"/><path d="M-35-676.8C-22.27-518.94,50.6-374.46,76.12-219.12c8.67,52.8,9.07,96.4-18.2,143.52C36.21-38.1,4.58-7.8-21.52,26.47c-56.91,74.74-51.83,157.82-40,247.18C-56,316.05-48,358.09-42.3,400.48c5.88,43.72,3.28,87.57,8.2,131C-26.89,595.14,30.79,643,76.66,682.2c58.09,49.7,121.06,93.8,177,146.06C290.82,863,345,913.65,331.43,970.54c-14.09,59.18-83.56,104.87-129.21,137.57C139.67,1152.92,70,1192.11,15.39,1247c-47.79,48-50.35,90.85-50.35,154.74v338.45" transform="translate(662.09 676.96)" style="fill:none;stroke:#fff;stroke-miterlimit:10;stroke-width:2.291412047582297px"/><path d="M-3.81-676.8c11.17,154,78.14,296.34,101.13,448.2C114.63-114.31,58.13-58.06-4.7,28.49c-56.62,78-55,159.13-37.55,250.9,7.86,41.3,18.7,82,26.68,123.23C-7.17,446.08-8,488-3,531.55c7.23,63.68,61.38,112.19,106.36,153.18,55.86,50.9,116.65,96.47,170.31,149.8,36.19,36,87.74,87.53,74.66,144.05-13.42,58-79.48,102.46-124.13,134.71-60.2,43.49-127.47,81.46-179.76,134.94-46.53,47.6-48.2,90.81-48.2,153.53v338.45" transform="translate(662.09 676.96)" style="fill:none;stroke:#fff;stroke-miterlimit:10;stroke-width:2.291412047582297px"/><path d="M27.34-676.8c9.26,149.86,70,289.67,90.13,437.69,15.89,117-44.37,179.44-107,269.75C-45.88,112-48.41,191.76-24.19,285.74-2.56,369.69,18.11,445.43,28,531.63c7.29,63.87,57.4,113,101.41,156C182.79,739.8,241.24,787,292.44,841.46c35.08,37.35,83.59,89.83,71.1,146-12.61,56.72-74.94,99.78-118.46,131.52-57.64,42-122.34,78.7-172.07,130.63-45.06,47-45.67,90.75-45.67,152.1v338.45" transform="translate(662.09 676.96)" style="fill:none;stroke:#fff;stroke-miterlimit:10;stroke-width:2.291412047582297px"/><path d="M58.49-676.8c7.14,145.46,61.41,282.56,78.41,426.52,14.17,119.9-49.74,189-112.28,283.15C-31.51,117.42-38.87,196.73-7,292.5,20.44,374.74,48.93,445,58.92,531.73c7.39,64.18,53.16,113.75,96.09,159,50.88,53.58,106.85,102.39,155.46,158.14,34.42,39.47,78.27,91.66,67.27,148.2-10.71,55-70.74,97.4-112.39,128.11-55,40.54-117,75.79-164,126.08-43.43,46.45-42.89,90.71-42.89,150.54v338.45" transform="translate(662.09 676.96)" style="fill:none;stroke:#fff;stroke-miterlimit:10;stroke-width:2.291412047582297px"/><path d="M89.65-676.8c4.93,141,52.53,275.22,66.34,415C168.15-138.72,100.88-63,38.21,35.15c-55.88,87.56-68.67,167.38-28.36,264.3,33.28,80,69.81,145,80,232.38C105.19,662.93,250.36,760,328.12,856.42c32.9,40.81,74,94.23,63.29,150.43-10.2,53.71-65.45,94.22-106.11,124.59-52.2,39-111.43,72.81-155.68,121.41-41.68,45.79-40,90.68-40,148.91v338.45" transform="translate(662.09 676.96)" style="fill:none;stroke:#fff;stroke-miterlimit:10;stroke-width:2.291412047582297px"/><path d="M120.8-676.8c2.81,136.51,43.62,267.88,54.28,403.51C185-146.9,114.79-64.83,51.82,37.42-3.79,127.71-22.44,209,26.68,306.39c39,77.3,83.65,137.42,94.14,225.55,15.76,132.47,149.57,230.67,225,332.06,31.35,42.16,69.64,96.73,59.32,152.66-9.66,52.37-60.21,91.06-99.85,121.07-49.44,37.45-105.91,69.85-147.38,116.76-39.88,45.09-37.07,90.68-37.07,147.27v338.45" transform="translate(662.09 676.96)" style="fill:none;stroke:#fff;stroke-miterlimit:10;stroke-width:2.291412047582297px"/><path d="M152-676.8c.9,132.23,34.9,260.74,42.59,392.35C202.12-154.67,129.42-66.65,66,39.65c-55.29,92.64-80,176.4-22,273.48C88.25,387.37,141,443.07,151.78,532,168,665.77,291.1,765.25,363.84,871.36c29.81,43.48,65.43,99.07,55.49,154.81-9.1,51-55.2,88-93.79,117.67-46.76,35.93-100.51,67-139.3,112.21-38.08,44.41-34.29,90.71-34.29,145.71v338.45" transform="translate(662.09 676.96)" style="fill:none;stroke:#fff;stroke-miterlimit:10;stroke-width:2.291412047582297px"/><path d="M183.1-676.8c-.68,128.25,26.6,254,31.62,381.88C219.93-161.8,145.26-68.44,81.22,41.8,26.27,136.39-4.41,223.28,62,319.46c49.07,71.06,109.63,122.78,120.76,212.65,16.69,134.78,130,235.79,199.9,346.16C411,923,444.2,979.44,434.64,1035.07c-8.55,49.69-50.59,85.19-88.13,114.49-44.23,34.52-95.38,64.27-131.64,107.91s-31.77,90.76-31.77,144.29v338.45" transform="translate(662.09 676.96)" style="fill:none;stroke:#fff;stroke-miterlimit:10;stroke-width:2.291412047582297px"/><path d="M214.26-676.8c-1.82,124.72,19,247.95,21.71,372.44C239-168.1,162.78-70.11,98.11,43.8,43.54,139.92,7.21,230.36,81.38,325.18c53.2,68,121,116.09,132.46,207C230.9,667.68,335.77,770.52,402.72,884.52c26.92,45.83,58,103,48.83,158.55-8,48.43-46.54,82.69-83.07,111.65-41.91,33.22-90.64,61.8-124.6,104-34.82,43.22-29.62,90.84-29.62,143.09v338.45" transform="translate(662.09 676.96)" style="fill:none;stroke:#fff;stroke-miterlimit:10;stroke-width:2.291412047582297px"/><path d="M245.41-676.8c-2.4,121.74,12.22,242.73,13.24,364.36,1.16,139.07-76.19,240.88-141.48,358.08C63.06,142.77,21.6,236.92,102.42,330.09c56.69,65.34,130.81,110,142.53,202.09,17.31,135.9,115.27,240.88,179.37,357.7,25.65,46.74,55.21,104.48,46.28,160-7.59,47.27-43.23,80.62-78.81,109.25-39.73,32-86.82,59.52-118.38,100.46-33.31,43.2-28,90.63-28,142.18v338.45" transform="translate(662.09 676.96)" style="fill:none;stroke:#fff;stroke-miterlimit:10;stroke-width:2.291412047582297px"/><path d="M276.56-676.8c-2.34,119.44,6.65,238.59,6.56,358C283-177.43,204.77-72.65,139,47.25,85.39,144.83,39.49,242.57,125.56,334c59.61,63.31,138.67,104.78,150.59,198.19C293.5,668,386.37,775.42,447.9,894.14c24.55,47.39,53.15,105.61,44.43,161-7.28,46.28-40.81,79.09-75.55,107.42-37.77,30.81-84,57.57-113.21,97.56-31.92,43.68-27,90.15-27,141.62v338.45" transform="translate(662.09 676.96)" style="fill:none;stroke:#fff;stroke-miterlimit:10;stroke-width:2.291412047582297px"/><path d="M307.71-676.8c-1.56,117.91,2.48,235.76,2,353.66C309.19-180.07,230.18-73.27,164,48.59c-52.88,97.37-102.39,198.35-12.8,288,62,62.1,144.21,100.44,156.24,195.44,17.16,135.41,107,245.39,166.38,365,23.69,47.71,52.07,106.34,43.44,161.57-7.13,45.62-39.49,78-73.49,106.27-36.49,30.33-81.06,56.23-109.28,95.34-31.47,43.61-26.79,90.31-26.79,141.5v338.45" transform="translate(662.09 676.96)" style="fill:none;stroke:#fff;stroke-miterlimit:10;stroke-width:2.291412047582297px"/><path d="M338.87-676.8q.08,175.88,0,351.73c0,144-79.68,251.76-146,374.67-52,96.45-104.19,200.06-13,288.28,64,61.95,147,97.27,159,194.07,16.74,134.43,105.8,247.1,163.66,366.5C525.64,946.14,554.64,1005.09,546,1060c-7.18,45.4-39.45,77.39-72.82,105.89-35.6,30.4-79,55.36-106.82,94-31.52,43.79-27.44,90.44-27.44,141.84v338.45" transform="translate(662.09 676.96)" style="fill:none;stroke:#fff;stroke-miterlimit:10;stroke-width:2.291412047582297px"/><path d="M371-674.45c3.48,117.29-5.7,234.29-4.71,351.56,1.19,140.9-76.87,250.18-140,371.49-50.94,97.84-101.77,198.48-12.4,288.16,61.66,61.88,140.71,98.93,153.66,193.2,18.6,135.29,106.4,244.84,165.67,364.84,23.48,47.54,52.26,106.26,43.07,161.21-7.49,44.76-40,78.17-72.58,107-35.48,31.36-78.25,58.69-105.94,97.93C366.58,1305,370,1350.19,370,1401.76v338.45" transform="translate(662.09 676.96)" style="fill:none;stroke:#fff;stroke-miterlimit:10;stroke-width:2.291412047582297px"/><path d="M404.72-667.94c5.06,117.66-15.06,233.75-15,351.21.12,136.79-70.56,244.62-129.25,364.47-47.77,97.54-95.1,195.28-11.09,285.31,58,62.15,129.91,100.33,142.91,191.3,19.33,135.38,108.42,242.21,169.29,361.44,24.19,47.36,52.79,105.29,43.53,160.38-7.53,44.88-40.1,80.1-71.84,110.26-35.14,33.38-77.14,63.47-104.57,104.11-30.3,44.9-27.58,89.2-27.58,141.22v338.45" transform="translate(662.09 676.96)" style="fill:none;stroke:#fff;stroke-miterlimit:10;stroke-width:2.291412047582297px"/><path d="M439.9-657.84c5.11,119.66-28.29,235-30,354.14C408-176.88,350.39-74.07,299,39.56,255.42,135.76,209.78,234,284.8,325.4c51.25,62.45,119.7,102.61,129.77,190,15,130.27,106,233.89,167.65,345.69,26.71,48.45,58.09,106.36,51.68,163.68-5.21,46.5-36.35,84.58-67.26,117.47-35,37.27-75.49,70.51-104.53,113-31,45.43-29.79,90-29.79,143.23v341.78" transform="translate(662.09 676.96)" style="fill:none;stroke:#fff;stroke-miterlimit:10;stroke-width:2.291412047582297px"/><path d="M476.29-644.77c3.77,121.16-43.72,233.54-49.12,353.48C421.75-171,378-71.87,334.23,39.33c-36.83,93.53-74.92,188.59-11,278.32C369.11,382,420.74,421.28,433.48,504.07c20,130.34,108.79,228.31,173.68,339.76,27.84,47.82,59.56,104.43,53.64,161.82-4.93,47.71-35.9,88.38-65.84,123.83-34.31,40.61-73.89,77.66-102.32,122.92-29.59,47.11-29.16,92-29.16,146v341.78" transform="translate(662.09 676.96)" style="fill:none;stroke:#fff;stroke-miterlimit:10;stroke-width:2.291412047582297px"/><path d="M513.62-629.32c1.22,120.14-57.23,225.26-70.63,342.74-6.52,57.16-7.2,110-22.47,166.45C405.33-64,385.27-9.39,367.81,46c-28.72,91.16-54.82,180.76-1.92,267.67C403.21,375,440.3,416.91,449.74,491c16.52,129.73,117.53,228.21,183.15,336.16,26.82,44.14,56.9,95.4,54.54,149-2.19,49.82-31.76,94.23-60.47,132.92-33.5,45.15-72.68,86.7-101.41,135.27s-30.92,95.55-30.92,150.66v345.17" transform="translate(662.09 676.96)" style="fill:none;stroke:#fff;stroke-miterlimit:10;stroke-width:2.291412047582297px"/><path d="M551.67-612.08c-2.22,124.13-76.76,225.18-95.45,345.35-8.43,54.23-7.6,109.06-18.13,163.41C428-51.24,414.59.12,403.26,51.93c-18.5,84.48-34.67,167.61,1.17,249.49,26.47,60.44,54.44,106.46,60.72,174.43C477,604.38,591.43,704.74,658.34,808.25c28.35,43.85,57,93,53.94,147-3,52.78-33.66,100.33-62.13,143-30.43,45.61-65.31,88.64-91.84,136.78-28.83,52.33-32.53,98-32.53,156.58v348.64" transform="translate(662.09 676.96)" style="fill:none;stroke:#fff;stroke-miterlimit:10;stroke-width:2.291412047582297px"/><path d="M590.19-593.65c-6.36,127.45-95.81,222.78-121.44,344.46C458-198,461.32-143.34,456.48-91.22,452.07-43.76,446.1,3.53,441.19,50.94c-8.28,79.92-17.35,160.51,3.22,239.29,15.17,58.11,27.8,109.61,34.63,169.71C493.56,587.7,610.91,683.25,680.68,784c29.71,42.91,59.1,90.6,56.78,144.5-2.35,54.82-32.77,106.34-60.06,152.17-29.55,49.64-63.41,97-89.14,148.89-27,54.51-31.33,102.06-31.33,162v348.64" transform="translate(662.09 676.96)" style="fill:none;stroke:#fff;stroke-miterlimit:10;stroke-width:2.291412047582297px"/><path d="M629-574.63c-11.27,132.29-117.62,222.1-149.16,347-21.39,84.76-3.82,185.65-.7,272.34,4.77,132.79,3.05,266.49,13.61,399,9.54,119.8,133.71,215.72,202.26,305.1,34.45,44.91,71.75,97.35,67.66,156.7-4,58.13-34.77,114.34-61.91,164.37C642.92,1176.45,588.09,1264,588.09,1388v352.17" transform="translate(662.09 676.96)" style="fill:none;stroke:#fff;stroke-miterlimit:10;stroke-width:2.291412047582297px"/><path d="M667.71-555.61C651.13-418.3,527.78-334.53,490.48-205.93,467.71-127.39,499-37.74,515.37,39.52c16.3,77.11,21.15,152.77,9,230.86-8,51-22.65,104.77-18.62,156.73C515,546.78,649.39,640.93,719.17,727.48,751.82,768,788.31,815.23,788,870c-.3,60.48-30.61,121.36-56.24,174.57-30.88,64.11-66.91,126.35-91.36,193.36-19.71,54-21.19,103.66-21.19,160.52v341.74" transform="translate(662.09 676.96)" style="fill:none;stroke:#fff;stroke-miterlimit:10;stroke-width:2.291412047582297px"/><path d="M706.23-537.19c-22,142.61-162.32,219.58-204.83,352.41-25.62,80.1,22.35,157.29,52.18,228.7,29.24,70,38.36,141.51,10.58,213.6C544.53,308.45,518,354.4,520.49,411.4c2.37,53.38,39.45,98.3,73.29,136.88,48.1,54.82,103.15,103.17,150.67,158.52,35.32,41.13,68.62,85.55,68.11,141.62-.54,58.15-27.23,117.62-49.8,170.12-54.55,126.89-112.37,235.75-112.37,376.38v345.29" transform="translate(662.09 676.96)" style="fill:none;stroke:#fff;stroke-miterlimit:10;stroke-width:2.291412047582297px"/><path d="M744.27-520c-26.74,146.59-180.59,216.6-229.75,351.55C484-84.53,547.62-20.51,590.47,43.4S645.22,179.3,603.33,247C573.07,296,533.9,333.86,535.72,396.51c1.53,52.72,41.69,97.46,75.92,134.11,49.79,53.3,106.47,99.75,155.68,153.6C804,724.31,838,767.32,838.14,823.5c.11,60.22-26.38,122.92-48,178.08-51.87,132.26-108.59,249.06-108.59,393.34v345.29" transform="translate(662.09 676.96)" style="fill:none;stroke:#fff;stroke-miterlimit:10;stroke-width:2.291412047582297px"/><path d="M781.6-504.54C750.44-352.61,580.32-289.93,527.89-150.06,494.47-60.92,578-8.92,630.33,46.25c52.83,55.71,63.61,129.11,12.78,190.19-37.71,45.3-94,78.64-91.79,146.59,1.9,58,55.37,108.68,93.71,145.77,44.51,43.05,92.92,81.94,136.75,125.7,41.38,41.33,85.37,89.26,82.73,151.46-2.76,64.84-28.34,129.7-50.26,190C766.16,1128.25,712.7,1248.78,712.7,1391.3v348.91" transform="translate(662.09 676.96)" style="fill:none;stroke:#fff;stroke-miterlimit:10;stroke-width:2.291412047582297px"/><path d="M818-491.5C784.14-335.82,601.84-279.76,544.92-137.68c-38,94.85,62.54,136.2,121.94,182.83C730,94.69,740.65,171.15,681,228.62,637.12,271,568.43,298.74,570.26,371.77c1.44,57.77,57.41,107.91,96.08,143.45,45.67,42,95.24,79.55,140.24,122.27,42.5,40.35,87.28,87,84.84,149.48-2.6,66.68-27.68,133.76-48.84,196.32-46.1,136.23-98.73,262.58-98.73,408v348.91" transform="translate(662.09 676.96)" style="fill:none;stroke:#fff;stroke-miterlimit:10;stroke-width:2.291412047582297px"/><path d="M853.14-481.45c-34,154.65-217,207.09-282.53,342.87C520.28-34.22,626.94-.21,698,41.56c72,42.35,89.81,123.22,21.41,179.62C669,262.74,592.5,284.24,593.27,363.26c.52,53.51,48.07,97.66,84.84,131.2,55.23,50.39,117.47,92.77,171.11,144.94,34.6,33.65,69.61,73.07,70.41,123.88,1.17,74.11-29,151.06-51.46,220.53C822.79,1123.89,775,1253.44,775,1402.06v338.15" transform="translate(662.09 676.96)" style="fill:none;stroke:#fff;stroke-miterlimit:10;stroke-width:2.291412047582297px"/><path d="M886.88-475c-32.59,157.66-226,205.32-292.71,342.52C540.72-22.61,657.67,4.35,732.29,40.68,809.15,78.1,828,163.5,755,217.49c-53.76,39.77-138.07,57.56-136.79,140.21.84,54,48.2,97.2,85.79,130.45,56.1,49.6,119.31,90.81,173.8,142.29,35.18,33.25,70.33,72.22,70.89,123.24.82,75-28.89,152.92-50.77,223.63-43.92,141.89-91.72,274.92-91.72,424.75v338.15" transform="translate(662.09 676.96)" style="fill:none;stroke:#fff;stroke-miterlimit:10;stroke-width:2.291412047582297px"/><path d="M919-472.69c-28.48,160.22-231.55,203.9-297.3,342.36-54.6,115,66.2,136.45,144,170,78.76,34,97.89,124.8,23.27,176.75-56.25,39.16-144.61,53.42-142.09,139.34,1.61,54.82,47.37,97,86.05,130.53,56.63,49.14,120.57,89.47,175.55,140.58C944,660,979,698.8,979,750.1c.07,75.25-29.21,153.15-50.61,224.35-42.79,142.43-91.07,277.62-91.07,427.61v338.15" transform="translate(662.09 676.96)" style="fill:none;stroke:#fff;stroke-miterlimit:10;stroke-width:2.291412047582297px"/><path d="M949.19-475c-31.49,158.37-227.48,205-294,342.55C601.91-22.17,719.77,4.75,794.58,41.24c76.67,37.39,96.23,123,22.7,176.88-53.8,39.43-138.64,56.72-136.67,139.61,1.27,53.68,48.45,97.26,85.82,130.51C821.58,537.31,883.75,578.12,937.31,629c34.93,33.2,70.35,72.72,71.29,123.51C1010,827.28,979.7,905.6,957.85,976c-43.76,140.91-92.34,274.28-92.45,423.29-.08,113.68,5.2,227.25,3.06,340.94" transform="translate(662.09 676.96)" style="fill:none;stroke:#fff;stroke-miterlimit:10;stroke-width:2.291412047582297px"/><path d="M977.75-481.45c-32.53,156.23-221,206.39-286.6,343C640.52-33,750.42,1.33,821.92,43.35c71.72,42.16,92.07,123.53,22.14,179.8-50.65,40.75-127.67,60.76-126,140.17,1.14,52.66,47.49,97.09,83.55,130.59C854.44,543,914.09,584.28,965.34,635c33.86,33.52,68.59,73.65,69.95,123.74,2,73.47-28.92,150.81-51.38,219.54-45.06,137.9-95.16,268.1-93.88,415,1,115.77,12.77,231.06,9.58,346.91" transform="translate(662.09 676.96)" style="fill:none;stroke:#fff;stroke-miterlimit:10;stroke-width:2.291412047582297px"/><path d="M1004.88-491.5c-32.62,158.39-223.79,210.25-281.33,354C684.78-40.6,791.66,2.05,852.19,48.9c63.15,48.88,78,126.36,15.92,183.59-44.63,41.11-112.94,65.76-110.94,139.28,1.51,55.5,55,106.26,91.67,141.17,42,40,87.72,75.82,129,116.5,40.66,40,83.13,87.29,81.25,147.84-2,65.82-27.5,132.54-48.67,194.11-45.78,133.17-101,259.31-98.91,402.32,1.78,122.52,22.56,243.77,19.23,366.5" transform="translate(662.09 676.96)" style="fill:none;stroke:#fff;stroke-miterlimit:10;stroke-width:2.291412047582297px"/><path d="M1030.82-504.54C1000.12-348.79,817.76-292,763.49-149.72c-35.28,92.48,58.23,146.83,113,202.09,53.83,54.34,70.43,129.58,16.13,190.36-38.91,43.55-94.09,72-92.05,140.3,3.14,104.77,140.77,190,205,258.37,38.4,40.88,77.7,88.82,75.61,148-2.24,63.51-28,127.35-49.93,186.14-47.67,127.73-105.62,247.93-100.78,387,4.4,126.55,33.85,250.67,31.44,377.67" transform="translate(662.09 676.96)" style="fill:none;stroke:#fff;stroke-miterlimit:10;stroke-width:2.291412047582297px"/><path d="M1055.8-520c-27.28,151.44-196.71,214.28-249.54,352.05C772.24-79.19,849-12,896.57,52c45.78,61.58,64.94,136.49,18.66,204-31.82,46.41-69.74,78.31-67.82,140.56,3.31,107.55,130.54,192,193,267.86,32.42,39.35,60.67,82,60.9,134.24.26,58.67-25.73,119.43-47.52,172.84-51.32,125.79-115.28,242.22-106.19,381.84,8.45,129.93,46.15,256.1,45.44,386.87" transform="translate(662.09 676.96)" style="fill:none;stroke:#fff;stroke-miterlimit:10;stroke-width:2.291412047582297px"/><path d="M1080.07-537.19C1056.32-388.57,896.48-320.5,848.58-184.11,818.19-97.59,882-16.89,919.73,55.52c35.37,67.87,50.55,141.56,18.76,214.06-21,47.85-46.18,86.5-44.09,141.84,4,106.47,113.86,189.12,172.34,268.81,29.43,40.1,54.41,83.39,53.76,134.23-.71,56.17-26.29,112.55-49.15,162.8-54.13,119-120.82,226.51-108.25,361.74s59.43,264.79,61.12,401.21" transform="translate(662.09 676.96)" style="fill:none;stroke:#fff;stroke-miterlimit:10;stroke-width:2.291412047582297px"/><path d="M1103.85-555.61c-19.46,144.35-166.15,218-211,350.52-29,85.62,20.24,179.36,47.75,258.93C967,130.3,976.17,205.59,961.1,285.53c-8.82,46.74-22,93.34-19.26,141.58,5.88,104.25,95.68,184.27,148.88,267.08,25.4,39.54,49.34,83.78,48.79,132.21-.66,57.74-29.3,114.19-55.38,164.18-58,111.08-122.77,206.87-106.05,337.17,17.86,139.13,72.77,271.37,77.3,412.46" transform="translate(662.09 676.96)" style="fill:none;stroke:#fff;stroke-miterlimit:10;stroke-width:2.291412047582297px"/><path d="M1127.4-574.63c-15.23,140.29-148.9,219-190.22,348.06-29,90.6,10.15,199.69,27.67,289.36C989.16,187.3,984.39,317.23,991,443.72c5.31,101.41,77.16,180,124.52,265,59.53,106.83,41.94,192.54-19.31,293.79-58,95.84-122.64,179.55-106.17,297.26,20.89,149.35,88.57,288.89,96.48,440.45" transform="translate(662.09 676.96)" style="fill:none;stroke:#fff;stroke-miterlimit:10;stroke-width:2.291412047582297px"/><path d="M1150.94-593.65C1139.71-457.43,1018.92-374,981.31-248c-29.23,98-1,220.61,6.55,320.88,5.88,78.34-5.37,164,18.23,239.77,15.91,51.1,29.91,92.57,33.7,147.28,7.14,103.41,65.48,182.63,106.22,274.91,44,99.59,30.6,178.13-30.08,266.73-63.57,92.83-132.37,166.36-111.49,286.39,26.69,153.48,102.06,295.74,113.24,452.24" transform="translate(662.09 676.96)" style="fill:none;stroke:#fff;stroke-miterlimit:10;stroke-width:2.291412047582297px"/><path d="M1174.72-612.08c-7.9,133.59-118.48,221.66-150.81,346.74-13.91,53.81-9.31,114.26-10.66,169.55-1.39,57.64-2.14,115.29-3.3,172.94-1.6,80.37-21.16,175.89,18.61,250,28.15,52.49,54.93,85.53,59.64,148.67,7.55,101,50.64,181.68,83.64,275.93,34.09,97.41,25.34,174.11-39.46,255.15-68.35,85.45-137.05,147.37-113.65,265.62,31.49,159,115.58,305,130.1,467.66" transform="translate(662.09 676.96)" style="fill:none;stroke:#fff;stroke-miterlimit:10;stroke-width:2.291412047582297px"/><path d="M1199-629.32C1194-499.48,1095.61-407.4,1066.67-285c-13,55-10.3,116.67-15.42,172.9-5.65,61.91-12,123.75-18,185.63-8.27,85.67-37.87,194.2,19.16,268.73,39,51,77.35,79.2,82.25,148.68,6.87,97.28,37.38,180.2,62.32,273.78,24.75,92.91,23.76,169.63-43,243.08-32.17,35.37-71.55,65.07-98.87,104.77-32.85,47.73-32.55,94.84-20.06,149.89,36.86,162.41,127.66,310.77,145,477.78" transform="translate(662.09 676.96)" style="fill:none;stroke:#fff;stroke-miterlimit:10;stroke-width:2.291412047582297px"/><path d="M1224-644.77c-3,130.89-97.81,229.26-118,355.2-19,118.36-28.67,239.28-47.54,358.2-14,88.23-53.39,206.76,13.83,281.59,46.35,51.61,102.6,75.88,108.86,153.85,3.68,45.79,2.54,89.92,11.62,135.67s21.71,90.51,30.42,136.23c17.87,93.81,20.41,173.33-54.41,240.77-33,29.76-72.58,54-99.58,90-34.73,46.23-29.79,93-16.08,147.14,41.81,165.09,138.62,315.65,158,486.35" transform="translate(662.09 676.96)" style="fill:none;stroke:#fff;stroke-miterlimit:10;stroke-width:2.291412047582297px"/><path d="M1249.87-657.84C1248-529,1163-426.7,1145.73-301.85c-7.6,55-9.19,109.71-19.19,164.68-12.67,69.74-28.45,138.88-42.81,208.28-18.85,91.08-65.49,215,12.49,289.35,52.23,49.83,121.51,72.07,128.32,154.89,3.7,45.11.1,90.43,5.91,135.93,5.84,45.68,14.43,91,20,136.7,11.1,91,18,172.9-60.92,232.93-33.6,25.58-73.89,44.81-101.56,77.51-37,43.72-29.86,91.81-15.82,144.36,45.14,169,149.16,322.16,170.13,497.43" transform="translate(662.09 676.96)" style="fill:none;stroke:#fff;stroke-miterlimit:10;stroke-width:2.291412047582297px"/><path d="M1277-667.94c-1.72,126-76.14,230.63-92.76,353.16-8.3,61.22-10.81,120.17-24,181.2C1144.71-61.29,1125.29,10.11,1108,82c-22.18,92.26-71.8,216,15.22,287.62,57.38,47.19,134.47,68.94,141,154.61,7,93.07,9,188.11,14.63,281.61,5.44,90.51,13.23,168-70.35,221.21-33.56,21.37-74.68,36.39-101.47,67.1-37.41,42.86-26.41,93.73-12,144.36,48.45,169.93,157.35,324.44,178.44,501.7" transform="translate(662.09 676.96)" style="fill:none;stroke:#fff;stroke-miterlimit:10;stroke-width:2.291412047582297px"/><path d="M1305.53-674.45c-2.91,124.57-69.47,231.82-85.33,353.57-8.08,62-10.63,120.53-25.09,182.08-17.58,74.9-40,148.56-59.77,222.9-24.65,92.82-77.43,220.27,14.63,290.58C1210.61,421,1295.12,441,1301.68,529.86c6.85,92.64,3.16,188.91,5.17,282,1.92,88.73,14.7,169.45-72.37,217.54-33.84,18.7-75.56,30.22-102.72,59.31-38.4,41.12-26.46,94.52-12.18,143.77,49.84,171.88,164.86,327.86,185,507.71" transform="translate(662.09 676.96)" style="fill:none;stroke:#fff;stroke-miterlimit:10;stroke-width:2.291412047582297px"/><path d="M1335.75-676.8c-5.5,123.43-65.42,232.69-82,353.77-8.41,61.65-10,119.87-24.92,181.1-18.68,76.62-43.28,151.69-64.59,227.6-25.7,91.53-79.4,222.27,14,290.76,63.16,46.31,150.81,63.83,157.18,155.46,6.48,93.06.26,188.88.27,282.21,0,87.62,18.19,171.93-71.87,216.88-34,17-76.21,26-103.51,54.36-38.55,40-26.7,96.11-12.75,144.32,49.92,172.63,170.62,329.42,188.11,510.55" transform="translate(662.09 676.96)" style="fill:none;stroke:#fff;stroke-miterlimit:10;stroke-width:2.291412047582297px"/><path d="M1366.9-676.8c-3.45,125.34-68.61,235-84.73,357.76-8.09,61.51-11,119.8-25.27,180.88C1239.3-62.95,1217,11.06,1197.26,85.71c-24.74,93.74-77,219.06,14.59,290.47,60.33,47.06,145.17,69,152.28,157.39,7.39,91.92,2,187.89,3.15,280.27,1.11,88.4,16.91,171.39-72.35,217.42-34.33,17.71-77.06,27.71-104.6,56.59-38.21,40.07-26.74,96.14-12.8,144.41,49.68,172.06,173.48,327,189.37,508" transform="translate(662.09 676.96)" style="fill:none;stroke:#fff;stroke-miterlimit:10;stroke-width:2.291412047582297px"/><path d="M1398.05-676.8c-2.44,129-74.13,240.63-91,366.7-8.14,60.75-11.3,119.39-24.15,179.9-15.51,73-34.64,145.26-51.76,217.92-22.36,94.93-70.42,214.24,15.49,289,56.65,49.31,135,76,142.24,161.27,7.72,90.68,5.48,185.17,8.76,276.41,1.52,42.65,8.52,95.14-.58,137.19-8.91,41.13-36.4,62.22-71.77,81.38-34.89,18.9-78.36,30.36-106.32,60.2-38,40.56-27.26,96-13,144.74,50,170.52,177,322.39,192.06,502.29" transform="translate(662.09 676.96)" style="fill:none;stroke:#fff;stroke-miterlimit:10;stroke-width:2.291412047582297px"/><path d="M1429.21-676.8c-2.53,134.1-81.58,249-100.27,379.85-18.62,130.36-37.78,258.67-63.18,388.39-18.65,95.23-60.33,208.18,16.65,286.53,51.77,52.7,120.92,84.82,127.84,166.81,7.55,89.58,10.41,180.94,16.66,270.92,2.92,42,10.29,94.21,1.3,135.86-9,41.89-37.71,64-73.2,84.38-35.66,20.49-80,33.8-108.59,65-37.89,41.37-28.19,95.72-13.21,145.28,50.84,168.13,181.06,315.89,196,494" transform="translate(662.09 676.96)" style="fill:none;stroke:#fff;stroke-miterlimit:10;stroke-width:2.291412047582297px"/><path d="M1460.36-676.8c-3.62,140.47-90.57,259.82-112,396.53C1328.87-155.86,1319-28.49,1301,96.58c-13.66,94.79-47.3,201.37,18,283.21,45.35,56.79,103.6,95.07,109.81,173.72,7,88.69,16.47,175.55,26.48,264.09,4.66,41.26,12.78,92.86,4,134-9.17,42.9-39.36,66.46-75.06,88.3-36.61,22.4-82,37.88-111.31,70.7-37.85,42.39-29.5,95.41-13.55,146,52.06,165,185.66,307.8,201,483.58" transform="translate(662.09 676.96)" style="fill:none;stroke:#fff;stroke-miterlimit:10;stroke-width:2.291412047582297px"/><path d="M1491.51-676.8c-5.61,147.83-100.76,272.46-125.7,416-20.51,118-19.58,244.07-29,363.63-7.42,93.64-32.06,194.45,19.62,279.2,37.17,61,83.57,106.47,88.86,181.76,6.17,88,23.4,169.39,37.83,256.15,6.71,40.35,15.87,91.11,7.32,131.84-9.26,44.13-41.3,69.52-77.28,93-37.69,24.57-84.22,42.46-114.39,77.18-37.86,43.57-31.12,95.16-14,146.84,53.62,161.41,190.69,298.41,206.75,471.41" transform="translate(662.09 676.96)" style="fill:none;stroke:#fff;stroke-miterlimit:10;stroke-width:2.291412047582297px"/><path d="M1522.66-676.8c-8.36,155.93-111.82,286.53-140.9,437.64-21.55,112-8.87,235.52-8.88,349.16,0,91.9-15.4,187.87,21.33,274.68C1421.59,449.39,1455.65,503,1460,575.3c5.19,87.39,31,162.92,50.33,247.42,9,39.34,19.42,89,11.14,129.34-9.25,45.16-43.37,73.5-79.75,98.18-39,26.44-86.76,47.59-117.76,84.25-37.86,44.78-33,95-14.4,147.79,55.41,157.36,196,288,213.15,457.93" transform="translate(662.09 676.96)" style="fill:none;stroke:#fff;stroke-miterlimit:10;stroke-width:2.291412047582297px"/><path d="M1553.82-676.8c-11.69,164.52-123.44,301.54-157.1,460.68C1374-108.63,1399,9.74,1409.26,117.7c8.52,89.7,1.11,182,23.13,269.84,16.95,67.59,37.78,129.65,41.15,200,4.15,86.91,39,156.48,63.6,238.13,11.54,38.29,23.29,86.47,15.3,126.66-9.25,46.5-45.65,77.52-82.42,103.76-90.7,64.76-183.75,113.63-136.19,240.52,57.37,153,201.57,276.88,220,443.57" transform="translate(662.09 676.96)" style="fill:none;stroke:#fff;stroke-miterlimit:10;stroke-width:2.291412047582297px"/><path d="M1585-676.8c-15.37,173.34-135.31,317-173.79,484.42C1387-87,1424.34,22.74,1445.76,125.7c18.39,88.44,16.67,175.5,25,264.8,6.54,70.18,13.24,139.26,15.83,209.74,3.16,86.56,47.36,150.35,77.26,228.57,14.21,37.18,27.33,83.69,19.61,123.87-9.23,48-48,81.55-85.16,109.54-88.79,66.93-191.14,122.16-140.33,249.21,59.42,148.6,207.22,265.36,227,428.78" transform="translate(662.09 676.96)" style="fill:none;stroke:#fff;stroke-miterlimit:10;stroke-width:2.291412047582297px"/><path d="M1616.12-676.8c-19.19,182.14-147.12,332.57-190.5,508.18-26.16,105.9,23.12,203.89,56.64,302.32,53.88,158.22,13,316.57,17.32,479.22,2.31,86.4,55.93,144.68,90.93,219,46.25,98.2,18.61,171-64,236.4-86.83,68.75-198.61,130.93-144.47,257.92,61.47,144.18,212.86,253.73,234.06,414" transform="translate(662.09 676.96)" style="fill:none;stroke:#fff;stroke-miterlimit:10;stroke-width:2.291412047582297px"/><path d="M1647.27-676.8c-22.91,190.67-158.57,347.67-206.72,531.25-28.48,108.64,31.86,193.34,78.09,287,43.09,87.24,45,160.52,28.65,254.91-13,75-35.58,152.23-34.15,228.87,1.62,86.49,64.52,139.51,104.23,209.7,55,97.3,18.36,172.46-62.49,239.29-84.91,70.19-206,139.7-148.51,266.41,63.45,139.92,218.4,242.31,240.9,399.6" transform="translate(662.09 676.96)" style="fill:none;stroke:#fff;stroke-miterlimit:10;stroke-width:2.291412047582297px"/><path d="M1678.43-676.8c-26.3,198.68-169.4,361.86-222,552.94-31,112.77,39.57,184.48,98.32,272.45,24.37,36.49,48.49,77.26,51.75,122.08,3,41.95-10.11,88.15-21.39,128.3-21.53,76.68-58.37,156.74-57.34,237.76,1.11,86.89,72.89,134.86,116.76,200.93,63.59,95.75,17.91,174.19-61.13,242-83.09,71.3-212.94,148.18-152.34,274.44,65.27,136,223.73,231.39,247.34,386.08" transform="translate(662.09 676.96)" style="fill:none;stroke:#fff;stroke-miterlimit:10;stroke-width:2.291412047582297px"/><path d="M1709.58-676.8c-29.07,205.93-179.27,374.71-235.74,572.52-33.57,117.62,46.62,177.7,116.7,259.18,28.12,32.69,56.91,70.75,60.76,115.28,3.71,42.91-14.07,91.35-28.81,131.08-28.86,77.8-79.15,160.48-78.38,245.82.79,87.63,80.7,130.7,128.16,193,71.46,93.76,17.24,176.07-60,244.5-81.44,72.14-219.28,156.09-155.84,281.81,66.85,132.47,228.75,221.31,253.15,373.85" transform="translate(662.09 676.96)" style="fill:none;stroke:#fff;stroke-miterlimit:10;stroke-width:2.291412047582297px"/><path d="M1740.73-676.8c-31,212.16-187.91,385.73-247.55,589.32-35.9,122.59,53.11,172.79,132.64,247.57,31.29,29.43,63.92,64.74,68.26,109.61,4.27,44-17.42,94-34.92,133.39-34.91,78.57-97.19,163.43-96.53,252.79.65,88.73,87.54,127,138,186.09,78.29,91.56,16.33,178-59.17,246.62-80,72.78-224.73,163.07-158.92,288.28,68.13,129.6,233.36,212.37,258.15,363.34" transform="translate(662.09 676.96)" style="fill:none;stroke:#fff;stroke-miterlimit:10;stroke-width:2.291412047582297px"/><path d="M1771.88-676.8C1740.16-459.67,1576.83-282.3,1515-74.18,1497.05-13.8,1498.89,27,1543.3,73.36c34.26,35.74,78.58,60,117.16,90.51,34,26.91,69.25,59.62,73.9,105.36C1739,314.47,1714.69,365,1695,404.35c-39.7,79.23-111.78,165.41-111.07,258.39.69,90.23,92.92,123.83,146,180.55,83.73,89.42,15.13,179.74-58.71,248.3-78.94,73.31-229,168.78-161.46,293.63,69,127.5,237.46,204.89,262.12,355" transform="translate(662.09 676.96)" style="fill:none;stroke:#fff;stroke-miterlimit:10;stroke-width:2.291412047582297px"/><path d="M1803-676.8c-31,220.56-200.41,400.56-263.3,611.71-17.85,60-17.36,102.2,29.48,146.54,36.67,34.71,84,55.94,125.15,84.49,36.5,25.32,72.58,55.8,77.27,102.85,4.65,46.61-20.36,96.45-41.85,136.14-43.31,80-122.26,166.19-121.29,262.33.93,92.18,96.33,121.17,151.72,176.62,87.49,87.59,13.59,181.33-58.69,249.48-78.24,73.78-232,172.86-163.35,297.63,69.44,126.32,240.93,199.2,264.86,349.22" transform="translate(662.09 676.96)" style="fill:none;stroke:#fff;stroke-miterlimit:10;stroke-width:2.291412047582297px"/><path d="M1834.19-676.8C1820-566,1758.28-461.72,1708.3-363.76,1658.69-266.54,1599-166.28,1567.94-60.89,1550.62-2,1549.58,42.51,1597.11,85.43c38,34.33,87.53,53.32,130.3,80.61,214.71,137-93.05,335.62-90.45,503,1.48,94.64,97.25,119,154.76,174.58,89.3,86.29,11.63,182.61-59.18,250-78,74.27-233.23,175-164.52,300,69.36,126.26,243.68,195.62,266.17,346.48" transform="translate(662.09 676.96)" style="fill:none;stroke:#fff;stroke-miterlimit:10;stroke-width:2.291412047582297px"/><path d="M1861.67-673.33c-32.73,219.44-198.27,398.5-261.41,608.77-17.93,59.67-20.56,104.28,27.84,148,38.14,34.47,87.86,53.58,130.78,81,215.77,137.79-94.47,335.42-91.54,503.25,1.65,94.57,98.18,120.22,155.68,176.17,88.93,86.54,11.75,182.28-59.37,249.79-78.12,74.17-233.65,174.78-164.89,300,69.33,126.29,244.49,195.52,266.58,346.55" transform="translate(662.09 676.96)" style="fill:none;stroke:#fff;stroke-miterlimit:10;stroke-width:2.291412047582297px"/><path d="M1882.09-663.2c-34.41,215.25-192.43,390-251.92,597.45C1614.64-11.59,1611.3,31.79,1653.34,73c37.09,36.4,88.48,56.34,132.12,83.17,228.08,140.24-94.19,335.7-89.23,507.88,2.62,91.12,94.27,121.34,152.18,174.25,92.14,84.19,25.75,179-47.65,249.38-77.56,74.32-240.09,176-173.61,302.36,68,129.38,246.92,197.07,269.35,350.14" transform="translate(662.09 676.96)" style="fill:none;stroke:#fff;stroke-miterlimit:10;stroke-width:2.291412047582297px"/><path d="M1896.45-647.35c-33,206.13-179.77,374.23-235.56,573.27-15.21,54.24-18.28,97.28,23.67,138.5,37.35,36.69,89,57,133,84.11,230.64,142.57-98.14,336-93.18,509.57C1727,750,1820.76,782.92,1878.89,837c92,85.63,27.56,179.19-47.41,250.59-77.77,74.05-241.31,175.58-174.49,302.16,68.35,129.5,248.19,197.08,270.66,350.44" transform="translate(662.09 676.96)" style="fill:none;stroke:#fff;stroke-miterlimit:10;stroke-width:2.291412047582297px"/><path d="M1905.75-626.73c-29,189.48-155.65,347.84-211.17,529.18-18.09,59.07-24,109.22,24.7,154,39.56,36.35,91.28,56.86,136.1,85.55,223,142.77-106.59,338.14-103.57,508.07,1.66,93.67,100.63,130.79,159,187,87.21,83.91,31.42,173.4-42.49,244.43-77.07,74.06-247.78,177.31-183.72,304.44,66.95,132.87,251,198.72,274.16,354.28" transform="translate(662.09 676.96)" style="fill:none;stroke:#fff;stroke-miterlimit:10;stroke-width:2.291412047582297px"/><path d="M1911-602.29c-24.75,178.21-141.19,326.86-188.57,498.39-16.13,58.41-16.23,108.17,31.87,150.41,41.25,36.23,93.87,57.1,139.24,87.29C2111.72,279,1773.4,472.33,1778,641.09c2.63,96.76,106.34,135.44,165.08,195.56,88,90.07,26.3,177.81-50.82,250.67C1817.42,1158,1652.65,1258.61,1712,1382c65.68,136.38,253.87,200.38,277.91,358.26" transform="translate(662.09 676.96)" style="fill:none;stroke:#fff;stroke-miterlimit:10;stroke-width:2.291412047582297px"/><path d="M1913.22-575c-19.57,165.29-124.61,303.22-162.94,463.25C1736-52.19,1740.64-6.06,1789.64,35.15c39.48,33.2,88,53.69,130.84,81.91,229.8,151.33-118.78,337.58-116.19,513.52,1.4,95,103.46,139.3,162.4,197.44,32.41,32,59.72,71.56,53.57,119.44-7.62,59.29-63,108.17-104.12,145.75-73.73,67.48-231.6,165-176.88,284.64,64.11,140.21,256.8,202,281.85,362.36" transform="translate(662.09 676.96)" style="fill:none;stroke:#fff;stroke-miterlimit:10;stroke-width:2.291412047582297px"/><path d="M1913.39-545.74c-13.89,151-106.15,277.94-135.11,425C1753.37,5.63,1857.43,41.66,1947.62,99.05c245.69,156.35-122.51,338.89-118.19,520.69,2.31,97.12,109,146.86,168.83,207.47,30,30.42,56.53,67.57,53.86,112.56-3.56,60.13-57.88,109.26-99,147.14-81.22,74.73-246.34,171.91-178.74,301.06,69,131.84,253,196.7,277.93,352.24" transform="translate(662.09 676.96)" style="fill:none;stroke:#fff;stroke-miterlimit:10;stroke-width:2.291412047582297px"/><path d="M1912.52-515.52c-8.21,135.8-86.29,251.75-105.92,384.75-18.45,125,92.22,161.2,179.83,219,237.73,156.77-132.9,341.62-131.08,520,1,100.09,114,154.61,175,218.14,31.06,32.34,56.61,71.5,51.74,118-5.83,55.68-53.11,100.13-92,136.14-79.78,74-253.69,173.78-188.93,303.31,67.76,135.52,256.13,198.42,282.24,356.4" transform="translate(662.09 676.96)" style="fill:none;stroke:#fff;stroke-miterlimit:10;stroke-width:2.291412047582297px"/><path d="M1911.62-485.27c-3,120.19-65.29,225.58-76.25,344-11.57,125,103.16,159.36,190,218.92,231.88,159-147.25,342.72-145.25,519.31,1.11,98.11,112,157.65,172.81,219.27,34.33,34.79,68.37,80.84,60.45,132.88-8.59,56.39-60.38,101.31-100.08,137.44-78.14,71.13-245.14,167-185.27,293.06,66.25,139.43,259.25,200.11,286.53,360.65" transform="translate(662.09 676.96)" style="fill:none;stroke:#fff;stroke-miterlimit:10;stroke-width:2.291412047582297px"/><path d="M1911.7-455.94c1.26,100.67-39.67,192.07-46.17,291.39-8.41,128.4,95,162,186.4,224,245.62,166.75-146.53,341.05-145.53,526.38.57,105.54,126,170.34,188,239.93,27.85,31.26,54.34,71.42,51,115.37-4.78,63-64.91,112.81-108.82,151.47-80.63,71-248,170.75-174.47,297.4,74.74,128.76,256.51,195.18,283.56,350.2" transform="translate(662.09 676.96)" style="fill:none;stroke:#fff;stroke-miterlimit:10;stroke-width:2.291412047582297px"/><path d="M1913.76-428.48c4.21,86.36-19.11,168.66-19.19,254.49,0,53.94,9.92,94,52,130.35,39.71,34.29,88.27,56.94,131.9,85.54,260.65,170.8-147,343.62-147,533.58,0,103.42,123.91,173,185.57,239.86,32.81,35.57,64.24,79.76,58.09,130.53-7,58.09-59.82,103.7-101,140.23-79.83,70.74-256.37,171.91-185.17,299.69,73.59,132.07,259.81,197.22,287.9,354.42" transform="translate(662.09 676.96)" style="fill:none;stroke:#fff;stroke-miterlimit:10;stroke-width:2.291412047582297px"/><path d="M1918.8-403.84c5.57,70.17,1.36,139.94,4.88,210.09,3,59.1,10.77,100.77,58.88,140.68,41.31,34.26,90.74,57.31,135,87.29,251.9,170.72-159,345.43-158.7,532,.17,106.51,127.77,178.67,190.48,249.59,32.12,36.33,66.1,83.23,57.13,134.94-9.11,52.48-57.11,95.19-94.57,128.72-78.8,70.54-264.17,173.49-195.86,302,72.28,136,262.87,199,292,358.68" transform="translate(662.09 676.96)" style="fill:none;stroke:#fff;stroke-miterlimit:10;stroke-width:2.291412047582297px"/><path d="M1927.82-383c6,61.17,18.8,121,25.9,181.92,6.34,54.43,10.86,91.55,53.53,130.52,44.21,40.38,100.56,64.92,149.25,99.16,243,170.91-171,346.32-171.42,529.65-.24,108.37,134.39,186.17,197.34,258.6,29.45,33.89,60.69,78.17,56.33,125.72-5.46,59.48-62.66,106.84-103.91,143.19-76.52,67.43-254.13,167-191.45,291.45,70.49,140,265.72,200.77,295.78,363" transform="translate(662.09 676.96)" style="fill:none;stroke:#fff;stroke-miterlimit:10;stroke-width:2.291412047582297px"/><path d="M1941.84-366.79c5.85,57.63,32.74,102.07,42.46,157.43,9.57,54.47,10.52,90.13,54.22,130.11C2083-38.55,2139.66-13.67,2188.64,20.9,2433.81,194,2013.52,367.6,2013.13,552.19c-.23,109.34,136.49,189.94,199.82,263.47,29.51,34.27,61.37,79,57,127-5.48,59.55-63,106.83-104.36,143.08-76.68,67.17-255.32,166.59-192.36,291.24,70.8,140.19,267,200.75,297.14,363.27" transform="translate(662.09 676.96)" style="fill:none;stroke:#fff;stroke-miterlimit:10;stroke-width:2.291412047582297px"/><path d="M1961.86-356.28c3.08,37,7.44,60.15,28,89.38,12.24,17.42,21.19,29.33,25.89,51.2,11.8,55,8.86,89.4,54,130.71C2114.4-44,2171.28-18.9,2220.48,15.92c246.73,174.63-178,346.79-178.21,532.3-.12,110,137.93,192.53,201.54,266.87,29.52,34.5,61.71,79.37,57.27,127.53-5.5,59.65-63.11,106.81-104.64,143-76.83,67-256.16,166.25-193,291.08,71,140.32,268,200.71,298.07,363.49" transform="translate(662.09 676.96)" style="fill:none;stroke:#fff;stroke-miterlimit:10;stroke-width:2.291412047582297px"/><path d="M1988.88-352.38c1.79,40.16,3.83,60.13,30.33,87,16,16.17,24.37,23.82,29.3,48,10,49.19,5.47,85.73,44.69,123.82,44,42.72,102.11,68.44,151.94,103.24,257.34,179.67-169.39,344.66-171.7,537-1.27,106.09,130.67,188.8,193.48,259.32,34.46,38.69,71.35,86.72,63.76,141.52-8.41,60.81-66.69,107.44-110.6,144.63-75,63.51-245,159.8-188,280.47,68.24,144.41,270.13,202.46,300.53,367.56" transform="translate(662.09 676.96)" style="fill:none;stroke:#fff;stroke-miterlimit:10;stroke-width:2.291412047582297px"/></g></g></g></svg>